<?xml version="1.0" encoding="UTF-8" standalone="no"?>
<!-- Created with Inkscape (http://www.inkscape.org/) -->
<svg
   xmlns:dc="http://purl.org/dc/elements/1.1/"
   xmlns:cc="http://creativecommons.org/ns#"
   xmlns:rdf="http://www.w3.org/1999/02/22-rdf-syntax-ns#"
   xmlns:svg="http://www.w3.org/2000/svg"
   xmlns="http://www.w3.org/2000/svg"
   xmlns:sodipodi="http://sodipodi.sourceforge.net/DTD/sodipodi-0.dtd"
   xmlns:inkscape="http://www.inkscape.org/namespaces/inkscape"
   width="100"
   height="100"
   id="svg2731"
   sodipodi:version="0.32"
   inkscape:version="0.46"
   version="1.0"
   sodipodi:docname="background.svg"
   inkscape:output_extension="org.inkscape.output.svg.inkscape">
  <defs
     id="defs2733">
    <filter
       inkscape:collect="always"
       id="filter4481"
       x="-0.12811012"
       width="1.2562202"
       y="-0.47582276"
       height="1.9516455">
      <feGaussianBlur
         inkscape:collect="always"
         stdDeviation="3.302839"
         id="feGaussianBlur4483" />
    </filter>
    <filter
       inkscape:collect="always"
       id="filter4257"
       x="-0.1046729"
       width="1.2093458"
       y="-0.1046729"
       height="1.2093458">
      <feGaussianBlur
         inkscape:collect="always"
         stdDeviation="4.4405405"
         id="feGaussianBlur4259" />
    </filter>
    <inkscape:perspective
       sodipodi:type="inkscape:persp3d"
       inkscape:vp_x="0 : 526.18109 : 1"
       inkscape:vp_y="0 : 1000 : 0"
       inkscape:vp_z="744.09448 : 526.18109 : 1"
       inkscape:persp3d-origin="372.04724 : 350.78739 : 1"
       id="perspective2739" />
  </defs>
  <sodipodi:namedview
     id="base"
     pagecolor="#ffffff"
     bordercolor="#666666"
     borderopacity="1.0"
     inkscape:pageopacity="0.0"
     inkscape:pageshadow="2"
     inkscape:zoom="0.35"
     inkscape:cx="375"
     inkscape:cy="520"
     inkscape:document-units="px"
     inkscape:current-layer="layer1"
     showgrid="false"
     inkscape:window-width="867"
     inkscape:window-height="716"
     inkscape:window-x="797"
     inkscape:window-y="308" />
  <metadata
     id="metadata2736">
    <rdf:RDF>
      <cc:Work
         rdf:about="">
        <dc:format>image/svg+xml</dc:format>
        <dc:type
           rdf:resource="http://purl.org/dc/dcmitype/StillImage" />
      </cc:Work>
    </rdf:RDF>
  </metadata>
  <g
     inkscape:label="Calque 1"
     inkscape:groupmode="layer"
     id="layer1">
    <g
       id="g2723"
       transform="translate(-1.4862054e-4,-1.4772127e-4)">
      <path
         transform="matrix(0.8597899,0,0,0.8597899,98.562812,9.584023)"
         d="M -5.5558395,47.977142 A 50.507626,50.507626 0 1 1 -106.57109,47.977142 A 50.507626,50.507626 0 1 1 -5.5558395,47.977142 z"
         sodipodi:ry="50.507626"
         sodipodi:rx="50.507626"
         sodipodi:cy="47.977142"
         sodipodi:cx="-56.063465"
         id="path4231"
         style="opacity:1;fill:#000000;fill-opacity:0.46204619;fill-rule:nonzero;stroke:#646464;stroke-width:0.80000001;stroke-linecap:butt;stroke-linejoin:round;stroke-miterlimit:4;stroke-dasharray:none;stroke-dashoffset:0;stroke-opacity:0.26732674;filter:url(#filter4257)"
         sodipodi:type="arc" />
      <path
         transform="matrix(1.0385581,0,0,1.0385581,108.65044,0.9648425)"
         d="M -20.35714,48.214287 A 36.07143,36.07143 0 1 1 -92.5,48.214287 A 36.07143,36.07143 0 1 1 -20.35714,48.214287 z"
         sodipodi:ry="36.07143"
         sodipodi:rx="36.07143"
         sodipodi:cy="48.214287"
         sodipodi:cx="-56.42857"
         id="path5176"
         style="opacity:1;fill:#000000;fill-opacity:1;fill-rule:nonzero;stroke:none;stroke-width:0.2;stroke-linecap:butt;stroke-linejoin:round;stroke-miterlimit:4;stroke-dasharray:none;stroke-dashoffset:0;stroke-opacity:1"
         sodipodi:type="arc" />
      <path
         id="text2655"
         d="M 67.425452,46.971821 L 67.202682,46.971821 L 67.475762,46.012708 L 68.223122,46.012708 C 68.366852,46.012712 68.493802,46.031124 68.603992,46.067944 C 68.718972,46.101425 68.810002,46.149967 68.877072,46.213569 C 68.948932,46.273831 68.996842,46.345807 69.020792,46.429496 C 69.044742,46.513191 69.042352,46.605252 69.013612,46.70568 L 68.122522,49.829076 L 66.872122,49.829076 L 67.626672,47.182726 C 67.684162,47.042125 67.617082,46.971824 67.425452,46.971821 M 71.196642,48.869962 C 71.417012,48.869963 71.551162,48.791292 71.599072,48.63395 L 72.008682,47.187748 C 72.051802,47.043799 71.958382,46.971824 71.728422,46.971821 L 70.894822,46.971821 C 70.703192,46.971824 70.585812,47.047147 70.542702,47.19779 L 70.133082,48.623906 C 70.085172,48.787945 70.154642,48.869963 70.341482,48.869962 L 71.196642,48.869962 M 72.684192,49.141125 C 72.554832,49.606454 72.169172,49.835771 71.527212,49.829076 L 69.551002,49.829076 C 68.880292,49.829076 68.609612,49.606454 68.738962,49.161211 L 69.436022,46.70568 C 69.570162,46.243702 69.965402,46.012712 70.621752,46.012708 L 72.605142,46.012708 C 73.251892,46.016059 73.510592,46.248723 73.381252,46.710701 L 72.684192,49.141125 M 75.575742,48.869962 C 75.796112,48.869963 75.930252,48.791292 75.978162,48.63395 L 76.387782,47.187748 C 76.430892,47.043799 76.337472,46.971824 76.107512,46.971821 L 75.273912,46.971821 C 75.082282,46.971824 74.964912,47.047147 74.921792,47.19779 L 74.512182,48.623906 C 74.464272,48.787945 74.533732,48.869963 74.720582,48.869962 L 75.575742,48.869962 M 77.063282,49.141125 C 76.933922,49.606454 76.548262,49.835771 75.906302,49.829076 L 73.930092,49.829076 C 73.259382,49.829076 72.988702,49.606454 73.118052,49.161211 L 73.815112,46.70568 C 73.949262,46.243702 74.344502,46.012712 75.000842,46.012708 L 76.984232,46.012708 C 77.630992,46.016059 77.889692,46.248723 77.760342,46.710701 L 77.063282,49.141125"
         style="font-size:7.43396711px;font-style:italic;font-variant:normal;font-weight:normal;font-stretch:normal;text-align:start;line-height:125%;writing-mode:lr-tb;text-anchor:start;fill:#f82312;fill-opacity:1;stroke:none;stroke-width:1px;stroke-linecap:butt;stroke-linejoin:miter;stroke-opacity:1;font-family:Kimberley" />
      <path
         id="path3791"
         d="M 52.90625,27.9375 C 51.997529,27.961272 51.096443,28.040108 50.1875,28.125 L 50.3125,32.1875 C 51.321635,32.187466 52.340574,32.238395 53.34375,32.3125 L 53.75,27.9375 C 53.471206,27.939068 53.185301,27.9302 52.90625,27.9375 z M 54.71875,27.9375 L 54.40625,32.375 C 55.417496,32.476171 56.406942,32.637112 57.40625,32.8125 L 58.34375,28.1875 C 57.135544,28.057484 55.938326,27.959328 54.71875,27.9375 z M 49.21875,28.21875 C 48.048429,28.356388 46.881975,28.571367 45.71875,28.8125 L 46.21875,32.40625 C 47.218456,32.305115 48.219282,32.21455 49.21875,32.1875 L 49.21875,28.21875 z M 59.28125,28.28125 L 58.46875,33 C 59.45779,33.199995 60.434822,33.446869 61.40625,33.71875 L 62.90625,28.90625 C 61.711446,28.639176 60.497116,28.44067 59.28125,28.28125 z M 44.75,29.03125 C 43.62986,29.29226 42.512231,29.577958 41.40625,29.9375 L 42.15625,33 C 43.143712,32.797753 44.132298,32.658823 45.125,32.53125 L 44.75,29.03125 z M 63.8125,29.15625 L 62.4375,34.03125 C 63.401701,34.32833 64.340463,34.663856 65.28125,35.03125 L 67.34375,30.1875 C 66.184507,29.787547 65.002384,29.450929 63.8125,29.15625 z M 40.46875,30.25 C 39.40527,30.62447 38.355952,31.062991 37.3125,31.53125 L 38.1875,34.03125 C 39.147841,33.73111 40.123059,33.444882 41.09375,33.21875 L 40.46875,30.25 z M 68.21875,30.5 L 66.3125,35.40625 C 67.235143,35.794986 68.137281,36.231303 69.03125,36.6875 L 71.65625,31.96875 C 70.531572,31.431442 69.384718,30.931919 68.21875,30.5 z M 36.375,31.96875 C 35.426841,32.423335 34.48841,32.902926 33.5625,33.4375 C 33.509823,33.467913 33.458744,33.500643 33.40625,33.53125 L 34.3125,35.46875 C 35.242434,35.070787 36.179828,34.699164 37.125,34.375 L 36.375,31.96875 z M 72.5,32.375 L 70,37.21875 C 70.877948,37.696842 71.7498,38.206662 72.59375,38.75 L 75.71875,34.21875 C 74.668843,33.561735 73.599835,32.931822 72.5,32.375 z M 32.5,34.0625 C 31.56843,34.636913 30.651403,35.24015 29.78125,35.875 L 30.59375,37.28125 C 31.497113,36.781382 32.388859,36.330938 33.3125,35.90625 L 32.5,34.0625 z M 76.5,34.6875 L 73.5,39.34375 C 74.32692,39.908171 75.149825,40.497403 75.9375,41.125 L 79.5625,36.90625 C 78.570785,36.113648 77.553095,35.379468 76.5,34.6875 z M 28.9375,36.53125 C 28.086561,37.186411 27.25591,37.851865 26.46875,38.5625 L 27.125,39.4375 C 27.939288,38.87527 28.791252,38.320936 29.65625,37.8125 L 28.9375,36.53125 z M 80.28125,37.5 L 76.78125,41.84375 C 77.519938,42.465942 78.239697,43.102612 78.9375,43.78125 L 82.90625,39.90625 C 82.062856,39.064602 81.185721,38.25747 80.28125,37.5 z M 25.6875,39.3125 C 24.92326,40.040826 24.198386,40.815256 23.5,41.59375 L 23.84375,41.96875 C 24.615774,41.310969 25.420649,40.6998 26.25,40.09375 L 25.6875,39.3125 z M 22.78125,42.40625 C 22.172685,43.1226 21.584638,43.840743 21.03125,44.59375 C 21.663615,43.943605 22.318649,43.300559 23,42.6875 L 22.78125,42.40625 z"
         style="opacity:1;fill:#f82312;fill-opacity:1;fill-rule:nonzero;stroke:none;stroke-width:0.42500001;stroke-linecap:round;stroke-linejoin:miter;stroke-miterlimit:4;stroke-dasharray:none;stroke-dashoffset:0;stroke-opacity:1" />
      <path
         id="path4419"
         d="M 52.834087,28.033726 C 51.925366,28.057498 51.02428,28.136334 50.115337,28.221226 L 50.240337,32.283726 C 51.249472,32.283692 52.268411,32.334621 53.271587,32.408726 L 53.677837,28.033726 C 53.399043,28.035294 53.113138,28.026426 52.834087,28.033726 z M 54.646587,28.033726 L 54.334087,32.471226 C 55.345333,32.572397 56.334779,32.733338 57.334087,32.908726 L 58.271587,28.283726 C 57.063381,28.15371 55.866163,28.055554 54.646587,28.033726 z M 49.146587,28.314976 C 47.976266,28.452614 46.809812,28.667593 45.646587,28.908726 L 46.146587,32.502476 C 47.146293,32.401341 48.147119,32.310776 49.146587,32.283726 L 49.146587,28.314976 z M 59.209087,28.377476 L 58.396587,33.096226 C 59.385627,33.296221 60.362659,33.543095 61.334087,33.814976 L 62.834087,29.002476 C 61.639283,28.735402 60.424953,28.536896 59.209087,28.377476 z M 44.677837,29.127476 C 43.557697,29.388486 42.440068,29.674184 41.334087,30.033726 L 42.084087,33.096226 C 43.071549,32.893979 44.060135,32.755049 45.052837,32.627476 L 44.677837,29.127476 z M 63.740337,29.252476 L 62.365337,34.127476 C 63.329538,34.424556 64.2683,34.760082 65.209087,35.127476 L 67.271587,30.283726 C 66.112344,29.883773 64.930221,29.547155 63.740337,29.252476 z M 40.396587,30.346226 C 39.333107,30.720696 38.283789,31.159217 37.240337,31.627476 L 38.115337,34.127476 C 39.075678,33.827336 40.050896,33.541108 41.021587,33.314976 L 40.396587,30.346226 z M 68.146587,30.596226 L 66.240337,35.502476 C 67.16298,35.891212 68.065118,36.327529 68.959087,36.783726 L 71.584087,32.064976 C 70.459409,31.527668 69.312555,31.028145 68.146587,30.596226 z M 36.302837,32.064976 C 35.354678,32.519561 34.416247,32.999152 33.490337,33.533726 C 33.43766,33.564139 33.386581,33.596869 33.334087,33.627476 L 34.240337,35.564976 C 35.170271,35.167013 36.107665,34.79539 37.052837,34.471226 L 36.302837,32.064976 z M 72.427837,32.471226 L 69.927837,37.314976 C 70.805785,37.793068 71.677637,38.302888 72.521587,38.846226 L 75.646587,34.314976 C 74.59668,33.657961 73.527672,33.028048 72.427837,32.471226 z M 32.427837,34.158726 C 31.496267,34.733139 30.57924,35.336376 29.709087,35.971226 L 30.521587,37.377476 C 31.42495,36.877608 32.316696,36.427164 33.240337,36.002476 L 32.427837,34.158726 z M 76.427837,34.783726 L 73.427837,39.439976 C 74.254757,40.004397 75.077662,40.593629 75.865337,41.221226 L 79.490337,37.002476 C 78.498622,36.209874 77.480932,35.475694 76.427837,34.783726 z M 28.865337,36.627476 C 28.014398,37.282637 27.183747,37.948091 26.396587,38.658726 L 27.052837,39.533726 C 27.867125,38.971496 28.719089,38.417162 29.584087,37.908726 L 28.865337,36.627476 z M 80.209087,37.596226 L 76.709087,41.939976 C 77.447775,42.562168 78.167534,43.198838 78.865337,43.877476 L 82.834087,40.002476 C 81.990693,39.160828 81.113558,38.353696 80.209087,37.596226 z M 25.615337,39.408726 C 24.851097,40.137052 24.126223,40.911482 23.427837,41.689976 L 23.771587,42.064976 C 24.543611,41.407195 25.348486,40.796026 26.177837,40.189976 L 25.615337,39.408726 z M 22.709087,42.502476 C 22.100522,43.218826 21.512475,43.936969 20.959087,44.689976 C 21.591452,44.039831 22.246486,43.396785 22.927837,42.783726 L 22.709087,42.502476 z"
         style="opacity:1;fill:#f82312;fill-opacity:1;fill-rule:nonzero;stroke:none;stroke-width:0.42500001;stroke-linecap:round;stroke-linejoin:miter;stroke-miterlimit:4;stroke-dasharray:none;stroke-dashoffset:0;stroke-opacity:1;filter:url(#filter4481)" />
      <path
         sodipodi:nodetypes="cccccccccccccccccc"
         id="path4485"
         d="M 24.330275,48.799873 C 24.550645,48.799874 24.684785,48.721203 24.732695,48.563861 L 25.142315,47.117659 C 25.185425,46.97371 25.092005,46.901735 24.862045,46.901732 L 24.028445,46.901732 C 23.836815,46.901735 23.719445,46.977058 23.676325,47.127701 L 23.266715,48.553817 C 23.218805,48.717856 23.288265,48.799874 23.475115,48.799873 L 24.330275,48.799873 M 25.817815,49.071036 C 25.688455,49.536365 25.302795,49.765682 24.660835,49.758987 L 22.684625,49.758987 C 22.013915,49.758987 21.743235,49.536365 21.872585,49.091122 L 22.569645,46.635591 C 22.703795,46.173613 23.099035,45.942623 23.755375,45.942619 L 25.738765,45.942619 C 26.385525,45.94597 26.644225,46.178634 26.514875,46.640612 L 25.817815,49.071036"
         style="font-size:7.43396711px;font-style:italic;font-variant:normal;font-weight:normal;font-stretch:normal;text-align:start;line-height:125%;writing-mode:lr-tb;text-anchor:start;fill:#f82312;fill-opacity:1;stroke:none;stroke-width:1px;stroke-linecap:butt;stroke-linejoin:miter;stroke-opacity:1;font-family:Kimberley" />
    </g>
  </g>
</svg>
