<?xml version="1.0" encoding="UTF-8" standalone="no"?>
<!-- Created with Inkscape (http://www.inkscape.org/) -->
<svg
   xmlns:dc="http://purl.org/dc/elements/1.1/"
   xmlns:cc="http://web.resource.org/cc/"
   xmlns:rdf="http://www.w3.org/1999/02/22-rdf-syntax-ns#"
   xmlns:svg="http://www.w3.org/2000/svg"
   xmlns="http://www.w3.org/2000/svg"
   xmlns:xlink="http://www.w3.org/1999/xlink"
   xmlns:sodipodi="http://sodipodi.sourceforge.net/DTD/sodipodi-0.dtd"
   xmlns:inkscape="http://www.inkscape.org/namespaces/inkscape"
   height="48"
   id="svg1"
   inkscape:version="0.45"
   sodipodi:docbase="/opt/cairo-dock/cairo-dock/data/themes"
   sodipodi:docname="snow.svg"
   sodipodi:version="0.32"
   width="250"
   inkscape:output_extension="org.inkscape.output.svg.inkscape"
   version="1.0"
   sodipodi:modified="true">
  <metadata
     id="metadata26497">
    <rdf:RDF>
      <cc:Work
         rdf:about="">
        <dc:title>Clipart by Nicu Buculei - w_cloud</dc:title>
        <dc:description />
        <dc:subject>
          <rdf:Bag>
            <rdf:li />
            <rdf:li>weather</rdf:li>
            <rdf:li>signs_and_symbols</rdf:li>
          </rdf:Bag>
        </dc:subject>
        <dc:publisher>
          <cc:Agent
             rdf:about="http://www.openclipart.org">
            <dc:title>Nicu Buculei</dc:title>
          </cc:Agent>
        </dc:publisher>
        <dc:creator>
          <cc:Agent>
            <dc:title>Nicu Buculei</dc:title>
          </cc:Agent>
        </dc:creator>
        <dc:rights>
          <cc:Agent>
            <dc:title>Nicu Buculei</dc:title>
          </cc:Agent>
        </dc:rights>
        <dc:date />
        <dc:format>image/svg+xml</dc:format>
        <dc:type
           rdf:resource="http://purl.org/dc/dcmitype/StillImage" />
        <cc:license
           rdf:resource="http://web.resource.org/cc/PublicDomain" />
        <dc:language>en</dc:language>
      </cc:Work>
      <cc:License
         rdf:about="http://web.resource.org/cc/PublicDomain">
        <cc:permits
           rdf:resource="http://web.resource.org/cc/Reproduction" />
        <cc:permits
           rdf:resource="http://web.resource.org/cc/Distribution" />
        <cc:permits
           rdf:resource="http://web.resource.org/cc/DerivativeWorks" />
      </cc:License>
    </rdf:RDF>
  </metadata>
  <defs
     id="defs3">
    <linearGradient
       id="linearGradient912">
      <stop
         id="stop913"
         offset="0.0000000"
         style="stop-color:#b1f3f3;stop-opacity:1.0000000;" />
      <stop
         id="stop855"
         offset="0.28319508"
         style="stop-color:#ffffff;stop-opacity:1.0000000;" />
      <stop
         id="stop1077"
         offset="0.43082523"
         style="stop-color:#e2ffff;stop-opacity:1.0000000;" />
      <stop
         id="stop1078"
         offset="0.69532084"
         style="stop-color:#ffffff;stop-opacity:1.0000000;" />
      <stop
         id="stop914"
         offset="1.0000000"
         style="stop-color:#bdffff;stop-opacity:1.0000000;" />
    </linearGradient>
    <radialGradient
       id="radialGradient915"
       xlink:href="#linearGradient912" />
    <linearGradient
       id="linearGradient854"
       x1="84.383949"
       x2="8.059124"
       xlink:href="#linearGradient912"
       y1="67.464867"
       y2="19.099308"
       gradientTransform="matrix(0.567836,0.274502,-0.2533379,0.5240559,11.095966,-31.997466)"
       gradientUnits="userSpaceOnUse" />
    <linearGradient
       inkscape:collect="always"
       xlink:href="#linearGradient912"
       id="linearGradient27481"
       gradientUnits="userSpaceOnUse"
       gradientTransform="matrix(0.5848863,-0.2119922,0.1954889,0.5393537,87.359596,18.199515)"
       x1="84.383949"
       y1="67.464867"
       x2="8.059124"
       y2="19.099308" />
    <linearGradient
       inkscape:collect="always"
       xlink:href="#linearGradient912"
       id="linearGradient27489"
       gradientUnits="userSpaceOnUse"
       gradientTransform="matrix(0.3405418,0.1151165,-0.1061549,0.3140311,188.95014,25.894072)"
       x1="84.383949"
       y1="67.464867"
       x2="8.059124"
       y2="19.099308" />
    <linearGradient
       inkscape:collect="always"
       xlink:href="#linearGradient912"
       id="linearGradient2232"
       gradientUnits="userSpaceOnUse"
       gradientTransform="matrix(0.3636416,0,0,0.3353326,215.3025,-9.8086958)"
       x1="84.383949"
       y1="67.464867"
       x2="8.059124"
       y2="19.099308" />
    <linearGradient
       inkscape:collect="always"
       xlink:href="#linearGradient912"
       id="linearGradient2236"
       gradientUnits="userSpaceOnUse"
       gradientTransform="matrix(0.1883367,5.7372834e-2,-5.2906456e-2,0.173675,49.889676,25.588892)"
       x1="84.383949"
       y1="67.464867"
       x2="8.059124"
       y2="19.099308" />
    <linearGradient
       inkscape:collect="always"
       xlink:href="#linearGradient912"
       id="linearGradient2240"
       gradientUnits="userSpaceOnUse"
       gradientTransform="matrix(0.1883367,5.7372834e-2,-5.2906456e-2,0.173675,162.32124,-13.782516)"
       x1="84.383949"
       y1="67.464867"
       x2="8.059124"
       y2="19.099308" />
  </defs>
  <sodipodi:namedview
     bordercolor="#666666"
     borderopacity="1.0"
     id="base"
     inkscape:cx="119.82743"
     inkscape:cy="18.025007"
     inkscape:pageopacity="0.0"
     inkscape:pageshadow="2"
     inkscape:window-height="694"
     inkscape:window-width="872"
     inkscape:window-x="132"
     inkscape:window-y="91"
     inkscape:zoom="2.8284271"
     pagecolor="#ffffff"
     height="48px"
     width="250px"
     inkscape:current-layer="svg1" />
  <path
     d="M 48.871994,-10.643076 L 45.883533,-8.6793651 L 45.946081,-11.026583 L 43.676492,-11.071772 L 43.592034,-7.1571923 L 38.807313,-3.9999637 L 38.973724,-6.8229565 L 40.65843,-7.4812986 L 39.834919,-9.6046286 L 39.110469,-9.3236598 L 39.165939,-10.264657 L 36.903488,-10.411591 L 36.854057,-9.6570302 L 36.443989,-9.9394224 L 35.122123,-8.074746 L 36.711275,-6.9698916 L 36.431716,-2.4342858 L 33.376197,-0.41883491 L 33.426184,-1.1310495 L 31.163183,-1.3203298 L 30.967073,1.1727132 L 27.701589,3.3180974 L 27.493117,0.31387987 L 29.944014,-1.3205954 L 28.691774,-3.2093536 L 27.298405,-2.2839375 L 27.049231,-5.8127765 L 31.826262,-8.9106043 L 34.031031,-7.9920541 L 34.901056,-10.096199 L 34.1348,-10.42454 L 35.478151,-11.28998 L 34.234155,-13.195793 L 32.764933,-12.243927 L 32.70333,-13.073205 L 30.436495,-12.906666 L 30.565224,-10.824655 L 26.854519,-8.4105938 L 26.377072,-15.163617 L 29.399579,-17.763088 L 27.937923,-19.479571 L 26.171359,-17.956107 L 25.934843,-21.163235 C 25.179233,-21.107723 24.423621,-21.05221 23.668013,-20.996697 L 23.925981,-17.442567 L 21.895442,-18.634558 L 20.76102,-16.679268 L 24.131144,-14.692422 L 24.544227,-8.9804058 L 22.162433,-10.489478 L 22.409696,-12.30557 L 20.16208,-12.61365 L 20.053834,-11.824402 L 19.25129,-12.338603 L 18.031667,-10.4245 L 18.672053,-10.00973 L 18.20924,-9.7916321 L 19.175663,-7.7464912 L 20.92577,-8.5836127 L 24.750495,-6.145569 L 25.009569,-2.5067469 L 24.420303,-2.8968053 L 23.166599,-0.99917806 L 25.216385,0.3704332 L 25.507366,4.508587 L 22.627023,3.0741002 L 22.453182,0.12870223 L 20.1858,0.25289634 L 20.274927,1.8949748 L 17.113698,0.34574342 L 16.853423,-5.3344819 L 18.77335,-6.7838104 L 17.403482,-8.6031944 L 16.741156,-8.1028394 L 16.66962,-9.6943357 L 14.39344,-9.5954347 L 14.484224,-7.8263182 L 13.717416,-8.197007 L 12.711071,-6.1587616 L 14.594285,-5.2273425 L 14.787437,-0.79985279 L 8.7117877,-3.8000475 L 8.0003202,-7.7206828 L 5.7703298,-7.3259411 L 6.1810445,-5.0444913 L 3.3094991,-6.4536873 L 2.3031525,-4.4154429 L 5.5155037,-2.8414978 L 3.4477003,-1.6950913 L 4.5487879,0.28891448 L 7.9698397,-1.6129478 L 13.116526,0.9171294 L 10.601847,2.2051793 L 9.1732021,1.0727174 L 7.7655827,2.8538606 L 8.3729921,3.3368492 L 7.5320194,3.7718841 L 8.5490083,5.7993908 L 9.2217873,5.451364 L 9.1860825,5.9600893 L 11.466126,6.1576048 L 11.618838,4.2326872 L 15.664308,2.1698102 L 18.936573,3.7937617 L 18.305567,4.0988644 L 19.289029,6.1522425 L 21.518438,5.0629186 L 24.168461,6.3650267 L 21.248714,8.4040318 L 18.590445,7.1189781 L 17.60114,9.1654604 L 19.100675,9.8903624 L 16.189174,11.912314 L 11.084811,9.3816581 L 10.757642,7.0143589 L 8.5095084,7.3161734 L 8.6134348,8.1448705 L 7.1903053,7.4358664 L 6.1839596,9.474109 L 7.7604523,10.25725 L 7.0640416,10.741132 L 8.3498142,12.604023 L 10.086711,11.402845 L 14.066421,13.389826 L 8.4951559,17.260876 L 4.7106139,15.957344 L 3.9851561,18.110335 L 6.1877195,18.859504 L 3.553242,20.699782 L 4.8390119,22.562671 L 7.7757979,20.531903 L 7.7638207,22.861487 L 10.032858,22.864331 L 10.032666,18.950908 L 14.72284,15.684856 L 14.641079,18.506692 L 12.956923,19.207377 L 13.839248,21.296021 L 14.554902,20.989759 L 14.525267,21.964289 L 16.803655,22.034767 L 16.836046,21.271969 L 17.246115,21.554359 L 18.516859,19.664973 L 16.919464,18.577171 L 17.063803,14.060356 L 20.075892,11.960794 L 20.042947,12.681245 L 22.313642,12.811129 L 22.442142,10.327477 L 25.504799,8.2102826 L 25.76222,11.722069 L 23.555368,13.243084 L 24.841137,15.105974 L 25.965726,14.345177 L 26.223697,17.899307 L 21.783606,20.865467 L 19.562347,19.981025 L 18.717608,22.076352 L 19.509149,22.395879 L 18.149307,23.295424 L 19.426836,25.175368 L 20.887258,24.19821 L 20.965905,25.035727 L 23.223939,24.843897 L 23.061132,22.745408 L 26.410162,20.514178 L 26.914549,27.38542 L 24.319668,29.66563 L 25.82365,31.381535 L 27.137855,30.228494 L 27.303417,32.538707 L 29.578496,32.355116 L 29.340323,29.020949 L 31.822705,30.45241 L 32.965371,28.480065 L 29.237954,26.362577 C 29.205611,26.342723 29.169835,26.329647 29.135712,26.313151 L 28.705588,20.592895 L 31.471064,22.308484 L 31.223801,24.124579 L 33.487906,24.398551 L 33.587907,23.626355 L 34.398694,24.123504 L 35.601278,22.201163 L 34.935608,21.795209 L 35.406665,21.560058 L 34.397918,19.515498 L 32.656607,20.377907 L 28.499875,17.800407 L 28.232557,14.178638 L 29.095017,14.742841 L 30.331679,12.836979 L 28.017494,11.318511 L 27.769977,7.9167078 L 30.836103,9.3147708 L 31.102838,12.241954 L 33.360874,12.050126 L 33.220625,10.383332 L 36.440114,11.855533 L 36.869687,17.533442 L 34.992639,19.024535 L 36.404278,20.800998 L 37.066055,20.258296 L 37.18871,21.874506 L 39.455541,21.707968 L 39.322433,19.939429 L 40.080447,20.284826 L 41.03567,18.22187 L 39.127723,17.341613 L 38.799352,12.932912 L 44.948649,15.737276 L 45.770049,19.647936 L 47.990694,19.185558 L 47.520613,16.896449 L 50.43338,18.220377 L 51.371565,16.149182 L 48.152073,14.676981 L 50.151715,13.497624 L 48.974775,11.540069 L 45.631233,13.542519 L 40.393307,11.15769 L 42.873353,9.8108178 L 44.343773,10.900356 L 45.691474,9.0692088 L 45.058782,8.5950366 L 45.907999,8.1429492 L 44.815158,6.1418897 L 44.134133,6.5069714 L 44.169838,5.9982459 L 41.899143,5.868367 L 41.805794,7.8009448 L 37.821344,9.998514 L 34.47433,8.4857051 L 35.121823,8.1464945 L 34.07955,6.1278023 L 31.859489,7.2847636 L 28.273911,5.6566282 L 32.126973,3.1220317 L 34.743469,4.4500105 L 35.783896,2.428241 L 34.317888,1.6774687 L 37.272818,-0.26037177 L 42.294186,2.3984795 L 42.56199,4.758119 L 44.827718,4.5068904 L 44.74083,3.6864274 L 46.147474,4.4295422 L 47.204938,2.4160114 L 45.627894,1.590522 L 46.3331,1.1319334 L 45.114385,-0.78269851 L 43.351653,0.38495009 L 39.438447,-1.6961181 L 45.087772,-5.4242322 L 48.831096,-4.035432 L 49.632959,-6.1725283 L 47.438085,-6.981094 L 50.115989,-8.7372625 L 48.871994,-10.643076 z "
     id="path1074"
     sodipodi:nodetypes="cccccccccccccccccccccccccccccccccccccccccccccccccccccccccccccccccccccccccccccccccccccccccccccccccccccccccccccccccccccccccccccccccccccccccccccccccccccccccccccccccccccccccccccccccccccccccccccccccccccccccccccccccccccccccccccccccccccccccccccccccccccccccccccccccccc"
     style="fill:url(#linearGradient854);fill-opacity:1;fill-rule:evenodd;stroke:#000000;stroke-width:0.40000001;stroke-linecap:butt;stroke-linejoin:round;stroke-miterlimit:4;stroke-dasharray:none;stroke-opacity:1" />
  <path
     d="M 128.45337,6.2241317 L 127.78143,9.6846123 L 126.16742,8.0257006 L 124.57235,9.5967143 L 127.2778,12.349356 L 126.2113,17.898893 L 124.33293,15.839357 L 125.02849,14.197218 L 122.96227,13.317796 L 122.66167,14.022475 L 122.03554,13.335964 L 120.37356,14.831943 L 120.87222,15.385935 L 120.39043,15.481131 L 120.79643,17.697032 L 122.67096,17.335332 L 125.68046,20.65293 L 124.99887,24.196341 L 124.53048,23.67109 L 122.83823,25.138324 L 124.46321,26.991841 L 123.72873,30.772852 L 121.46422,28.853272 L 121.99836,25.998752 L 119.80245,25.583343 L 119.49611,27.203558 L 116.8332,24.951794 L 117.93633,19.448552 L 120.10333,18.524121 L 119.21707,16.46243 L 118.45751,16.77745 L 118.77175,15.233801 L 116.56948,14.80084 L 116.22957,16.492796 L 115.60169,15.965783 L 114.158,17.680505 L 115.71651,19.021953 L 114.86507,23.302083 L 109.76873,18.993389 L 110.01528,15.071505 L 107.79677,14.922439 L 107.6556,17.217519 L 105.22853,15.17814 C 104.7473,15.749712 104.26607,16.321288 103.78484,16.892863 L 106.47166,19.155816 L 104.23162,19.769146 L 104.83069,21.915069 L 108.55452,20.902946 L 112.87161,24.540914 L 110.16579,25.18406 L 109.05395,23.760144 L 107.28843,25.13479 L 107.77107,25.754162 L 106.85531,25.966935 L 107.36662,28.144667 L 108.1005,27.977959 L 107.93571,28.454697 L 110.04516,29.17945 L 110.65954,27.368155 L 115.01501,26.34553 L 117.76238,28.665967 L 117.08115,28.813589 L 117.55737,31.004042 L 119.93606,30.499322 L 123.05793,33.140749 L 120.0614,34.187129 L 117.86227,32.283567 L 116.3883,33.969548 L 117.60897,35.036296 L 114.33796,36.202017 L 110.14857,32.478049 L 110.44771,30.125715 L 108.21977,29.841063 L 108.11684,30.652816 L 106.944,29.608449 L 105.44612,31.283239 L 106.75761,32.436216 L 105.96778,32.72249 L 106.71363,34.835073 L 108.66825,34.146479 L 111.927,37.056015 L 105.62436,39.280836 L 102.36645,37.085868 L 101.10923,38.93158 L 103.00278,40.211171 L 100.03015,41.268742 L 100.776,43.381324 L 104.09966,42.196521 L 103.48481,44.444848 L 105.64385,45.032481 L 106.6574,41.309183 L 111.98833,39.4167 L 111.1657,42.07792 L 109.38223,42.307328 L 109.6702,44.526297 L 110.42953,44.429796 L 110.15744,45.322721 L 112.28927,45.999644 L 112.50694,45.285304 L 112.8415,45.660485 L 114.5513,44.186889 L 113.29752,42.754846 L 114.62746,38.480003 L 118.02769,37.287304 L 117.80849,37.942625 L 119.93548,38.661017 L 120.70194,36.33788 L 123.44639,35.363012 L 122.87492,38.826788 L 120.13684,39.819209 L 120.90024,41.92543 L 122.4448,41.365602 L 121.86699,44.811824 L 116.5648,46.674031 L 114.66819,45.276408 L 113.33288,47.070993 L 113.98951,47.567731 L 112.50879,48.084561 L 113.25464,50.197142 L 114.89332,49.623059 L 114.75529,50.447537 L 116.95601,50.821484 L 117.30429,48.769062 L 121.44805,47.326726 L 120.34377,53.922553 L 116.81692,55.6973 L 117.83724,57.690543 L 119.88314,56.651141 L 119.36787,59.776832 L 121.56859,60.150778 L 122.1576,56.680642 L 123.79399,58.291727 L 125.35878,56.691971 L 122.59585,53.999877 L 123.5204,48.442219 L 125.45625,50.441207 L 124.79097,52.112087 L 126.87321,52.926131 L 127.1499,52.210257 L 127.81749,52.9016 L 129.43647,51.341776 L 128.92025,50.794146 L 129.40205,50.698948 L 128.9434,48.502131 L 127.07523,48.881383 L 123.98586,45.672164 L 124.57816,42.101546 L 125.0641,42.620433 L 126.71972,41.106903 L 125.05481,39.307576 L 125.66949,35.68913 L 128.32604,37.923342 L 127.8799,40.527534 L 130.08062,40.90148 L 130.31807,39.584246 L 133.0049,41.847196 L 132.04086,47.022015 L 129.88659,47.98155 L 130.78404,50.019326 L 131.5548,49.680393 L 131.25327,51.259145 L 133.46037,51.650639 L 133.77637,49.947493 L 134.42181,50.468146 L 135.84158,48.742233 L 134.24796,47.413509 L 134.97937,43.514462 L 140.17774,47.885467 L 140.00032,51.285854 L 142.24756,51.404648 L 142.33869,49.683721 L 144.08369,51.156155 L 145.52102,49.423876 L 143.00312,47.298272 L 145.72342,46.530732 L 145.118,44.367254 L 141.05585,45.541717 C 141.01956,45.550888 140.98569,45.567148 140.95054,45.579886 L 136.61591,41.948276 L 139.73178,41.176366 L 140.84361,42.600284 L 142.59641,41.190534 L 142.12013,40.588713 L 143.02953,40.358389 L 142.50067,38.187019 L 141.7556,38.377637 L 141.91402,37.88335 L 139.77583,37.188873 L 139.18536,39.011357 L 134.50278,40.172405 L 131.76176,37.86952 L 132.75409,37.648854 L 132.26033,35.46476 L 129.59444,36.053717 L 127.02236,33.888179 L 130.12114,32.685595 L 132.37139,34.511057 L 133.79117,32.785141 L 132.51784,31.737479 L 135.7746,30.477637 L 140.07895,34.080505 L 139.83884,36.431305 L 142.06524,36.65694 L 142.13789,35.816444 L 143.36339,36.841727 L 144.80708,35.127005 L 143.46685,34.004303 L 144.23276,33.70684 L 143.43426,31.613342 L 141.49874,32.354589 L 138.16011,29.553436 L 144.37523,27.141902 L 147.70181,29.252405 L 148.90483,27.366762 L 146.965,26.123809 L 149.90581,24.978479 L 149.08975,22.891344 L 145.83301,24.151182 L 146.37764,21.928302 L 144.18504,21.412407 L 143.29589,25.150193 L 138.00466,27.207005 L 138.76191,24.529767 L 140.54384,24.241341 L 140.1793,22.030268 L 139.40879,22.15068 L 139.67451,21.240206 L 137.50912,20.635018 L 137.2978,21.366912 L 136.96325,20.991732 L 135.30764,22.50526 L 136.6077,23.900668 L 135.41489,28.225099 L 132.04164,29.547023 L 132.24812,28.856598 L 130.1051,28.203585 L 129.39285,30.56665 L 125.77387,31.977638 L 126.63825,27.514097 L 129.37788,26.58069 L 128.66713,24.455388 L 127.1274,24.973747 L 127.79451,21.554733 L 133.13004,19.839302 L 134.98035,21.273566 L 136.36349,19.501357 L 135.72442,18.998257 L 137.21786,18.516532 L 136.52466,16.384867 L 134.8557,16.930208 L 135.01765,16.11692 L 132.82659,15.660043 L 132.43684,17.707636 L 128.27246,19.038299 L 129.53142,12.485699 L 133.09007,10.798713 L 132.1336,8.7624697 L 130.05106,9.7555778 L 130.65563,6.6570957 L 128.45337,6.2241317 z "
     id="path27479"
     sodipodi:nodetypes="cccccccccccccccccccccccccccccccccccccccccccccccccccccccccccccccccccccccccccccccccccccccccccccccccccccccccccccccccccccccccccccccccccccccccccccccccccccccccccccccccccccccccccccccccccccccccccccccccccccccccccccccccccccccccccccccccccccccccccccccccccccccccccccccccccc"
     style="fill:url(#linearGradient27481);fill-opacity:1;fill-rule:evenodd;stroke:#000000;stroke-width:0.29870671;stroke-linecap:butt;stroke-linejoin:round;stroke-miterlimit:4;stroke-dasharray:none;stroke-opacity:1"
     inkscape:transform-center-x="-26.487865"
     inkscape:transform-center-y="-4.2978269" />
  <path
     d="M 211.82412,35.300277 L 210.27322,36.620719 L 210.1424,35.289754 L 208.85576,35.424175 L 209.08517,37.642494 L 206.60301,39.764065 L 206.49723,38.156893 L 207.40329,37.666081 L 206.78727,36.5241 L 206.39749,36.733955 L 206.36223,36.198226 L 205.07244,36.274645 L 205.0979,36.704575 L 204.84603,36.573882 L 204.23056,37.720892 L 205.20742,38.233305 L 205.37049,40.816357 L 203.78531,42.170763 L 203.76316,41.764724 L 202.47005,41.817247 L 202.53567,43.240042 L 200.84096,44.682678 L 200.51037,42.999506 L 201.7806,41.903026 L 200.93874,40.923831 L 200.21633,41.545046 L 199.82556,39.568243 L 202.30759,37.480791 L 203.61939,37.844523 L 203.96241,36.594025 L 203.50585,36.462462 L 204.20422,35.878672 L 203.36582,34.88926 L 202.60239,35.530766 L 202.50883,35.066433 L 201.23875,35.320321 L 201.45896,36.48792 L 199.53152,38.113786 L 198.78339,34.330893 L 200.30854,32.648746 L 199.36044,31.781673 L 198.46933,32.767182 L 198.10851,30.971312 C 197.68516,31.055942 197.26179,31.140569 196.83842,31.225198 L 197.23596,33.215674 L 196.0033,32.685116 L 195.50024,33.870124 L 197.5467,34.755488 L 198.18473,37.954582 L 196.73099,37.269581 L 196.74223,36.225767 L 195.44942,36.210069 L 195.44409,36.663749 L 194.95384,36.429706 L 194.39969,37.597441 L 194.79119,37.786718 L 194.54491,37.942595 L 195.23622,39.030316 L 196.16661,38.433862 L 198.50209,39.542181 L 198.90623,41.58044 L 198.54539,41.401524 L 197.97079,42.56235 L 199.2269,43.191932 L 199.68445,45.510146 L 197.95408,44.902438 L 197.64721,43.250063 L 196.37383,43.480061 L 196.54051,44.401821 L 194.64317,43.74906 L 194.0938,40.557163 L 195.07688,39.602743 L 194.17341,38.671047 L 193.8343,39.000509 L 193.68116,38.106098 L 192.401,38.322416 L 192.57759,39.315853 L 192.11773,39.160401 L 191.69297,40.383266 L 192.82386,40.776937 L 193.24656,43.265565 L 189.59842,41.998188 L 188.9185,39.832545 L 187.6854,40.212805 L 188.07918,41.473242 L 186.35559,40.879211 L 185.93083,42.102072 L 187.85882,42.765198 L 186.77068,43.558842 L 187.53379,44.602517 L 189.33371,43.286542 L 192.42326,44.353706 L 191.09243,45.258895 L 190.20435,44.719562 L 189.53448,45.825406 L 189.91215,46.055561 L 189.46739,46.360694 L 190.18605,47.434887 L 190.54186,47.190778 L 190.55769,47.480805 L 191.86101,47.431735 L 191.81108,46.333083 L 193.95268,44.8821 L 195.91812,45.569266 L 195.58288,45.786169 L 196.2844,46.877341 L 197.46799,46.104573 L 199.05875,46.653697 L 197.55203,48.011848 L 195.95782,47.472942 L 195.54327,48.699259 L 196.44257,49.003259 L 194.93931,50.35119 L 191.87366,49.280718 L 191.52103,47.965873 L 190.27111,48.294899 L 190.38855,48.755918 L 189.53358,48.45552 L 189.10882,49.678381 L 190.05575,50.009869 L 189.69621,50.332427 L 190.55519,51.294633 L 191.45235,50.493362 L 193.84352,51.335833 L 190.96711,53.916261 L 188.73469,53.446292 L 188.4769,54.71421 L 189.77547,54.982372 L 188.416,56.208106 L 189.275,57.170317 L 190.79192,55.815617 L 190.9501,57.133052 L 192.23341,56.974736 L 191.95622,54.763038 L 194.37722,52.586628 L 194.53078,54.18718 L 193.62802,54.701883 L 194.27486,55.820118 L 194.65787,55.59659 L 194.71012,56.149446 L 196.00351,56.028695 L 195.9678,55.595304 L 196.21969,55.726001 L 196.80453,54.568635 L 195.82418,54.066434 L 195.58601,51.503537 L 197.14064,50.104651 L 197.17302,50.514143 L 198.46628,50.427511 L 198.36309,49.014792 L 199.94509,47.602379 L 200.33931,49.56896 L 199.19906,50.584122 L 200.05803,51.546324 L 200.64011,51.037092 L 201.03764,53.027568 L 198.73683,55.016862 L 197.41811,54.673565 L 197.08877,55.9173 L 197.559,56.042095 L 196.85372,56.646325 L 197.70926,57.618757 L 198.46593,56.963574 L 198.5697,57.431363 L 199.83301,57.163802 L 199.59237,55.989294 L 201.32824,54.49225 L 202.09998,58.340058 L 200.79404,59.81163 L 201.76601,60.675387 L 202.42754,59.931108 L 202.68475,61.225085 L 203.95829,60.960977 L 203.58753,59.093425 L 205.09264,59.727467 L 205.59916,58.532243 L 203.34141,57.598229 C 203.32171,57.589287 203.30056,57.58442 203.2801,57.577503 L 202.63185,54.374955 L 204.31717,55.149625 L 204.30592,56.193437 L 205.60565,56.1887 L 205.60754,55.745239 L 206.10122,55.969063 L 206.64517,54.797876 L 206.24,54.615362 L 206.48972,54.449262 L 205.77452,53.364852 L 204.85088,53.974982 L 202.3178,52.811248 L 201.91019,50.783207 L 202.43785,51.041285 L 203.00224,49.877007 L 201.58608,49.181934 L 201.20524,47.276812 L 203.0381,47.850843 L 203.39619,49.486372 L 204.6595,49.218811 L 204.46217,48.286687 L 206.38702,48.891811 L 207.03194,52.070464 L 206.07608,53.045468 L 207.00012,53.949962 L 207.33591,53.596602 L 207.51972,54.50138 L 208.78979,54.247489 L 208.58931,53.257364 L 209.04241,53.399142 L 209.43651,52.165913 L 208.29527,51.802905 L 207.79742,49.334421 L 211.47335,50.485935 L 212.21474,52.638195 L 213.43774,52.220364 L 213.00984,50.95978 L 214.75072,51.502718 L 215.13461,50.266038 L 213.20978,49.660918 L 214.25705,48.853456 L 213.45291,47.830077 L 211.70395,49.197437 L 208.57308,48.218791 L 209.88017,47.282801 L 210.78881,47.794928 L 211.42129,46.665051 L 211.02993,46.441661 L 211.47813,46.126301 L 210.71847,45.072408 L 210.3592,45.326736 L 210.34337,45.036707 L 209.05012,45.123343 L 209.13416,46.222139 L 207.03659,47.744944 L 205.03678,47.125865 L 205.37891,46.888517 L 204.64657,45.821091 L 203.47308,46.631435 L 201.33018,45.963987 L 203.3296,44.259966 L 204.90323,44.826078 L 205.34842,43.610121 L 204.46627,43.289143 L 206.00005,41.985688 L 209.02784,43.13446 L 209.34634,44.449157 L 210.6098,44.147482 L 210.50259,43.689917 L 211.35064,44.010754 L 211.80605,42.798252 L 210.8558,42.44287 L 211.22212,42.133991 L 210.39738,41.137809 L 209.48325,41.921959 L 207.12302,41.021624 L 210.05371,38.516477 L 212.26884,39.037539 L 212.57098,37.773223 L 211.27254,37.470947 L 212.66253,36.289689 L 211.82412,35.300277 z "
     id="path27487"
     sodipodi:nodetypes="cccccccccccccccccccccccccccccccccccccccccccccccccccccccccccccccccccccccccccccccccccccccccccccccccccccccccccccccccccccccccccccccccccccccccccccccccccccccccccccccccccccccccccccccccccccccccccccccccccccccccccccccccccccccccccccccccccccccccccccccccccccccccccccccccccc"
     style="fill:url(#linearGradient27489);fill-opacity:1;fill-rule:evenodd;stroke:#000000;stroke-width:0.17259848;stroke-linecap:butt;stroke-linejoin:round;stroke-miterlimit:4;stroke-dasharray:none;stroke-opacity:1" />
  <path
     d="M 240.27033,-8.2045568 L 239.21182,-6.4367298 L 238.65528,-7.6698438 L 237.46582,-7.1242178 L 238.40429,-5.0726658 L 236.71285,-2.2354128 L 236.09084,-3.7413388 L 236.80015,-4.5052148 L 235.83985,-5.4000408 L 235.5343,-5.0726658 L 235.32696,-5.5746418 L 234.11567,-5.0835778 L 234.27936,-4.6798158 L 233.99563,-4.7234658 L 233.77739,-3.4248768 L 234.87955,-3.2502768 L 235.87259,-0.82769885 L 234.79225,0.98377815 L 234.63947,0.60184015 L 233.41727,1.0710782 L 233.94108,2.4133172 L 232.78435,4.3448322 L 231.92226,2.8389052 L 232.78435,1.3766292 L 231.66036,0.71096515 L 231.1693,1.5403162 L 230.15443,-0.22751085 L 231.85679,-3.0320258 L 233.23176,-3.1084128 L 233.15537,-4.4179148 L 232.67522,-4.3960898 L 233.15537,-5.1817908 L 232.03138,-5.8583668 L 231.50758,-4.9962778 L 231.26751,-5.4109538 L 230.13261,-4.7562028 L 230.72188,-3.7086018 L 229.40147,-1.5260998 L 227.45904,-4.9089788 L 228.37569,-7.0150928 L 227.18623,-7.5388938 L 226.65151,-6.3057798 L 225.72395,-7.9099188 C 225.34565,-7.6916688 224.96735,-7.4734188 224.58905,-7.2551678 L 225.61483,-5.4764288 L 224.26167,-5.5855538 L 224.16346,-4.2869648 L 226.41144,-4.1014518 L 228.05923,-1.2423738 L 226.44418,-1.4278868 L 226.1168,-2.4318378 L 224.87278,-2.0280748 L 225.01464,-1.5915748 L 224.46901,-1.6570498 L 224.31624,-0.35846085 L 224.75274,-0.30389785 L 224.56722,-0.074735849 L 225.58209,0.74370315 L 226.28049,-0.12929785 L 228.87767,0.17625215 L 229.92527,1.9986422 L 229.5215,1.9440792 L 229.34691,3.2426682 L 230.75462,3.4390942 L 231.94408,5.5124712 L 230.08896,5.4906452 L 229.2596,4.0065442 L 228.11379,4.6394702 L 228.57212,5.4688212 L 226.54239,5.4579082 L 224.9819,2.5770052 L 225.61483,1.3438912 L 224.44719,0.74370315 L 224.22894,1.1692912 L 223.79244,0.36176515 L 222.63571,0.98377815 L 223.12677,1.8786042 L 222.63571,1.8786042 L 222.6248,3.1881062 L 223.83609,3.1990182 L 225.04737,5.4469962 L 221.1407,5.4142582 L 219.78755,3.5591312 L 218.72903,4.3230072 L 219.51473,5.4033462 L 217.67052,5.3924332 L 217.65961,6.7019342 L 219.72207,6.7128472 L 218.93637,7.8259232 L 220.0058,8.5788862 L 221.30438,6.7346722 L 224.61088,6.7564972 L 223.62875,8.0550862 L 222.60297,7.8259232 L 222.31925,9.1026872 L 222.75575,9.2009002 L 222.42837,9.6374002 L 223.46506,10.434014 L 223.72697,10.084813 L 223.83609,10.357626 L 225.0692,9.8883882 L 224.66544,8.8516992 L 226.24775,6.7674092 L 228.35387,6.7892342 L 228.10288,7.1056972 L 229.12865,7.9241362 L 230.01257,6.8001472 L 231.71492,6.8110602 L 230.71097,8.6007112 L 229.00862,8.6007112 L 229.00862,9.9102132 L 229.96892,9.9102132 L 228.96497,11.688952 L 225.6803,11.656215 L 224.91642,10.510401 L 223.82518,11.230627 L 224.08708,11.63439 L 223.17043,11.623478 L 223.15951,12.932978 L 224.17437,12.943891 L 223.9343,13.369479 L 225.0692,14.013317 L 225.66939,12.954804 L 228.23383,12.987541 L 226.31323,16.392245 L 224.0216,16.665058 L 224.18529,17.963647 L 225.51661,17.799959 L 224.61088,19.415011 L 225.74578,20.058849 L 226.76064,18.269197 L 227.339,19.480486 L 228.51755,18.913035 L 227.53543,16.883308 L 229.15048,14.013317 L 229.81614,15.497419 L 229.11774,16.28312 L 230.09987,17.145209 L 230.39451,16.80692 L 230.62367,17.319809 L 231.82405,16.785095 L 231.64944,16.381333 L 231.93317,16.424982 L 232.11869,15.126394 L 231.01652,14.962706 L 229.95801,12.583778 L 230.99469,10.739564 L 231.15838,11.121502 L 232.36967,10.619526 L 231.81313,9.2991122 L 232.87165,7.4330722 L 233.88651,9.1899872 L 233.12264,10.532226 L 234.25753,11.176064 L 234.65038,10.499489 L 235.67617,12.278228 L 234.11567,14.929969 L 232.7407,15.028181 L 232.828,16.32677 L 233.31906,16.294033 L 232.83891,17.101558 L 233.97381,17.756309 L 234.4867,16.883308 L 234.73769,17.297984 L 235.86168,16.632321 L 235.25058,15.584719 L 236.42913,13.587729 L 238.41521,17.025171 L 237.64042,18.858473 L 238.8517,19.371361 L 239.24455,18.443797 L 239.91022,19.600524 L 241.04512,18.93486 L 240.08482,17.265246 L 241.7326,17.385283 L 241.83082,16.075782 L 239.36459,15.912095 C 239.34282,15.909907 239.32097,15.912095 239.29912,15.912095 L 237.64042,13.053016 L 239.50645,13.249441 L 239.83383,14.253393 L 241.07785,13.827805 L 240.93599,13.402216 L 241.48162,13.45678 L 241.62348,12.158191 L 241.17607,12.11454 L 241.36158,11.874465 L 240.32489,11.066939 L 239.6374,11.950853 L 236.83289,11.656215 L 235.78529,9.8447382 L 236.37456,9.9211262 L 236.53825,8.6225372 L 234.95594,8.4151992 L 233.97381,6.7128472 L 235.91624,6.6691972 L 236.78924,8.1205612 L 237.91323,7.4548982 L 237.42216,6.6255472 L 239.46281,6.5818972 L 241.11059,9.4191502 L 240.51041,10.663176 L 241.68896,11.230627 L 241.89629,10.783214 L 242.36554,11.59074 L 243.50043,10.935989 L 242.98755,10.052076 L 243.4677,10.041163 L 243.44587,8.7316612 L 242.23459,8.7534872 L 240.95782,6.5491592 L 244.85359,6.4618592 L 246.2613,8.2842492 L 247.29799,7.4876352 L 246.47955,6.4182092 L 248.32376,6.3745592 L 248.29102,5.0650582 L 246.25039,5.1087072 L 246.99244,3.9956312 L 245.89028,3.2754062 L 244.65716,5.1523582 L 241.33975,5.2287452 L 242.28914,3.9083312 L 243.32583,4.1047572 L 243.56591,2.8170802 L 243.1185,2.7297802 L 243.44587,2.2823672 L 242.37645,1.5184912 L 242.11454,1.8786042 L 242.00542,1.6057912 L 240.79413,2.1077672 L 241.23063,3.1335432 L 239.71379,5.2723952 L 237.59677,5.3269582 L 237.84775,4.9886702 L 236.80015,4.2029692 L 235.93807,5.3596952 L 233.66826,5.4142582 L 235.03232,3.1335432 L 236.72377,3.1662802 L 236.7565,1.8567792 L 235.80712,1.8349542 L 236.85472,0.088952151 L 240.12847,0.20899015 L 240.85961,1.3657162 L 241.97268,0.66731515 L 241.7217,0.26355215 L 242.63835,0.29629015 L 242.68199,-1.0132108 L 241.65622,-1.0459488 L 241.90721,-1.4606238 L 240.79413,-2.1481128 L 240.17212,-1.1005118 L 237.61859,-1.1987238 L 239.61558,-4.5488648 L 241.90721,-4.7671148 L 241.78717,-6.0766168 L 240.44493,-5.9456668 L 241.39432,-7.5279808 L 240.27033,-8.2045568 z "
     id="path2230"
     sodipodi:nodetypes="cccccccccccccccccccccccccccccccccccccccccccccccccccccccccccccccccccccccccccccccccccccccccccccccccccccccccccccccccccccccccccccccccccccccccccccccccccccccccccccccccccccccccccccccccccccccccccccccccccccccccccccccccccccccccccccccccccccccccccccccccccccccccccccccccccc"
     style="fill:url(#linearGradient2232);fill-opacity:1;fill-rule:evenodd;stroke:#000000;stroke-width:0.1746002;stroke-linecap:butt;stroke-linejoin:round;stroke-miterlimit:4;stroke-dasharray:none;stroke-opacity:1" />
  <path
     d="M 62.567892,30.358957 L 61.740754,31.107543 L 61.647064,30.381083 L 60.944936,30.476008 L 61.107307,31.68661 L 59.783637,32.889213 L 59.69908,32.011129 L 60.186965,31.727413 L 59.830787,31.112457 L 59.620885,31.233803 L 59.592699,30.941108 L 58.887872,31.00433 L 58.908948,31.239271 L 58.768886,31.171899 L 58.450973,31.81003 L 58.994255,32.074351 L 59.126351,33.485724 L 58.28102,34.253473 L 58.262152,34.031555 L 57.555119,34.081752 L 57.614641,34.859566 L 56.710808,35.677432 L 56.501911,34.76147 L 57.17911,34.140145 L 56.701999,33.61805 L 56.31682,33.970111 L 56.070116,32.894401 L 57.394277,31.710476 L 58.118452,31.887848 L 58.285492,31.19758 L 58.03337,31.133128 L 58.406011,30.801955 L 57.930621,30.274207 L 57.523321,30.638058 L 57.464408,30.385413 L 56.77332,30.545464 L 56.913231,31.181007 L 55.885026,32.103041 L 55.412733,30.044522 L 56.219771,29.098348 L 55.686369,28.639398 L 55.214875,29.193685 L 54.987565,28.216528 C 54.757202,28.269878 54.526839,28.323228 54.296477,28.376579 L 54.547111,29.459662 L 53.8635,29.189652 L 53.607754,29.84672 L 54.742756,30.297471 L 55.145091,32.038218 L 54.337896,31.687326 L 54.326736,31.115709 L 53.618731,31.128553 L 53.623336,31.377007 L 53.351074,31.25701 L 53.067069,31.90547 L 53.284532,32.002597 L 53.152292,32.092015 L 53.548785,32.676019 L 54.048235,32.334064 L 55.345155,32.902079 L 55.600203,34.011212 L 55.399691,33.919249 L 55.104386,34.564266 L 55.802474,34.888098 L 56.091394,36.149603 L 55.134037,35.845611 L 54.938647,34.946117 L 54.245352,35.093142 L 54.351881,35.594991 L 53.302367,35.269102 L 52.94869,33.530826 L 53.471048,32.992033 L 52.960999,32.496962 L 52.780817,32.682948 L 52.682151,32.195847 L 51.984922,32.335499 L 52.098072,32.876421 L 51.843742,32.798945 L 51.631487,33.47544 L 52.257116,33.6722 L 52.52979,35.027577 L 50.511618,34.394255 L 50.103486,33.219959 L 49.434739,33.448578 L 49.67122,34.132069 L 48.71779,33.83545 L 48.505537,34.511944 L 49.572001,34.842996 L 48.989459,35.295516 L 49.424539,35.854217 L 50.388065,35.103946 L 52.09712,35.636926 L 51.383574,36.154536 L 50.888459,35.874007 L 50.540077,36.490504 L 50.750653,36.610238 L 50.512229,36.784658 L 50.923465,37.360801 L 51.114208,37.221266 L 51.12768,37.379777 L 51.840364,37.331301 L 51.794811,36.730678 L 52.943164,35.900831 L 54.030519,36.244424 L 53.850597,36.368726 L 54.252735,36.95445 L 54.88787,36.511774 L 55.767826,36.78601 L 54.965503,37.554508 L 54.083824,37.285923 L 53.87722,37.964139 L 54.374578,38.115649 L 53.573975,38.878494 L 51.877949,38.343306 L 51.6631,37.629348 L 50.984294,37.830199 L 51.056234,38.080636 L 50.583206,37.930362 L 50.370946,38.606853 L 50.89484,38.772623 L 50.703357,38.955166 L 51.189561,39.467679 L 51.667416,39.014149 L 52.990423,39.435703 L 51.458537,40.896044 L 50.228617,40.675782 L 50.108513,41.374171 L 50.823854,41.49944 L 50.099947,42.193006 L 50.586153,42.705519 L 51.394127,41.938742 L 51.502562,42.65734 L 52.202483,42.549391 L 52.014061,41.343205 L 53.303333,40.111595 L 53.413939,40.985262 L 52.928263,41.282003 L 53.300911,41.883448 L 53.506884,41.754728 L 53.54465,42.056518 L 54.250712,41.968968 L 54.223981,41.732303 L 54.364044,41.799674 L 54.66501,41.156381 L 54.120002,40.897712 L 53.947111,39.498616 L 54.774994,38.707023 L 54.799512,38.930662 L 55.50606,38.861789 L 55.426144,38.090114 L 56.268781,37.290663 L 56.517202,38.36072 L 55.90981,38.935372 L 56.396011,39.447884 L 56.70622,39.159454 L 56.956859,40.242538 L 55.730274,41.369718 L 55.002657,41.203652 L 54.842988,41.889989 L 55.102482,41.950509 L 54.726398,42.292987 L 55.210882,42.811151 L 55.614253,42.439928 L 55.678821,42.694296 L 56.36598,42.526872 L 56.214764,41.887884 L 57.140227,41.039549 L 57.626519,43.133215 L 56.935996,43.960475 L 57.48242,44.417216 L 57.83223,43.998795 L 57.994492,44.70291 L 58.687301,44.537207 L 58.453365,43.520973 L 59.287842,43.843118 L 59.545315,43.1804 L 58.293834,42.706518 C 58.282905,42.70195 58.271243,42.699637 58.259927,42.696189 L 57.851941,40.953721 L 58.787402,41.349862 L 58.798562,41.921479 L 59.510009,41.897332 L 59.503684,41.65453 L 59.777667,41.768875 L 60.056021,41.118694 L 59.831186,41.025497 L 59.965142,40.930426 L 59.555627,40.348631 L 59.060105,40.697959 L 57.654084,40.102885 L 57.397314,38.999404 L 57.690456,39.131938 L 57.980117,38.4852 L 57.193321,38.12817 L 56.953243,37.091536 L 57.96615,37.375392 L 58.189307,38.264817 L 58.876466,38.097393 L 58.752981,37.590379 L 59.816758,37.889732 L 60.222532,39.619173 L 59.715414,40.168784 L 60.236279,40.648622 L 60.414248,40.449609 L 60.529876,40.941877 L 61.220958,40.781824 L 61.094786,40.243111 L 61.345187,40.313213 L 61.540484,39.631554 L 60.909696,39.451751 L 60.596217,38.108648 L 62.627683,38.678081 L 63.069237,39.84403 L 63.731844,39.59501 L 63.476685,38.912007 L 64.438722,39.180367 L 64.628369,38.496986 L 63.564602,38.197636 L 64.124537,37.738229 L 63.66734,37.191319 L 62.732552,37.968875 L 61.002351,37.48504 L 61.702384,36.950961 L 62.208314,37.216255 L 62.535817,36.587221 L 62.317869,36.471417 L 62.558009,36.291344 L 62.124656,35.726993 L 61.932192,35.872179 L 61.918719,35.713669 L 61.212171,35.782542 L 61.276403,36.382679 L 60.15335,37.251114 L 59.048297,36.945364 L 59.231657,36.809757 L 58.813048,36.237544 L 58.18406,36.700621 L 56.999875,36.370766 L 58.066182,35.404752 L 58.93705,35.688573 L 59.160606,35.015522 L 58.672348,34.854432 L 59.490392,34.115428 L 61.166989,34.694108 L 61.36316,35.408551 L 62.049829,35.222449 L 61.983544,34.973734 L 62.453129,35.135313 L 62.682335,34.463983 L 62.156235,34.285189 L 62.351651,34.110021 L 61.883634,33.578343 L 61.396201,34.022779 L 60.089175,33.569035 L 61.652016,32.149005 L 62.873327,32.397527 L 63.01776,31.700373 L 62.301928,31.556424 L 63.043282,30.886703 L 62.567892,30.358957 z "
     id="path2234"
     sodipodi:nodetypes="cccccccccccccccccccccccccccccccccccccccccccccccccccccccccccccccccccccccccccccccccccccccccccccccccccccccccccccccccccccccccccccccccccccccccccccccccccccccccccccccccccccccccccccccccccccccccccccccccccccccccccccccccccccccccccccccccccccccccccccccccccccccccccccccccccc"
     style="fill:url(#linearGradient2236);fill-opacity:1;fill-rule:evenodd;stroke:#000000;stroke-width:0.09453146;stroke-linecap:butt;stroke-linejoin:round;stroke-miterlimit:4;stroke-dasharray:none;stroke-opacity:1" />
  <path
     d="M 174.99946,-9.012451 L 174.17232,-8.263865 L 174.07863,-8.990325 L 173.3765,-8.8954 L 173.53887,-7.684798 L 172.2152,-6.482195 L 172.13065,-7.360279 L 172.61853,-7.643995 L 172.26235,-8.258951 L 172.05245,-8.137605 L 172.02427,-8.4303 L 171.31944,-8.367078 L 171.34052,-8.132137 L 171.20045,-8.199509 L 170.88254,-7.561378 L 171.42582,-7.297057 L 171.55792,-5.885684 L 170.71259,-5.117935 L 170.69372,-5.339853 L 169.98669,-5.289656 L 170.04621,-4.511842 L 169.14238,-3.693976 L 168.93348,-4.609938 L 169.61068,-5.231263 L 169.13357,-5.753358 L 168.74839,-5.401297 L 168.50168,-6.477007 L 169.82584,-7.660932 L 170.55002,-7.48356 L 170.71706,-8.173828 L 170.46494,-8.23828 L 170.83758,-8.569453 L 170.36219,-9.097201 L 169.95489,-8.73335 L 169.89598,-8.985995 L 169.20489,-8.825944 L 169.3448,-8.190401 L 168.31659,-7.268367 L 167.8443,-9.326886 L 168.65134,-10.27306 L 168.11794,-10.73201 L 167.64644,-10.177723 L 167.41913,-11.15488 C 167.18877,-11.10153 166.95841,-11.04818 166.72804,-10.994829 L 166.97868,-9.911746 L 166.29507,-10.181756 L 166.03932,-9.524688 L 167.17432,-9.073937 L 167.57666,-7.33319 L 166.76946,-7.684082 L 166.7583,-8.255699 L 166.0503,-8.242855 L 166.0549,-7.994401 L 165.78264,-8.114398 L 165.49864,-7.465938 L 165.7161,-7.368811 L 165.58386,-7.279393 L 165.98035,-6.695389 L 166.4798,-7.037344 L 167.77672,-6.469329 L 168.03177,-5.360196 L 167.83126,-5.452159 L 167.53595,-4.807142 L 168.23404,-4.48331 L 168.52296,-3.221805 L 167.5656,-3.525797 L 167.37021,-4.425291 L 166.67692,-4.278266 L 166.78345,-3.776417 L 165.73393,-4.102306 L 165.38026,-5.840582 L 165.90262,-6.379375 L 165.39257,-6.874446 L 165.21238,-6.68846 L 165.11372,-7.175561 L 164.41649,-7.035909 L 164.52964,-6.494987 L 164.27531,-6.572463 L 164.06305,-5.895968 L 164.68868,-5.699208 L 164.96136,-4.343831 L 162.94319,-4.977153 L 162.53505,-6.151449 L 161.86631,-5.92283 L 162.10279,-5.239339 L 161.14936,-5.535958 L 160.9371,-4.859464 L 162.00357,-4.528412 L 161.42103,-4.075892 L 161.85611,-3.517191 L 162.81963,-4.267462 L 164.52869,-3.734482 L 163.81514,-3.216872 L 163.32003,-3.497401 L 162.97164,-2.880904 L 163.18222,-2.76117 L 162.9438,-2.58675 L 163.35503,-2.010607 L 163.54578,-2.150142 L 163.55925,-1.991631 L 164.27193,-2.040107 L 164.22638,-2.64073 L 165.37473,-3.470577 L 166.46209,-3.126984 L 166.28216,-3.002682 L 166.6843,-2.416958 L 167.31944,-2.859634 L 168.19939,-2.585398 L 167.39707,-1.8169 L 166.51539,-2.085485 L 166.30879,-1.407269 L 166.80615,-1.255759 L 166.00554,-0.49291404 L 164.30952,-1.028102 L 164.09467,-1.74206 L 163.41586,-1.541209 L 163.4878,-1.290772 L 163.01477,-1.441046 L 162.80251,-0.76455504 L 163.32641,-0.59878504 L 163.13492,-0.41624204 L 163.62113,0.09627096 L 164.09898,-0.35725904 L 165.42199,0.06429496 L 163.8901,1.524636 L 162.66018,1.304374 L 162.54008,2.002763 L 163.25542,2.128032 L 162.53151,2.821598 L 163.01772,3.334111 L 163.82569,2.567334 L 163.93413,3.285932 L 164.63405,3.177983 L 164.44563,1.971797 L 165.7349,0.74018696 L 165.84551,1.613854 L 165.35983,1.910595 L 165.73248,2.51204 L 165.93845,2.38332 L 165.97622,2.68511 L 166.68228,2.59756 L 166.65555,2.360895 L 166.79561,2.428266 L 167.09658,1.784973 L 166.55157,1.526304 L 166.37868,0.12720796 L 167.20656,-0.66438504 L 167.23108,-0.44074604 L 167.93763,-0.50961904 L 167.85771,-1.281294 L 168.70035,-2.080745 L 168.94877,-1.010688 L 168.34138,-0.43603604 L 168.82758,0.07647596 L 169.13779,-0.21195404 L 169.38843,0.87112996 L 168.16184,1.99831 L 167.43422,1.832244 L 167.27456,2.518581 L 167.53405,2.579101 L 167.15797,2.921579 L 167.64245,3.4397433 L 168.04582,3.06852 L 168.11039,3.322888 L 168.79755,3.155464 L 168.64633,2.516476 L 169.57179,1.668141 L 170.05809,3.7618073 L 169.36756,4.5890673 L 169.91399,5.0458083 L 170.2638,4.6273873 L 170.42606,5.3315023 L 171.11887,5.1657993 L 170.88493,4.1495653 L 171.71941,4.4717103 L 171.97688,3.8089923 L 170.7254,3.33511 C 170.71447,3.330542 170.70281,3.328229 170.69149,3.324781 L 170.28351,1.582313 L 171.21897,1.978454 L 171.23013,2.550071 L 171.94158,2.525924 L 171.93525,2.283122 L 172.20923,2.397467 L 172.48759,1.747286 L 172.26275,1.654089 L 172.39671,1.559018 L 171.98719,0.97722296 L 171.49167,1.326551 L 170.08565,0.73147696 L 169.82888,-0.37200404 L 170.12202,-0.23947004 L 170.41168,-0.88620804 L 169.62489,-1.243238 L 169.38481,-2.279872 L 170.39772,-1.996016 L 170.62087,-1.106591 L 171.30803,-1.274015 L 171.18455,-1.781029 L 172.24833,-1.481676 L 172.6541,0.24776496 L 172.14698,0.79737596 L 172.66785,1.277214 L 172.84582,1.078201 L 172.96144,1.570469 L 173.65253,1.410416 L 173.52635,0.87170296 L 173.77675,0.94180496 L 173.97205,0.26014596 L 173.34126,0.08034296 L 173.02778,-1.26276 L 175.05925,-0.69332704 L 175.5008,0.47262196 L 176.16341,0.22360196 L 175.90825,-0.45940104 L 176.87029,-0.19104104 L 177.05994,-0.87442204 L 175.99617,-1.173772 L 176.5561,-1.633179 L 176.09891,-2.180089 L 175.16412,-1.402533 L 173.43392,-1.886368 L 174.13395,-2.420447 L 174.63988,-2.155153 L 174.96738,-2.784187 L 174.74944,-2.899991 L 174.98958,-3.080064 L 174.55622,-3.644415 L 174.36376,-3.499229 L 174.35029,-3.657739 L 173.64374,-3.588866 L 173.70797,-2.988729 L 172.58492,-2.120294 L 171.47986,-2.426044 L 171.66322,-2.561651 L 171.24462,-3.133864 L 170.61563,-2.670787 L 169.43144,-3.000642 L 170.49775,-3.966656 L 171.36862,-3.682835 L 171.59217,-4.355886 L 171.10392,-4.516976 L 171.92196,-5.25598 L 173.59856,-4.6773 L 173.79473,-3.962857 L 174.4814,-4.148959 L 174.41511,-4.397674 L 174.8847,-4.236095 L 175.1139,-4.907425 L 174.5878,-5.086219 L 174.78322,-5.261387 L 174.3152,-5.793065 L 173.82777,-5.348629 L 172.52074,-5.802373 L 174.08358,-7.222403 L 175.30489,-6.973881 L 175.44933,-7.671035 L 174.7335,-7.814984 L 175.47485,-8.484705 L 174.99946,-9.012451 z "
     id="path2238"
     sodipodi:nodetypes="cccccccccccccccccccccccccccccccccccccccccccccccccccccccccccccccccccccccccccccccccccccccccccccccccccccccccccccccccccccccccccccccccccccccccccccccccccccccccccccccccccccccccccccccccccccccccccccccccccccccccccccccccccccccccccccccccccccccccccccccccccccccccccccccccccc"
     style="fill:url(#linearGradient2240);fill-opacity:1;fill-rule:evenodd;stroke:#000000;stroke-width:0.09453146;stroke-linecap:butt;stroke-linejoin:round;stroke-miterlimit:4;stroke-dasharray:none;stroke-opacity:1" />
</svg>
