<?xml version="1.0" encoding="UTF-8" standalone="no"?>
<!-- Created with Inkscape (http://www.inkscape.org/) -->
<svg
   xmlns:dc="http://purl.org/dc/elements/1.1/"
   xmlns:cc="http://web.resource.org/cc/"
   xmlns:rdf="http://www.w3.org/1999/02/22-rdf-syntax-ns#"
   xmlns:svg="http://www.w3.org/2000/svg"
   xmlns="http://www.w3.org/2000/svg"
   xmlns:sodipodi="http://sodipodi.sourceforge.net/DTD/sodipodi-0.dtd"
   xmlns:inkscape="http://www.inkscape.org/namespaces/inkscape"
   height="48"
   id="svg3079"
   inkscape:version="0.45.1"
   sodipodi:docbase="/opt/cairo-dock/cairo-dock/data/themes/_default_"
   sodipodi:docname="separateur.svg"
   sodipodi:version="0.32"
   width="16"
   inkscape:output_extension="org.inkscape.output.svg.inkscape"
   version="1.0">
  <metadata
     id="metadata6135">
    <rdf:RDF>
      <cc:Work
         rdf:about="">
        <dc:title>Christmas tree</dc:title>
        <dc:description>A Christmas tree</dc:description>
        <dc:subject>
          <rdf:Bag>
            <rdf:li>xmass tree</rdf:li>
            <rdf:li>santa</rdf:li>
            <rdf:li>tree</rdf:li>
            <rdf:li>pere noel</rdf:li>
            <rdf:li>santa claus</rdf:li>
            <rdf:li>green</rdf:li>
            <rdf:li>sapin de noel</rdf:li>
            <rdf:li>gifts</rdf:li>
            <rdf:li>christmas tree</rdf:li>
          </rdf:Bag>
        </dc:subject>
        <dc:publisher>
          <cc:Agent
             rdf:about="http://www.openclipart.org/">
            <dc:title>Mo</dc:title>
          </cc:Agent>
        </dc:publisher>
        <dc:creator>
          <cc:Agent>
            <dc:title>Mo</dc:title>
          </cc:Agent>
        </dc:creator>
        <dc:rights>
          <cc:Agent>
            <dc:title>Mo</dc:title>
          </cc:Agent>
        </dc:rights>
        <dc:date>24 08 2005</dc:date>
        <dc:format>image/svg+xml</dc:format>
        <dc:type
           rdf:resource="http://purl.org/dc/dcmitype/StillImage" />
        <cc:license
           rdf:resource="http://web.resource.org/cc/PublicDomain" />
        <dc:language>All</dc:language>
      </cc:Work>
      <cc:License
         rdf:about="http://web.resource.org/cc/PublicDomain">
        <cc:permits
           rdf:resource="http://web.resource.org/cc/Reproduction" />
        <cc:permits
           rdf:resource="http://web.resource.org/cc/Distribution" />
        <cc:permits
           rdf:resource="http://web.resource.org/cc/DerivativeWorks" />
      </cc:License>
    </rdf:RDF>
  </metadata>
  <defs
     id="defs3081" />
  <sodipodi:namedview
     bordercolor="#666666"
     borderopacity="1.0"
     id="base"
     inkscape:current-layer="layer1"
     inkscape:cx="17.349606"
     inkscape:cy="22.30801"
     inkscape:document-units="px"
     inkscape:pageopacity="0.0"
     inkscape:pageshadow="2"
     inkscape:zoom="5.6"
     pagecolor="#ffffff"
     height="48px"
     width="16px"
     inkscape:window-width="872"
     inkscape:window-height="633"
     inkscape:window-x="204"
     inkscape:window-y="211" />
  <g
     id="layer1"
     inkscape:groupmode="layer"
     inkscape:label="Layer 1"
     transform="translate(-474.05172,-200.74673)"
     style="display:inline">
    <g
       id="g2506"
       transform="matrix(4.3326186e-2,0,0,0.1267974,458.78049,122.18772)">
      <path
         d="M 485.80172,996.1345 C 485.24742,995.3972 483.94252,992.7689 482.90182,990.2939 C 480.70532,985.07 475.07412,975.8198 473.49712,974.8452 C 470.73442,973.1377 473.22912,972.38 483.16412,971.9089 C 489.07662,971.6286 501.87952,971.0227 511.61492,970.5625 C 521.35032,970.1023 529.50422,969.516 529.73462,969.2598 C 529.96502,969.0035 530.38432,962.8426 530.66642,955.5689 C 531.07392,945.06 530.89552,942.1083 529.79762,941.1972 C 528.06332,939.7578 524.10292,941.2714 518.12342,945.6588 C 508.91262,952.4171 507.02212,953.3815 501.08282,954.3513 C 497.69002,954.9053 494.11352,955.371 493.13502,955.3862 C 491.50682,955.4114 485.23642,952.6128 478.06482,948.66 C 475.65242,947.3303 474.54382,947.2776 470.83382,948.3164 C 468.42392,948.9911 465.94142,950.1586 465.31722,950.9107 C 463.59092,952.9908 450.53792,956.5686 447.14852,955.8908 C 445.53502,955.5681 442.82262,954.1325 441.12092,952.7006 C 435.84252,948.2591 434.24472,948.0846 423.77112,950.8059 C 412.49772,953.7349 401.07022,954.1422 397.63672,951.7372 C 394.89072,949.8138 394.86152,948.812 397.45532,945.5144 C 399.39682,943.0462 399.40902,942.8677 397.70532,941.8588 C 396.72022,941.2755 392.08912,940.4711 387.41412,940.0713 C 369.94442,938.5772 368.43652,938.2576 366.75592,935.6928 C 365.89022,934.3714 365.41782,932.3878 365.70632,931.2846 C 366.04812,929.9776 365.52022,928.7812 364.19102,927.8502 C 361.36512,925.8708 362.57812,923.2939 366.33572,923.2939 C 371.02152,923.2939 376.34842,920.5148 376.39882,918.0439 C 376.40732,917.6314 372.55962,917.2939 367.84842,917.2939 C 358.49082,917.2939 355.41422,916.2877 355.41422,913.2273 C 355.41422,912.1294 354.73922,910.9721 353.91422,910.6555 C 351.81532,909.8501 352.04492,907.5619 354.34842,906.3291 C 355.41232,905.7597 359.21612,905.2939 362.80142,905.2939 C 371.94032,905.2939 378.13682,902.2694 371.66412,900.968 C 364.96882,899.6219 362.72732,898.8427 359.91422,896.8833 C 356.90762,894.7893 355.45812,893.2851 355.42952,892.2291 C 355.39732,891.0433 362.62982,888.29391 365.78112,888.29391 C 375.85762,888.29391 403.14232,875.54205 404.99122,869.96855 C 405.94172,867.10338 406.46802,867.31016 390.97412,864.46154 C 387.58252,863.83799 385.30892,862.71031 383.72082,860.86401 C 380.10282,856.65781 381.85212,854.73739 390.64972,853.25747 C 394.64512,852.58535 398.98732,851.19359 400.29902,850.16467 C 401.61072,849.13575 403.09482,848.29391 403.59702,848.29391 C 406.62622,848.29391 425.41412,833.5556 425.41412,831.17933 C 425.41412,830.07668 419.42422,828.29391 415.71952,828.29391 C 413.44692,828.29391 411.51112,827.48179 409.86872,825.83936 C 405.67672,821.64738 407.02182,819.29391 413.60982,819.29391 C 415.27742,819.29391 418.27812,818.46699 420.27802,817.4563 C 422.27792,816.44562 426.06782,814.53369 428.70002,813.20758 C 431.33232,811.88147 435.33822,808.90914 437.60212,806.6024 L 441.71832,802.40834 L 439.02942,801.73348 C 437.55052,801.36231 435.05972,801.3148 433.49412,801.62791 C 430.25492,802.27577 423.82432,800.76662 422.80652,799.11967 C 422.00962,797.83033 426.17272,794.34846 428.54982,794.31615 C 430.44112,794.29044 433.68062,792.68817 437.92822,789.6776 C 439.57052,788.51362 443.45682,786.32508 446.56442,784.81416 C 451.92972,782.20558 462.41412,773.35965 462.41412,771.44138 C 462.41412,770.35113 457.50582,769.29391 452.44412,769.29391 C 444.91452,769.29391 442.78162,762.40008 449.92282,761.14459 C 457.41722,759.82699 478.41412,748.80594 478.41412,746.18983 C 478.41412,745.76542 480.43912,743.96394 482.91412,742.18653 C 488.07362,738.48126 488.40272,737.11461 484.91412,733.88149 C 483.53912,732.60718 482.41412,731.10058 482.41412,730.53348 C 482.41412,729.96639 484.77662,728.00329 487.66412,726.17104 C 492.89322,722.85298 495.32192,720.57403 495.38232,718.92869 C 495.41962,717.91562 484.66942,719.09326 482.29002,720.3629 C 481.17032,720.9604 480.16042,720.67104 479.03842,719.4312 C 477.50722,717.73928 477.72172,717.43712 482.66252,714.32597 C 489.21352,710.20095 493.64712,707.13297 499.41412,702.73417 C 501.88912,700.84638 504.87672,698.88019 506.05312,698.36486 C 509.40542,696.89633 515.47192,691.19643 514.81462,690.13284 C 514.45902,689.55748 511.11762,689.44403 506.46932,689.8495 C 499.86422,690.42567 498.62582,690.28779 498.10002,688.91771 C 497.66652,687.78803 498.43952,686.81922 500.69862,685.66096 C 507.40592,682.22188 515.11672,675.97807 520.65102,669.50448 C 526.79642,662.31602 527.31352,661.29391 524.80472,661.29391 C 523.05332,661.29391 523.17482,658.89261 525.35482,650.41893 C 526.80202,644.79376 525.16872,642.04349 519.20452,640.06237 C 516.13282,639.04205 514.82342,638.0204 514.59462,636.46558 C 514.29562,634.43333 514.68082,634.29296 520.59462,634.27917 C 529.24802,634.25898 531.17172,633.01409 534.15832,625.50151 C 535.53412,622.0407 537.16702,619.37316 537.78702,619.57367 C 538.40692,619.77417 539.74832,621.70575 540.76792,623.86606 C 543.89912,630.50054 545.06042,631.29391 551.64062,631.29391 C 555.79602,631.29391 558.04622,631.78311 559.20062,632.93752 C 560.72542,634.46233 560.49502,634.89732 556.01222,638.95584 L 551.18022,643.33056 L 552.39402,647.56223 C 554.34042,654.34751 554.75582,658.29391 553.52362,658.29391 C 552.91342,658.29391 552.41412,659.34668 552.41412,660.6334 C 552.41412,663.51283 555.82632,665.24148 562.86752,665.92925 C 565.64312,666.20038 568.97722,666.63959 570.27642,666.90528 C 572.55292,667.37083 572.57452,667.45922 570.87142,669.34113 C 569.89942,670.41516 568.38642,671.29559 567.50922,671.29765 C 562.47952,671.30944 556.38082,678.57647 559.79642,680.48793 C 560.68182,680.98347 563.92762,683.5952 567.00912,686.29176 C 570.54992,689.39028 575.14962,692.16434 579.50772,693.82964 C 583.30042,695.27891 587.33962,697.2227 588.48372,698.14918 L 590.56402,699.83368 L 588.41652,702.56379 C 587.23542,704.06536 585.28912,705.3008 584.09162,705.30922 C 579.03912,705.34475 578.92152,707.02554 583.75702,710.09208 C 586.33262,711.72552 589.89672,713.60132 591.67712,714.26052 C 596.96672,716.21907 597.89892,716.89658 598.21632,719.01326 C 598.53312,721.12579 593.38212,726.29391 590.95992,726.29391 C 590.24442,726.29391 589.10092,726.96637 588.41882,727.78826 C 586.43952,730.1732 590.84182,733.01521 597.77522,733.82853 C 605.27492,734.70828 610.40412,739.19228 605.66412,740.72502 C 604.70162,741.03625 603.33532,742.52908 602.62792,744.0424 C 601.45442,746.55273 601.56522,746.98799 603.89202,749.00809 C 607.37842,752.03489 618.42402,755.29065 625.26952,755.30922 C 632.41342,755.3286 633.90242,756.21238 632.98042,759.88593 C 631.97082,763.90842 627.92672,767.29179 624.11262,767.30492 C 618.29372,767.32494 613.41412,768.51372 613.41412,769.91133 C 613.41412,771.55174 618.52522,773.80272 624.51602,774.80077 C 626.93502,775.20377 630.54982,776.18269 632.54892,776.97615 C 636.74942,778.64338 644.89252,779.16506 648.16412,777.97652 C 651.55922,776.74317 650.94502,778.65166 646.41412,783.41457 C 644.21412,785.72725 642.41412,787.77754 642.41412,787.97077 C 642.41412,788.164 640.95682,789.62423 639.17562,791.21571 C 635.97302,794.0773 635.95812,794.13248 637.83062,796.20162 C 639.37982,797.91345 640.89912,798.29391 646.18582,798.29391 C 653.01992,798.29391 653.07192,798.34849 650.99722,803.34422 C 649.77202,806.29472 656.39752,808.29391 667.40102,808.29391 C 679.42902,808.29391 682.42772,809.37708 682.38022,813.70443 C 682.36162,815.40364 681.47682,818.59391 680.41412,820.79391 C 679.35152,822.99391 678.45182,825.24391 678.41482,825.79391 C 678.32012,827.20331 674.78292,831.29391 673.65882,831.29391 C 673.14472,831.29391 671.97632,832.12027 671.06222,833.13026 C 669.49742,834.85937 669.54952,835.03456 671.95432,836.13026 C 676.99062,838.42496 691.28032,836.48345 695.16412,832.97679 L 697.41412,830.94528 L 697.41412,834.65943 C 697.41412,839.42485 694.47442,845.15579 690.02692,849.0608 C 686.97422,851.74109 686.71832,852.30147 688.04472,853.40223 C 689.22292,854.38009 690.51012,854.41457 693.73212,853.55457 C 696.02252,852.94321 698.02862,852.57507 698.19002,852.73648 C 698.85832,853.40472 696.49372,861.52352 694.94042,863.89416 C 694.01792,865.30203 691.93242,867.01348 690.30592,867.69738 L 687.34862,868.94084 L 689.45392,871.61737 C 691.20282,873.84068 692.35142,874.29262 696.23672,874.28627 C 698.80932,874.28207 703.83912,873.38551 707.41412,872.29391 C 710.98912,871.20231 714.25162,870.30575 714.66412,870.30155 C 716.25632,870.28533 715.29932,875.58701 712.83092,880.45819 C 710.49862,885.06079 710.39812,885.70642 711.79632,887.10467 C 713.11642,888.42472 714.09962,888.47919 718.45592,887.47364 C 721.26682,886.82479 724.88242,886.29391 726.49042,886.29391 C 729.31473,886.29391 729.41343,886.45542 729.39253,891.0439 L 729.37093,895.7939 L 723.24962,898.601 C 716.60252,901.6492 716.54062,902.7137 722.93142,904.0798 C 727.10052,904.9711 727.25272,905.3168 725.98452,911.016 C 725.39752,913.654 725.70392,914.6745 727.67452,916.6452 L 730.08163,919.0522 L 728.13252,922.923 C 724.23262,930.6681 718.72782,934.7066 713.49652,933.6604 C 709.44632,932.8503 705.92332,935.2211 704.42332,939.7661 C 703.78022,941.7148 702.27752,943.8623 701.08412,944.5383 C 699.89062,945.2144 694.34332,946.0035 688.75662,946.292 C 680.82252,946.7017 678.15582,947.2177 676.57412,948.6492 C 675.46032,949.6571 674.75952,951.0304 675.01692,951.7009 C 675.65622,953.367 671.51362,957.0609 670.60312,955.6368 C 670.22422,955.0441 666.31412,954.3458 661.91412,954.0849 C 655.92072,953.7296 651.90762,952.7843 645.91412,950.3162 C 639.22202,947.5603 636.55612,947.0031 629.60712,946.9078 C 622.02812,946.8039 621.14742,946.9964 619.55692,949.1048 C 617.97942,951.196 617.31052,951.349 612.52382,950.714 C 608.97012,950.2426 606.52512,949.2665 605.07412,947.74 C 603.88612,946.4902 600.12272,944.3067 596.71092,942.8877 C 589.99262,940.0937 587.47452,940.3317 584.09882,944.0801 C 580.74782,947.801 573.48562,947.8009 561.91412,944.08 C 553.06162,941.2334 553.37252,941.2358 550.81502,943.9953 C 548.54372,946.4461 548.43022,947.1101 548.98422,954.701 C 549.30902,959.1521 550.01832,963.9712 550.56042,965.4102 C 552.50562,970.5738 554.03402,970.7691 582.64272,969.5116 C 597.03732,968.8789 608.97632,968.5227 609.17362,968.7201 C 609.86932,969.4157 606.09302,980.8704 603.10402,987.1308 C 599.29572,995.1071 597.38222,996.4387 591.41412,995.2656 C 585.58182,994.1191 564.07342,994.0887 558.91412,995.2196 C 556.71412,995.7018 539.59062,996.4066 520.86182,996.7858 C 492.95092,997.3508 486.62772,997.2334 485.80172,996.1345 z "
         id="path1406"
         style="fill:#005e12;fill-opacity:1" />
      <path
         d="M 635.54909,907.27842 C 636.41739,906.52652 637.62219,905.91142 638.22649,905.91142 C 640.62179,905.91142 643.47029,900.65062 643.47029,896.22692 C 643.47029,884.93921 633.94609,879.29171 621.29979,883.08061 C 616.01779,884.66311 610.46909,890.85662 610.47409,895.16432 C 610.48119,901.33202 615.81329,907.31132 622.74539,908.92492 C 626.88529,909.88862 633.51999,909.03542 635.54909,907.27842 z "
         id="path2397"
         style="fill:#ff0505;fill-opacity:1" />
      <path
         d="M 623.47059,900.68132 C 622.32789,899.45472 621.12469,897.38222 620.79679,896.07582 C 620.05909,893.13692 622.88339,886.91141 624.95419,886.91141 C 626.90829,886.91141 626.91939,888.52512 624.97029,889.27302 C 622.79779,890.10672 623.10829,891.47472 626.27459,895.01832 C 628.98679,898.05382 629.23299,898.12402 633.77459,897.15532 C 636.35729,896.60452 638.47029,896.48402 638.47029,896.88762 C 638.47029,897.29112 637.03359,898.81162 635.27759,900.26642 C 631.23469,903.61562 626.36379,903.78682 623.47059,900.68132 z "
         id="path2462"
         style="fill:#ffffff;fill-opacity:1" />
      <path
         d="M 559.43572,898.88 C 558.91162,896.0862 559.16392,895.2688 560.82472,894.38 C 564.31272,892.5132 566.65452,893.1711 569.41772,896.7939 C 573.68082,902.3831 574.97122,901.5104 574.29902,893.4925 C 573.64852,885.73336 574.73852,882.77485 580.15022,877.61187 C 582.54142,875.33058 585.32592,874.00639 589.98692,872.93394 C 596.61722,871.40836 597.98372,871.53584 611.67872,874.95739 C 614.06142,875.55268 621.92602,870.71297 621.96422,868.62794 C 621.97592,867.98666 620.18552,866.03634 617.98552,864.29391 C 613.58102,860.80544 613.25402,859.60933 615.51122,855.24425 C 617.36342,851.66254 618.84782,851.57893 624.85022,854.71819 C 631.38802,858.13743 636.30112,859.48267 638.83192,858.54647 C 640.85722,857.79724 640.61762,857.35052 634.98872,851.37968 C 631.68702,847.87741 628.98552,844.36196 628.98552,843.56758 C 628.98552,841.76563 623.39482,836.74239 618.88182,834.48938 C 612.94822,831.52721 614.09822,824.7748 620.37402,825.72768 C 622.08542,825.98752 625.17302,826.46661 627.23552,826.79232 C 630.71192,827.34132 630.98552,827.20526 630.98552,824.92812 C 630.98552,822.42887 626.01512,817.29391 623.59592,817.29391 C 622.13852,817.29391 617.71912,812.74514 616.08022,809.55819 C 614.99972,807.45709 615.07842,807.37873 617.38772,808.25672 C 620.41982,809.40952 626.98552,808.45509 626.98552,806.86154 C 626.98552,805.7709 622.97382,803.69445 611.98552,799.09773 C 608.93252,797.82055 606.19942,797.39235 603.48552,797.76604 C 600.62522,798.15992 598.48832,797.77411 595.98552,796.41195 C 594.06052,795.36425 589.93382,793.2887 586.81512,791.79962 C 583.69642,790.31053 580.12762,788.00955 578.88452,786.68632 L 576.62432,784.28044 L 579.55492,781.19281 C 582.31632,778.2835 582.79482,778.14072 587.84072,778.72063 C 590.78602,779.05914 594.07182,779.80486 595.14232,780.3778 C 596.21282,780.95073 597.99252,781.27874 599.09712,781.1067 C 600.55862,780.87908 598.43422,779.03465 591.29552,774.33305 C 580.19362,767.02131 572.98552,760.67343 572.98552,758.20815 C 572.98552,757.29001 573.66052,755.9786 574.48552,755.29391 C 575.31052,754.60922 575.98552,753.68398 575.98552,753.23782 C 575.98552,752.79165 573.28552,750.30537 569.98552,747.71274 C 566.50792,744.98054 563.98552,742.22011 563.98552,741.14639 C 563.98552,740.12753 563.31052,739.29391 562.48552,739.29391 C 560.36412,739.29391 560.60942,737.30075 562.73552,737.26211 C 565.05202,737.22001 568.33922,734.67515 567.60712,733.49065 C 567.28892,732.97567 565.66882,731.99114 564.00702,731.3028 C 561.77792,730.37948 560.98552,729.39183 560.98552,727.53667 C 560.98552,725.13174 561.18182,725.04896 565.48492,725.63876 C 567.95952,725.97795 570.99702,726.50918 572.23492,726.81928 C 573.47272,727.12938 575.33002,726.7649 576.36222,726.00934 C 577.92442,724.86567 578.04422,724.27198 577.07702,722.46474 C 576.43802,721.27079 575.31092,720.29391 574.57232,720.29391 C 571.79182,720.29391 570.24922,716.19444 571.25512,711.47804 C 571.89292,708.4876 571.84672,706.28456 571.11232,704.67272 C 569.48912,701.11022 564.17192,698.30531 558.98552,698.27569 C 553.16732,698.24246 545.77642,695.00249 546.60332,692.84762 C 547.01912,691.76413 548.54892,691.29391 551.65832,691.29391 C 554.11062,691.29391 556.99512,690.82396 558.06842,690.24958 C 559.96862,689.23261 559.95522,689.12069 557.55652,685.97578 C 556.20172,684.19956 553.08212,681.2394 550.62402,679.39764 C 548.16592,677.55588 545.89292,675.3166 545.57292,674.42145 C 544.34172,670.97791 540.42552,664.91571 539.16952,664.50917 C 538.44562,664.27488 537.62362,664.91811 537.34272,665.93855 C 537.06182,666.959 532.66012,671.61891 527.56112,676.29391 C 521.86532,681.51606 518.71342,685.07723 519.38782,685.5286 C 519.99162,685.93267 522.45432,686.27017 524.86052,686.2786 L 529.23552,686.29391 L 528.59592,689.49193 C 527.61322,694.40558 521.47122,702.53968 514.67532,707.92753 C 511.29932,710.60404 506.56132,714.81891 504.14642,717.29391 L 499.75562,721.79391 L 502.45382,722.11836 C 504.62342,722.37925 508.75322,721.06093 512.98552,718.7564 C 513.26052,718.60666 513.48552,721.47885 513.48552,725.13903 L 513.48552,731.79391 L 516.74702,731.46734 L 520.00842,731.14077 L 517.78072,734.96734 C 516.55552,737.07195 510.96062,743.34546 505.34782,748.90846 L 495.14262,759.02301 L 496.98212,762.04779 C 497.99382,763.71142 499.42092,765.29113 500.15352,765.55824 C 501.83882,766.17271 495.56542,772.95546 488.26582,778.4111 C 485.39502,780.55675 482.53512,783.26712 481.91052,784.43414 C 480.82432,786.46375 480.93582,786.52582 484.47572,785.86173 C 488.07342,785.18681 491.43202,782.39238 495.28222,776.87062 C 497.14862,774.19392 501.10432,773.45076 503.93932,775.24419 C 505.81302,776.42948 504.57082,778.8637 497.85882,787.15897 C 493.03902,793.11558 492.04302,795.59334 493.98552,796.79391 C 495.22952,797.56274 495.28982,803.3634 494.08672,806.52785 C 493.51872,808.02183 490.78462,810.1118 486.65862,812.20605 C 477.65732,816.77487 472.98552,821.20737 472.98552,825.17878 C 472.98552,826.8921 473.14342,828.29391 473.33632,828.29391 C 475.03332,828.29391 481.09362,825.41297 485.17682,822.66524 C 493.13952,817.30669 494.04522,819.44415 487.98552,829.29391 C 485.78622,832.86891 483.98642,836.60678 483.98612,837.60028 C 483.98582,838.59378 485.24502,840.61878 486.78432,842.10028 C 490.11032,845.30127 494.35882,851.05233 495.32072,853.65572 C 496.02152,855.55244 496.83632,855.55996 504.23552,853.73793 C 506.78392,853.11042 506.98552,853.28513 506.98552,856.12017 C 506.98552,857.80285 506.10832,860.66781 505.03602,862.48675 L 503.08652,865.79391 L 506.61892,870.04391 C 510.49172,874.70326 511.82842,875.09822 515.52572,872.67562 C 519.51572,870.06127 520.98552,872.16583 520.98552,880.49328 C 520.98552,887.00181 521.19202,887.65122 524.20462,890.6208 C 525.97502,892.366 527.29382,894.4066 527.13512,895.1555 C 526.74772,896.9838 530.90292,901.2939 533.05292,901.2939 C 534.97152,901.2939 535.98552,899.3529 535.98552,895.6807 C 535.98552,890.4329 541.76052,891.377 549.00232,897.8088 C 552.60872,901.0118 554.91332,902.2939 557.06422,902.2939 C 559.95042,902.2939 560.04942,902.1513 559.43572,898.88 z "
         id="path2389"
         style="fill:#00a920;fill-opacity:1" />
      <path
         d="M 483.18894,801.97756 C 478.77434,797.17622 479.71334,786.00823 484.75864,783.30805 C 485.86904,782.71378 489.47264,782.22756 492.76664,782.22756 C 497.80884,782.22756 499.26104,782.65285 501.95264,784.91766 C 505.01284,787.49266 505.12554,787.84567 504.58624,793.16766 C 504.10924,797.87385 503.52074,799.14982 500.75364,801.47756 C 497.96774,803.82119 496.58124,804.22756 491.37114,804.22756 C 486.31094,804.22756 484.90134,803.83994 483.18894,801.97756 z "
         id="path2353"
         style="fill:#ff0505;fill-opacity:1" />
      <path
         d="M 500.97484,793.19238 C 505.45024,790.79721 501.48014,785.22756 495.29734,785.22756 C 493.55564,785.22756 491.06894,786.0873 489.77124,787.13809 L 487.41184,789.04862 L 492.91044,791.55616 C 495.93474,792.9353 498.55114,794.10056 498.72484,794.14563 C 498.89844,794.19069 499.91094,793.76173 500.97484,793.19238 z "
         id="path2466"
         style="fill:#ffffff;fill-opacity:1" />
      <path
         d="M 568.08209,757.11713 C 565.05042,755.79492 562.53247,753.42816 560.69255,750.70828 C 559.95162,749.53114 559.16327,748.01282 559.89733,746.6424 C 561.36964,743.46139 563.74741,740.80006 566.21132,738.35092 C 567.41007,737.13419 569.07348,736.4607 570.77866,736.46381 C 573.19828,736.36062 575.82119,736.39887 577.86729,737.88331 C 579.92647,739.36944 581.88456,741.07293 583.37649,743.14236 C 584.56195,744.72962 584.89686,746.92279 584.02819,748.734 C 582.89294,751.18556 581.02446,753.2173 579.07466,755.05208 C 576.95499,757.02454 574.05192,758.38577 571.10614,757.93164 C 570.06698,757.79899 569.05416,757.50264 568.08209,757.11713 z "
         id="path2349"
         style="fill:#ff0505;fill-opacity:1" />
      <path
         d="M 577.6228,748.40161 C 579.32042,747.6173 580.05853,745.30809 578.97676,743.74194 C 577.82987,741.93392 575.50121,741.7454 573.57064,741.60398 C 571.84602,741.56957 569.89692,741.58507 568.48902,742.72196 C 567.43452,743.60117 568.04811,745.11596 568.91433,745.87887 C 570.43237,747.34376 572.4461,748.10844 574.3095,749.02662 C 575.43911,749.69658 576.64013,748.98908 577.62282,748.40159 L 577.6228,748.40161 z "
         id="path2458"
         style="fill:#ffffff;fill-opacity:1" />
      <path
         d="M 533.14132,651.29391 C 536.24462,648.85284 540.19482,648.74479 544.86772,650.97313 C 546.80442,651.89671 548.63992,652.40144 548.94662,652.09477 C 549.25332,651.7881 548.96222,649.38469 548.29972,646.75386 C 547.16692,642.25481 547.22972,641.86172 549.35622,640.13977 C 551.46752,638.43015 551.49462,638.27004 549.76562,637.7201 C 546.59532,636.71172 544.04112,635.34363 540.46882,632.74054 L 537.02352,630.22998 L 535.55312,632.6533 C 534.73722,633.99808 532.37622,635.58791 530.24842,636.22541 C 528.13962,636.85724 526.41412,637.59906 526.41412,637.87389 C 526.41412,638.14872 527.36102,640.22962 528.51832,642.4981 C 529.95572,645.31565 530.45102,647.67961 530.08122,649.95826 C 529.44982,653.84928 529.73462,653.9736 533.14132,651.29391 z "
         id="path2325"
         style="fill:#ff0f0f;fill-opacity:1" />
      <path
         d="M 593.16432,989.1982 C 594.26022,988.6117 594.99952,987.9745 594.80722,987.7823 C 594.12212,987.0971 503.33882,989.3233 495.48552,990.2178 C 490.21782,990.8178 505.19172,990.9814 539.32862,990.6968 C 573.31232,990.4135 591.85812,989.8973 593.16432,989.1982 z M 510.34012,982.6619 C 513.48152,981.1638 514.14502,981.1602 518.42382,982.6182 C 521.94632,983.8184 523.74502,983.9527 525.78542,983.1679 C 531.92102,980.8078 538.99272,980.3129 543.09992,981.9563 C 546.55052,983.337 547.27602,983.3555 548.77112,982.101 C 550.13882,980.9535 554.12642,980.6924 568.48552,980.81 C 593.33632,981.0137 602.91232,979.2737 602.97022,974.5439 C 602.99662,972.3931 528.53662,973.2814 489.73552,975.8948 C 480.30192,976.5302 479.98552,976.6292 479.98552,978.9442 C 479.98552,981.8926 484.32952,984.3499 486.21272,982.4668 C 487.78992,980.8895 491.92382,981.0437 494.98552,982.7939 C 498.36472,984.7256 506.15282,984.6586 510.34012,982.6619 z "
         id="path2441"
         style="fill:#ffffff;fill-opacity:1" />
      <path
         d="M 434.70162,860.06133 C 430.28702,855.25999 431.22602,844.092 436.27132,841.39182 C 437.38172,840.79755 440.98532,840.31133 444.27932,840.31133 C 449.32152,840.31133 450.77372,840.73662 453.46532,843.00143 C 456.52552,845.57643 456.63822,845.92944 456.09892,851.25143 C 455.62192,855.95762 455.03342,857.23359 452.26632,859.56133 C 449.48042,861.90496 448.09392,862.31133 442.88382,862.31133 C 437.82362,862.31133 436.41402,861.92371 434.70162,860.06133 z "
         id="path2470"
         style="fill:#ff0505;fill-opacity:1" />
      <path
         d="M 452.48752,851.27615 C 456.96292,848.88098 452.99282,843.31133 446.81002,843.31133 C 445.06832,843.31133 442.58162,844.17107 441.28392,845.22186 L 438.92452,847.13239 L 444.42312,849.63993 C 447.44742,851.01907 450.06382,852.18433 450.23752,852.2294 C 450.41112,852.27446 451.42362,851.8455 452.48752,851.27615 z "
         id="path2472"
         style="fill:#ffffff;fill-opacity:1" />
      <path
         d="M 601.88187,838.84813 C 597.46727,834.04679 598.40627,822.8788 603.45157,820.17862 C 604.56197,819.58435 608.16557,819.09813 611.45957,819.09813 C 616.50177,819.09813 617.95397,819.52342 620.64557,821.78823 C 623.70577,824.36323 623.81847,824.71624 623.27917,830.03823 C 622.80217,834.74442 622.21367,836.02039 619.44657,838.34813 C 616.66067,840.69176 615.27417,841.09813 610.06407,841.09813 C 605.00387,841.09813 603.59427,840.71051 601.88187,838.84813 z "
         id="path2474"
         style="fill:#ff0505;fill-opacity:1" />
      <path
         d="M 619.66777,830.06295 C 624.14317,827.66778 620.17307,822.09813 613.99027,822.09813 C 612.24857,822.09813 609.76187,822.95787 608.46417,824.00866 L 606.10477,825.91919 L 611.60337,828.42673 C 614.62767,829.80587 617.24407,830.97113 617.41777,831.0162 C 617.59137,831.06126 618.60387,830.6323 619.66777,830.06295 z "
         id="path2476"
         style="fill:#ffffff;fill-opacity:1" />
      <path
         d="M 502.38184,910.56896 C 497.96724,905.76762 498.90624,894.59963 503.95154,891.89945 C 505.06194,891.30518 508.66554,890.81896 511.95954,890.81896 C 517.00174,890.81896 518.45394,891.24425 521.14554,893.50906 C 524.20574,896.08406 524.31844,896.43707 523.77914,901.75906 C 523.30214,906.46525 522.71364,907.74122 519.94654,910.06896 C 517.16064,912.41259 515.77414,912.81896 510.56404,912.81896 C 505.50384,912.81896 504.09424,912.43134 502.38184,910.56896 z "
         id="path2478"
         style="fill:#ff0505;fill-opacity:1" />
      <path
         d="M 520.16774,901.78378 C 524.64314,899.38861 520.67304,893.81896 514.49024,893.81896 C 512.74854,893.81896 510.26184,894.6787 508.96414,895.72949 L 506.60474,897.64002 L 512.10334,900.14756 C 515.12764,901.5267 517.74404,902.69196 517.91774,902.73703 C 518.09134,902.78209 519.10384,902.35313 520.16774,901.78378 z "
         id="path2480"
         style="fill:#ffffff;fill-opacity:1" />
      <path
         d="M 555.96026,697.51813 C 552.92859,696.19592 550.41064,693.82916 548.57072,691.10928 C 547.82979,689.93214 547.04144,688.41382 547.7755,687.0434 C 549.24781,683.86239 551.62558,681.20106 554.08949,678.75192 C 555.28824,677.53519 556.95165,676.8617 558.65683,676.86481 C 561.07645,676.76162 563.69936,676.79987 565.74546,678.28431 C 567.80464,679.77044 569.76273,681.47393 571.25466,683.54336 C 572.44012,685.13062 572.77503,687.32379 571.90636,689.135 C 570.77111,691.58656 568.90263,693.6183 566.95283,695.45308 C 564.83316,697.42554 561.93009,698.78677 558.98431,698.33264 C 557.94515,698.19999 556.93233,697.90364 555.96026,697.51813 z "
         id="path2482"
         style="fill:#ff0505;fill-opacity:1" />
      <path
         d="M 565.50097,688.80261 C 567.19859,688.0183 567.9367,685.70909 566.85493,684.14294 C 565.70804,682.33492 563.37938,682.1464 561.44881,682.00498 C 559.72419,681.97057 557.77509,681.98607 556.36719,683.12296 C 555.31269,684.00217 555.92628,685.51696 556.7925,686.27987 C 558.31054,687.74476 560.32427,688.50944 562.18767,689.42762 C 563.31728,690.09758 564.5183,689.39008 565.50099,688.80259 L 565.50097,688.80261 z "
         id="path2484"
         style="fill:#ffffff;fill-opacity:1" />
      <path
         d="M 501.9171,740.95469 C 498.88543,739.63248 496.36748,737.26572 494.52756,734.54584 C 493.78663,733.3687 492.99828,731.85038 493.73234,730.47996 C 495.20465,727.29895 497.58242,724.63762 500.04633,722.18848 C 501.24508,720.97175 502.90849,720.29826 504.61367,720.30137 C 507.03329,720.19818 509.6562,720.23643 511.7023,721.72087 C 513.76148,723.207 515.71957,724.91049 517.2115,726.97992 C 518.39696,728.56718 518.73187,730.76035 517.8632,732.57156 C 516.72795,735.02312 514.85947,737.05486 512.90967,738.88964 C 510.79,740.8621 507.88693,742.22333 504.94115,741.7692 C 503.90199,741.63655 502.88917,741.3402 501.9171,740.95469 z "
         id="path2486"
         style="fill:#ff0505;fill-opacity:1" />
      <path
         d="M 511.45781,732.23917 C 513.15543,731.45486 513.89354,729.14565 512.81177,727.5795 C 511.66488,725.77148 509.33622,725.58296 507.40565,725.44154 C 505.68103,725.40713 503.73193,725.42263 502.32403,726.55952 C 501.26953,727.43873 501.88312,728.95352 502.74934,729.71643 C 504.26738,731.18132 506.28111,731.946 508.14451,732.86418 C 509.27412,733.53414 510.47514,732.82664 511.45783,732.23915 L 511.45781,732.23917 z "
         id="path2488"
         style="fill:#ffffff;fill-opacity:1" />
      <path
         d="M 691.3207,917.73139 C 688.28903,916.40918 685.77108,914.04242 683.93116,911.32254 C 683.19023,910.1454 682.40188,908.62708 683.13594,907.25666 C 684.60825,904.07565 686.98602,901.41432 689.44993,898.96518 C 690.64868,897.74845 692.31209,897.07496 694.01727,897.07807 C 696.43689,896.97488 699.0598,897.01313 701.1059,898.49757 C 703.16508,899.9837 705.12317,901.68719 706.6151,903.75662 C 707.80056,905.34388 708.13547,907.53705 707.2668,909.34826 C 706.13155,911.79982 704.26307,913.83156 702.31327,915.66634 C 700.1936,917.6388 697.29053,919.00003 694.34475,918.5459 C 693.30559,918.41325 692.29277,918.1169 691.3207,917.73139 z "
         id="path2490"
         style="fill:#ff0505;fill-opacity:1" />
      <path
         d="M 691.3207,917.73139 C 688.28903,916.40918 685.77108,914.04242 683.93116,911.32254 C 683.19023,910.1454 682.40188,908.62708 683.13594,907.25666 C 684.60825,904.07565 686.98602,901.41432 689.44993,898.96518 C 690.64868,897.74845 692.31209,897.07496 694.01727,897.07807 C 696.43689,896.97488 699.0598,897.01313 701.1059,898.49757 C 703.16508,899.9837 705.12317,901.68719 706.6151,903.75662 C 707.80056,905.34388 708.13547,907.53705 707.2668,909.34826 C 706.13155,911.79982 704.26307,913.83156 702.31327,915.66634 C 700.1936,917.6388 697.29053,919.00003 694.34475,918.5459 C 693.30559,918.41325 692.29277,918.1169 691.3207,917.73139 z "
         id="path2494"
         style="fill:#ff0505;fill-opacity:1" />
      <path
         d="M 701.87156,908.00572 C 703.56918,907.22141 704.30729,904.9122 703.22552,903.34605 C 702.07863,901.53803 699.74997,901.34951 697.8194,901.20809 C 696.09478,901.17368 694.14568,901.18918 692.73778,902.32607 C 691.68328,903.20528 692.29687,904.72007 693.16309,905.48298 C 694.68113,906.94787 696.69486,907.71255 698.55826,908.63073 C 699.68787,909.30069 700.88889,908.59319 701.87158,908.0057 L 701.87156,908.00572 z "
         id="path2496"
         style="fill:#ffffff;fill-opacity:1" />
      <path
         d="M 430.9932,929.50178 C 431.8615,928.74988 433.0663,928.13478 433.6706,928.13478 C 436.0659,928.13478 438.9144,922.87398 438.9144,918.45028 C 438.9144,907.16257 429.3902,901.51507 416.7439,905.30397 C 411.4619,906.88647 405.9132,913.07998 405.9182,917.38768 C 405.9253,923.55538 411.2574,929.53468 418.1895,931.14828 C 422.3294,932.11198 428.9641,931.25878 430.9932,929.50178 z "
         id="path2498"
         style="fill:#ff0505;fill-opacity:1" />
      <path
         d="M 418.9147,922.90468 C 417.772,921.67808 416.5688,919.60558 416.2409,918.29918 C 415.5032,915.36028 418.3275,909.13477 420.3983,909.13477 C 422.3524,909.13477 422.3635,910.74848 420.4144,911.49638 C 418.2419,912.33008 418.5524,913.69808 421.7187,917.24168 C 424.4309,920.27718 424.6771,920.34738 429.2187,919.37868 C 431.8014,918.82788 433.9144,918.70738 433.9144,919.11098 C 433.9144,919.51448 432.4777,921.03498 430.7217,922.48978 C 426.6788,925.83898 421.8079,926.01018 418.9147,922.90468 z "
         id="path2500"
         style="fill:#ffffff;fill-opacity:1" />
      <path
         d="M 556.25212,838.08297 C 557.12042,837.33107 558.32522,836.71597 558.92952,836.71597 C 561.32482,836.71597 564.17332,831.45517 564.17332,827.03147 C 564.17332,815.74376 554.64912,810.09626 542.00282,813.88516 C 536.72082,815.46766 531.17212,821.66117 531.17712,825.96887 C 531.18422,832.13657 536.51632,838.11587 543.44842,839.72947 C 547.58832,840.69317 554.22302,839.83997 556.25212,838.08297 z "
         id="path2502"
         style="fill:#ff0505;fill-opacity:1" />
      <path
         d="M 544.17362,831.48587 C 543.03092,830.25927 541.82772,828.18677 541.49982,826.88037 C 540.76212,823.94147 543.58642,817.71596 545.65722,817.71596 C 547.61132,817.71596 547.62242,819.32967 545.67332,820.07757 C 543.50082,820.91127 543.81132,822.27927 546.97762,825.82287 C 549.68982,828.85837 549.93602,828.92857 554.47762,827.95987 C 557.06032,827.40907 559.17332,827.28857 559.17332,827.69217 C 559.17332,828.09567 557.73662,829.61617 555.98062,831.07097 C 551.93772,834.42017 547.06682,834.59137 544.17362,831.48587 z "
         id="path2504"
         style="fill:#ffffff;fill-opacity:1" />
    </g>
  </g>
</svg>
