<?xml version="1.0" encoding="UTF-8" standalone="no"?>
<!-- Created with Inkscape (http://www.inkscape.org/) -->
<svg
   xmlns:dc="http://purl.org/dc/elements/1.1/"
   xmlns:cc="http://creativecommons.org/ns#"
   xmlns:rdf="http://www.w3.org/1999/02/22-rdf-syntax-ns#"
   xmlns:svg="http://www.w3.org/2000/svg"
   xmlns="http://www.w3.org/2000/svg"
   xmlns:xlink="http://www.w3.org/1999/xlink"
   xmlns:sodipodi="http://sodipodi.sourceforge.net/DTD/sodipodi-0.dtd"
   xmlns:inkscape="http://www.inkscape.org/namespaces/inkscape"
   width="153.48972"
   height="152.63829"
   id="svg2"
   sodipodi:version="0.32"
   inkscape:version="0.46"
   version="1.0"
   sodipodi:docname="background.svg"
   inkscape:output_extension="org.inkscape.output.svg.inkscape">
  <defs
     id="defs4">
    <inkscape:perspective
       sodipodi:type="inkscape:persp3d"
       inkscape:vp_x="0 : 526.18109 : 1"
       inkscape:vp_y="0 : 1000 : 0"
       inkscape:vp_z="744.09448 : 526.18109 : 1"
       inkscape:persp3d-origin="372.04724 : 350.78739 : 1"
       id="perspective10" />
    <radialGradient
       r="52.241501"
       fy="14.1646"
       fx="64.551804"
       cy="14.1646"
       cx="64.551804"
       gradientUnits="userSpaceOnUse"
       id="radialGradient32255"
       xlink:href="#XMLID_67_"
       inkscape:collect="always" />
    <radialGradient
       r="52.241501"
       fy="14.1646"
       fx="64.551804"
       cy="14.1646"
       cx="64.551804"
       gradientUnits="userSpaceOnUse"
       id="radialGradient31918"
       xlink:href="#XMLID_67_"
       inkscape:collect="always" />
    <pattern
       id="pattern7096"
       patternTransform="translate(197.38019,536.79187)"
       height="213.63924"
       width="7.5000006"
       patternUnits="userSpaceOnUse">
      <rect
         style="fill:#262729;fill-opacity:1;stroke:#e04613;stroke-width:1.75000012;stroke-miterlimit:4;stroke-dasharray:none;stroke-opacity:1"
         width="5.7500005"
         height="211.88924"
         x="0.87500006"
         y="0.87500006"
         id="rect7090" />
    </pattern>
    <pattern
       id="pattern7087"
       patternTransform="translate(198.25517,601.81158)"
       height="41.425995"
       width="7.5"
       patternUnits="userSpaceOnUse">
      <rect
         style="opacity:1;fill:#262729;fill-opacity:1;fill-rule:nonzero;stroke:#e04613;stroke-width:2.5;stroke-linejoin:miter;stroke-miterlimit:4;stroke-dasharray:none;stroke-opacity:1"
         id="rect7085"
         width="5"
         height="38.925995"
         x="1.25"
         y="1.25" />
    </pattern>
    <pattern
       id="pattern7053"
       patternTransform="translate(265.69051,628.69118)"
       height="52.64405"
       width="52.64405"
       patternUnits="userSpaceOnUse">
      <path
         style="fill:none;fill-rule:evenodd;stroke:#e04613;stroke-width:1px;stroke-linecap:butt;stroke-linejoin:miter;stroke-opacity:1"
         d="M 0.5,0.5 L 52.14405,52.14405"
         id="path7051" />
    </pattern>
    <pattern
       id="pattern7044"
       patternTransform="translate(265.42265,627.97688)"
       height="52.64405"
       width="52.64405"
       patternUnits="userSpaceOnUse">
      <path
         style="fill:none;fill-rule:evenodd;stroke:#e04613;stroke-width:1px;stroke-linecap:butt;stroke-linejoin:miter;stroke-opacity:1"
         d="M 0.5,0.5 L 52.14405,52.14405"
         id="path6068" />
    </pattern>
    <pattern
       patternTransform="matrix(0.9807814,0.1951099,-0.1951099,0.9807814,88.853396,564.9863)"
       id="pattern7103"
       xlink:href="#pattern7096"
       inkscape:collect="always" />
    <clipPath
       id="clipoutline1"
       clipPathUnits="userSpaceOnUse">
      <path
         d="M 54.1,12.5 L 12.9,54.7 C -2.7,70.3 23,69 32.3,74.9 C 36.6,77.7 18.5,81.3 22.2,85 C 25.8,88.7 43.9,92.1 47.5,95.7 C 51.1,99.4 40.2,103.3 43.8,107 C 47.3,110.7 55.7,107.2 57.2,115.6 C 58.3,121.8 72.6,118.7 79,113.4 C 83,110 72.1,110 75.7,106.3 C 84.7,97.2 92.7,102.2 96,93.8 C 97.8,89.3 82.4,86.1 86.5,83.2 C 96.3,76.3 132.3,72.8 115.7,56.2 L 73,12.5 C 67.7,7.5 59,7.5 54.1,12.5 z M 44.2,77.2 C 45.1,77.2 75,81.2 63.5,84.3 C 59.1,85.5 38.9,77.2 44.2,77.2 z M 101.4,93.8 C 101.4,95.9 117.7,97.1 116.8,93.3 C 115.5,86.9 103.2,87.4 101.4,93.8 z M 31.9,104.9 C 35.6,108.1 41.2,104.2 43,99.7 C 39.4,95 26.1,100 31.9,104.9 z M 99.4,98.2 C 94.8,102.4 100.2,106.8 104.7,103.9 C 105.9,103.1 104.6,99.2 99.4,98.2 z"
         id="outline1" />
    </clipPath>
    <radialGradient
       gradientUnits="userSpaceOnUse"
       id="XMLID_67_"
       fy="14.1646"
       fx="64.551804"
       r="52.241501"
       cy="14.1646"
       cx="64.551804">
      <stop
         id="stop85"
         offset="0"
         style="stop-color:#0f80bc;stop-opacity:1" />
      <stop
         id="stop87"
         offset="0.33759999"
         style="stop-color:#0a5f9e;stop-opacity:1" />
      <stop
         id="stop89"
         offset="1"
         style="stop-color:#00145a;stop-opacity:1" />
    </radialGradient>
    <linearGradient
       inkscape:collect="always"
       xlink:href="#linearGradient15107"
       id="linearGradient27486"
       gradientUnits="userSpaceOnUse"
       gradientTransform="matrix(4.424777,0,0,4.6697466,315.57521,459.96281)"
       x1="11.572842"
       y1="4.7461624"
       x2="18.475286"
       y2="26.022909" />
    <linearGradient
       id="linearGradient15107">
      <stop
         id="stop15109"
         offset="0.0000000"
         style="stop-color:#ffffff;stop-opacity:1.0000000;" />
      <stop
         id="stop15111"
         offset="1.0000000"
         style="stop-color:#e2e2e2;stop-opacity:1.0000000;" />
    </linearGradient>
    <inkscape:perspective
       id="perspective2470"
       inkscape:persp3d-origin="127.36128 : 84.866679 : 1"
       inkscape:vp_z="254.72256 : 127.30002 : 1"
       inkscape:vp_y="0 : 1000 : 0"
       inkscape:vp_x="0 : 127.30002 : 1"
       sodipodi:type="inkscape:persp3d" />
  </defs>
  <sodipodi:namedview
     id="base"
     pagecolor="#818181"
     bordercolor="#666666"
     borderopacity="1.0"
     inkscape:pageopacity="0.4627451"
     inkscape:pageshadow="2"
     inkscape:zoom="1.4142136"
     inkscape:cx="22.461797"
     inkscape:cy="112.1002"
     inkscape:document-units="px"
     inkscape:current-layer="layer1"
     showgrid="false"
     showguides="true"
     inkscape:guide-bbox="true"
     inkscape:window-width="1280"
     inkscape:window-height="905"
     inkscape:window-x="0"
     inkscape:window-y="46" />
  <metadata
     id="metadata7">
    <rdf:RDF>
      <cc:Work
         rdf:about="">
        <dc:format>image/svg+xml</dc:format>
        <dc:type
           rdf:resource="http://purl.org/dc/dcmitype/StillImage" />
      </cc:Work>
    </rdf:RDF>
  </metadata>
  <g
     inkscape:label="Calque 1"
     inkscape:groupmode="layer"
     id="layer1"
     transform="translate(-112.6562,-315.50573)">
    <path
       style="fill:#262729;fill-opacity:1;stroke:none;stroke-width:2.40000224;stroke-linejoin:miter;stroke-miterlimit:4;stroke-opacity:1"
       d="M 133.2048,318.34204 L 262.46172,318.34204 L 263.66076,448.798 C 263.66076,458.76206 255.63916,466.78366 245.6751,466.78366 L 116.41819,466.78366 L 115.21915,336.3277 C 115.21915,326.36365 123.24075,318.34204 133.2048,318.34204 z"
       id="rect2160"
       sodipodi:nodetypes="ccccccc" />
    <path
       style="fill:none;fill-rule:evenodd;stroke:#6c9eab;stroke-width:5.99522018;stroke-linecap:butt;stroke-linejoin:miter;stroke-miterlimit:4;stroke-dasharray:none;stroke-opacity:1"
       d="M 115.65381,433.03833 L 262.65791,433.03833"
       id="path3134" />
    <path
       style="fill:none;fill-rule:evenodd;stroke:#6c9eab;stroke-width:0.41966522;stroke-linecap:butt;stroke-linejoin:miter;stroke-miterlimit:4;stroke-dasharray:none;stroke-opacity:1"
       d="M 115.02543,462.36091 L 117.94183,465.27731"
       id="path2180"
       inkscape:tile-w="52.72286"
       inkscape:tile-h="52.72285"
       inkscape:tile-cx="241.13734"
       inkscape:tile-cy="655.35609" />
    <path
       id="use14111"
       d="M 115.23801,462.5735 L 117.94183,465.27731"
       style="fill:none;fill-rule:evenodd;stroke:#6c9eab;stroke-width:0.41966522;stroke-linecap:butt;stroke-linejoin:miter;stroke-miterlimit:4;stroke-dasharray:none;stroke-opacity:1" />
    <path
       id="use14113"
       d="M 116.43775,460.80203 L 120.91303,465.27731"
       style="fill:none;fill-rule:evenodd;stroke:#6c9eab;stroke-width:0.41966525;stroke-linecap:butt;stroke-linejoin:miter;stroke-miterlimit:4;stroke-dasharray:none;stroke-opacity:1" />
    <path
       id="use14115"
       d="M 116.00775,457.40083 L 123.88422,465.2773"
       style="fill:none;fill-rule:evenodd;stroke:#6c9eab;stroke-width:0.41966519;stroke-linecap:butt;stroke-linejoin:miter;stroke-miterlimit:4;stroke-dasharray:none;stroke-opacity:1" />
    <path
       id="use14117"
       d="M 115.43603,453.85792 L 126.85543,465.27731"
       style="fill:none;fill-rule:evenodd;stroke:#6c9eab;stroke-width:0.41966522;stroke-linecap:butt;stroke-linejoin:miter;stroke-miterlimit:4;stroke-dasharray:none;stroke-opacity:1" />
    <path
       id="use14119"
       d="M 115.64377,451.09445 L 129.82663,465.27731"
       style="fill:none;fill-rule:evenodd;stroke:#6c9eab;stroke-width:0.41966522;stroke-linecap:butt;stroke-linejoin:miter;stroke-miterlimit:4;stroke-dasharray:none;stroke-opacity:1" />
    <path
       id="use14121"
       d="M 116.48921,448.9687 L 132.79782,465.27731"
       style="fill:none;fill-rule:evenodd;stroke:#6c9eab;stroke-width:0.41966522;stroke-linecap:butt;stroke-linejoin:miter;stroke-miterlimit:4;stroke-dasharray:none;stroke-opacity:1" />
    <path
       id="use14123"
       d="M 116.34266,445.85094 L 135.76903,465.27731"
       style="fill:none;fill-rule:evenodd;stroke:#6c9eab;stroke-width:0.41966522;stroke-linecap:butt;stroke-linejoin:miter;stroke-miterlimit:4;stroke-dasharray:none;stroke-opacity:1" />
    <path
       id="use14125"
       d="M 116.47952,443.0166 L 138.74022,465.27729"
       style="fill:none;fill-rule:evenodd;stroke:#6c9eab;stroke-width:0.41966522;stroke-linecap:butt;stroke-linejoin:miter;stroke-miterlimit:4;stroke-dasharray:none;stroke-opacity:1" />
    <path
       id="use14127"
       d="M 116.12038,439.68626 L 141.71142,465.27729"
       style="fill:none;fill-rule:evenodd;stroke:#6c9eab;stroke-width:0.41966519;stroke-linecap:butt;stroke-linejoin:miter;stroke-miterlimit:4;stroke-dasharray:none;stroke-opacity:1" />
    <path
       id="use14129"
       d="M 116.32812,436.92281 L 144.68263,465.27732"
       style="fill:none;fill-rule:evenodd;stroke:#6c9eab;stroke-width:0.41966525;stroke-linecap:butt;stroke-linejoin:miter;stroke-miterlimit:4;stroke-dasharray:none;stroke-opacity:1" />
    <path
       id="use14131"
       d="M 116.46498,434.08847 L 147.65383,465.27731"
       style="fill:none;fill-rule:evenodd;stroke:#6c9eab;stroke-width:0.41966522;stroke-linecap:butt;stroke-linejoin:miter;stroke-miterlimit:4;stroke-dasharray:none;stroke-opacity:1" />
    <path
       id="use14133"
       d="M 119.43618,434.08847 L 150.62503,465.27731"
       style="fill:none;fill-rule:evenodd;stroke:#6c9eab;stroke-width:0.41966522;stroke-linecap:butt;stroke-linejoin:miter;stroke-miterlimit:4;stroke-dasharray:none;stroke-opacity:1" />
    <path
       id="use14135"
       d="M 122.40738,434.08847 L 153.59623,465.27731"
       style="fill:none;fill-rule:evenodd;stroke:#6c9eab;stroke-width:0.41966522;stroke-linecap:butt;stroke-linejoin:miter;stroke-miterlimit:4;stroke-dasharray:none;stroke-opacity:1" />
    <path
       id="use14137"
       d="M 125.37858,434.08847 L 156.56742,465.27731"
       style="fill:none;fill-rule:evenodd;stroke:#6c9eab;stroke-width:0.41966522;stroke-linecap:butt;stroke-linejoin:miter;stroke-miterlimit:4;stroke-dasharray:none;stroke-opacity:1" />
    <path
       id="use14139"
       d="M 128.34978,434.08847 L 159.53862,465.27731"
       style="fill:none;fill-rule:evenodd;stroke:#6c9eab;stroke-width:0.41966522;stroke-linecap:butt;stroke-linejoin:miter;stroke-miterlimit:4;stroke-dasharray:none;stroke-opacity:1" />
    <path
       id="use14141"
       d="M 131.32098,434.08847 L 162.50982,465.27731"
       style="fill:none;fill-rule:evenodd;stroke:#6c9eab;stroke-width:0.41966522;stroke-linecap:butt;stroke-linejoin:miter;stroke-miterlimit:4;stroke-dasharray:none;stroke-opacity:1" />
    <path
       id="use14143"
       d="M 134.29218,434.08847 L 165.48102,465.27731"
       style="fill:none;fill-rule:evenodd;stroke:#6c9eab;stroke-width:0.41966522;stroke-linecap:butt;stroke-linejoin:miter;stroke-miterlimit:4;stroke-dasharray:none;stroke-opacity:1" />
    <path
       id="use14145"
       d="M 137.26338,434.08847 L 168.45222,465.27731"
       style="fill:none;fill-rule:evenodd;stroke:#6c9eab;stroke-width:0.41966522;stroke-linecap:butt;stroke-linejoin:miter;stroke-miterlimit:4;stroke-dasharray:none;stroke-opacity:1" />
    <path
       id="use14147"
       d="M 140.23458,434.08847 L 171.42342,465.27731"
       style="fill:none;fill-rule:evenodd;stroke:#6c9eab;stroke-width:0.41966522;stroke-linecap:butt;stroke-linejoin:miter;stroke-miterlimit:4;stroke-dasharray:none;stroke-opacity:1" />
    <path
       id="use14149"
       d="M 143.20578,434.08847 L 174.39462,465.27731"
       style="fill:none;fill-rule:evenodd;stroke:#6c9eab;stroke-width:0.41966522;stroke-linecap:butt;stroke-linejoin:miter;stroke-miterlimit:4;stroke-dasharray:none;stroke-opacity:1" />
    <path
       id="use14151"
       d="M 146.17698,434.08847 L 177.36583,465.27731"
       style="fill:none;fill-rule:evenodd;stroke:#6c9eab;stroke-width:0.41966522;stroke-linecap:butt;stroke-linejoin:miter;stroke-miterlimit:4;stroke-dasharray:none;stroke-opacity:1" />
    <path
       id="use14153"
       d="M 149.14818,434.08847 L 180.33703,465.27731"
       style="fill:none;fill-rule:evenodd;stroke:#6c9eab;stroke-width:0.41966522;stroke-linecap:butt;stroke-linejoin:miter;stroke-miterlimit:4;stroke-dasharray:none;stroke-opacity:1" />
    <path
       id="use14155"
       d="M 152.11938,434.08847 L 183.30822,465.27731"
       style="fill:none;fill-rule:evenodd;stroke:#6c9eab;stroke-width:0.41966522;stroke-linecap:butt;stroke-linejoin:miter;stroke-miterlimit:4;stroke-dasharray:none;stroke-opacity:1" />
    <path
       id="use14157"
       d="M 155.09058,434.08847 L 186.27942,465.27731"
       style="fill:none;fill-rule:evenodd;stroke:#6c9eab;stroke-width:0.41966522;stroke-linecap:butt;stroke-linejoin:miter;stroke-miterlimit:4;stroke-dasharray:none;stroke-opacity:1" />
    <path
       id="use14159"
       d="M 158.06178,434.08847 L 189.25062,465.27731"
       style="fill:none;fill-rule:evenodd;stroke:#6c9eab;stroke-width:0.41966522;stroke-linecap:butt;stroke-linejoin:miter;stroke-miterlimit:4;stroke-dasharray:none;stroke-opacity:1" />
    <path
       id="use14161"
       d="M 161.03298,434.08847 L 192.22182,465.27731"
       style="fill:none;fill-rule:evenodd;stroke:#6c9eab;stroke-width:0.41966522;stroke-linecap:butt;stroke-linejoin:miter;stroke-miterlimit:4;stroke-dasharray:none;stroke-opacity:1" />
    <path
       id="use14163"
       d="M 164.00418,434.08847 L 195.19302,465.27731"
       style="fill:none;fill-rule:evenodd;stroke:#6c9eab;stroke-width:0.41966522;stroke-linecap:butt;stroke-linejoin:miter;stroke-miterlimit:4;stroke-dasharray:none;stroke-opacity:1" />
    <path
       id="use14165"
       d="M 166.97538,434.08847 L 198.16422,465.27731"
       style="fill:none;fill-rule:evenodd;stroke:#6c9eab;stroke-width:0.41966522;stroke-linecap:butt;stroke-linejoin:miter;stroke-miterlimit:4;stroke-dasharray:none;stroke-opacity:1" />
    <path
       id="use14167"
       d="M 169.94658,434.08847 L 201.13542,465.27731"
       style="fill:none;fill-rule:evenodd;stroke:#6c9eab;stroke-width:0.41966522;stroke-linecap:butt;stroke-linejoin:miter;stroke-miterlimit:4;stroke-dasharray:none;stroke-opacity:1" />
    <path
       id="use14169"
       d="M 172.91778,434.08847 L 204.10662,465.27731"
       style="fill:none;fill-rule:evenodd;stroke:#6c9eab;stroke-width:0.41966522;stroke-linecap:butt;stroke-linejoin:miter;stroke-miterlimit:4;stroke-dasharray:none;stroke-opacity:1" />
    <path
       id="use14171"
       d="M 175.88898,434.08847 L 207.07782,465.27731"
       style="fill:none;fill-rule:evenodd;stroke:#6c9eab;stroke-width:0.41966522;stroke-linecap:butt;stroke-linejoin:miter;stroke-miterlimit:4;stroke-dasharray:none;stroke-opacity:1" />
    <path
       id="use14173"
       d="M 178.86018,434.08847 L 210.04902,465.27731"
       style="fill:none;fill-rule:evenodd;stroke:#6c9eab;stroke-width:0.41966522;stroke-linecap:butt;stroke-linejoin:miter;stroke-miterlimit:4;stroke-dasharray:none;stroke-opacity:1" />
    <path
       id="use14175"
       d="M 181.83138,434.08847 L 213.02022,465.27731"
       style="fill:none;fill-rule:evenodd;stroke:#6c9eab;stroke-width:0.41966522;stroke-linecap:butt;stroke-linejoin:miter;stroke-miterlimit:4;stroke-dasharray:none;stroke-opacity:1" />
    <path
       id="use14177"
       d="M 184.80258,434.08847 L 215.99142,465.27731"
       style="fill:none;fill-rule:evenodd;stroke:#6c9eab;stroke-width:0.41966522;stroke-linecap:butt;stroke-linejoin:miter;stroke-miterlimit:4;stroke-dasharray:none;stroke-opacity:1" />
    <path
       id="use14179"
       d="M 187.77378,434.08847 L 218.96262,465.27731"
       style="fill:none;fill-rule:evenodd;stroke:#6c9eab;stroke-width:0.41966522;stroke-linecap:butt;stroke-linejoin:miter;stroke-miterlimit:4;stroke-dasharray:none;stroke-opacity:1" />
    <path
       id="use14181"
       d="M 190.74498,434.08847 L 221.93382,465.27731"
       style="fill:none;fill-rule:evenodd;stroke:#6c9eab;stroke-width:0.41966522;stroke-linecap:butt;stroke-linejoin:miter;stroke-miterlimit:4;stroke-dasharray:none;stroke-opacity:1" />
    <path
       id="use14183"
       d="M 193.71618,434.08847 L 224.90502,465.27731"
       style="fill:none;fill-rule:evenodd;stroke:#6c9eab;stroke-width:0.41966522;stroke-linecap:butt;stroke-linejoin:miter;stroke-miterlimit:4;stroke-dasharray:none;stroke-opacity:1" />
    <path
       id="use14185"
       d="M 196.68738,434.08847 L 227.87622,465.27731"
       style="fill:none;fill-rule:evenodd;stroke:#6c9eab;stroke-width:0.41966522;stroke-linecap:butt;stroke-linejoin:miter;stroke-miterlimit:4;stroke-dasharray:none;stroke-opacity:1" />
    <path
       id="use14187"
       d="M 199.65858,434.08847 L 230.84742,465.27731"
       style="fill:none;fill-rule:evenodd;stroke:#6c9eab;stroke-width:0.41966522;stroke-linecap:butt;stroke-linejoin:miter;stroke-miterlimit:4;stroke-dasharray:none;stroke-opacity:1" />
    <path
       id="use14189"
       d="M 202.62977,434.08847 L 233.81862,465.27731"
       style="fill:none;fill-rule:evenodd;stroke:#6c9eab;stroke-width:0.41966522;stroke-linecap:butt;stroke-linejoin:miter;stroke-miterlimit:4;stroke-dasharray:none;stroke-opacity:1" />
    <path
       id="use14191"
       d="M 205.60097,434.08847 L 236.78982,465.27731"
       style="fill:none;fill-rule:evenodd;stroke:#6c9eab;stroke-width:0.41966522;stroke-linecap:butt;stroke-linejoin:miter;stroke-miterlimit:4;stroke-dasharray:none;stroke-opacity:1" />
    <path
       id="use14193"
       d="M 208.57218,434.08847 L 239.76102,465.27731"
       style="fill:none;fill-rule:evenodd;stroke:#6c9eab;stroke-width:0.41966522;stroke-linecap:butt;stroke-linejoin:miter;stroke-miterlimit:4;stroke-dasharray:none;stroke-opacity:1" />
    <path
       id="use14195"
       d="M 211.54338,434.08847 L 242.73222,465.27731"
       style="fill:none;fill-rule:evenodd;stroke:#6c9eab;stroke-width:0.41966522;stroke-linecap:butt;stroke-linejoin:miter;stroke-miterlimit:4;stroke-dasharray:none;stroke-opacity:1" />
    <path
       id="use14197"
       d="M 214.51458,434.08847 L 245.70342,465.27731"
       style="fill:none;fill-rule:evenodd;stroke:#6c9eab;stroke-width:0.41966522;stroke-linecap:butt;stroke-linejoin:miter;stroke-miterlimit:4;stroke-dasharray:none;stroke-opacity:1" />
    <path
       id="use14199"
       d="M 217.48578,434.08847 L 248.67462,465.27731"
       style="fill:none;fill-rule:evenodd;stroke:#6c9eab;stroke-width:0.41966522;stroke-linecap:butt;stroke-linejoin:miter;stroke-miterlimit:4;stroke-dasharray:none;stroke-opacity:1" />
    <path
       id="use14201"
       d="M 220.45698,434.08847 L 251.64582,465.27731"
       style="fill:none;fill-rule:evenodd;stroke:#6c9eab;stroke-width:0.41966522;stroke-linecap:butt;stroke-linejoin:miter;stroke-miterlimit:4;stroke-dasharray:none;stroke-opacity:1" />
    <path
       id="use14203"
       d="M 223.42817,434.08845 L 252.98727,463.64755"
       style="fill:none;fill-rule:evenodd;stroke:#6c9eab;stroke-width:0.41966522;stroke-linecap:butt;stroke-linejoin:miter;stroke-miterlimit:4;stroke-dasharray:none;stroke-opacity:1" />
    <path
       id="use14205"
       d="M 226.39938,434.08848 L 254.82475,462.51385"
       style="fill:none;fill-rule:evenodd;stroke:#6c9eab;stroke-width:0.41966522;stroke-linecap:butt;stroke-linejoin:miter;stroke-miterlimit:4;stroke-dasharray:none;stroke-opacity:1" />
    <path
       id="use14207"
       d="M 229.37059,434.08849 L 256.37879,461.09668"
       style="fill:none;fill-rule:evenodd;stroke:#6c9eab;stroke-width:0.41966525;stroke-linecap:butt;stroke-linejoin:miter;stroke-miterlimit:4;stroke-dasharray:none;stroke-opacity:1" />
    <path
       id="use14209"
       d="M 232.34178,434.08847 L 258.85398,460.60067"
       style="fill:none;fill-rule:evenodd;stroke:#6c9eab;stroke-width:0.41966522;stroke-linecap:butt;stroke-linejoin:miter;stroke-miterlimit:4;stroke-dasharray:none;stroke-opacity:1" />
    <path
       id="use14211"
       d="M 235.31297,434.08847 L 259.98286,458.75834"
       style="fill:none;fill-rule:evenodd;stroke:#6c9eab;stroke-width:0.41966522;stroke-linecap:butt;stroke-linejoin:miter;stroke-miterlimit:4;stroke-dasharray:none;stroke-opacity:1" />
    <path
       id="use14213"
       d="M 238.28417,434.08847 L 260.97003,456.77432"
       style="fill:none;fill-rule:evenodd;stroke:#6c9eab;stroke-width:0.41966522;stroke-linecap:butt;stroke-linejoin:miter;stroke-miterlimit:4;stroke-dasharray:none;stroke-opacity:1" />
    <path
       id="use14215"
       d="M 241.25539,434.08848 L 261.74463,454.57772"
       style="fill:none;fill-rule:evenodd;stroke:#6c9eab;stroke-width:0.41966525;stroke-linecap:butt;stroke-linejoin:miter;stroke-miterlimit:4;stroke-dasharray:none;stroke-opacity:1" />
    <path
       id="use14217"
       d="M 244.22657,434.08846 L 262.66092,452.5228"
       style="fill:none;fill-rule:evenodd;stroke:#6c9eab;stroke-width:0.41966519;stroke-linecap:butt;stroke-linejoin:miter;stroke-miterlimit:4;stroke-dasharray:none;stroke-opacity:1" />
    <path
       id="use14219"
       d="M 247.19776,434.08846 L 263.64809,450.53877"
       style="fill:none;fill-rule:evenodd;stroke:#6c9eab;stroke-width:0.41966519;stroke-linecap:butt;stroke-linejoin:miter;stroke-miterlimit:4;stroke-dasharray:none;stroke-opacity:1" />
    <path
       id="use14221"
       d="M 250.16898,434.08848 L 263.64326,447.56275"
       style="fill:none;fill-rule:evenodd;stroke:#6c9eab;stroke-width:0.41966522;stroke-linecap:butt;stroke-linejoin:miter;stroke-miterlimit:4;stroke-dasharray:none;stroke-opacity:1" />
    <path
       id="use14223"
       d="M 253.14017,434.08847 L 263.42583,444.37412"
       style="fill:none;fill-rule:evenodd;stroke:#6c9eab;stroke-width:0.41966525;stroke-linecap:butt;stroke-linejoin:miter;stroke-miterlimit:4;stroke-dasharray:none;stroke-opacity:1" />
    <path
       id="use14225"
       d="M 256.11138,434.08849 L 262.64154,440.61864"
       style="fill:none;fill-rule:evenodd;stroke:#6c9eab;stroke-width:0.41966528;stroke-linecap:butt;stroke-linejoin:miter;stroke-miterlimit:4;stroke-dasharray:none;stroke-opacity:1" />
    <path
       id="use14227"
       d="M 259.08257,434.08847 L 262.84927,437.85516"
       style="fill:none;fill-rule:evenodd;stroke:#6c9eab;stroke-width:0.41966525;stroke-linecap:butt;stroke-linejoin:miter;stroke-miterlimit:4;stroke-dasharray:none;stroke-opacity:1" />
    <path
       style="fill:none;fill-opacity:1;stroke:#ffffff;stroke-width:5.99521971;stroke-linejoin:miter;stroke-miterlimit:4;stroke-dasharray:none;stroke-opacity:1"
       d="M 133.84636,318.50334 L 263.14831,318.50334 L 263.07483,447.69119 C 263.07483,457.36139 255.30792,465.14642 245.66024,465.14642 L 116.4585,465.14642 L 116.43177,335.95856 C 116.43177,326.28838 124.19868,318.50334 133.84636,318.50334 z"
       id="rect6047"
       sodipodi:nodetypes="ccccccc" />
    <path
       style="opacity:0.5;fill:#ffffff;fill-opacity:1;fill-rule:evenodd;stroke:none;stroke-width:3;stroke-linecap:round;stroke-linejoin:round;stroke-miterlimit:4;stroke-dasharray:none;stroke-dashoffset:0;stroke-opacity:1"
       d="M 46.875,0.09375 C 40.070453,0.5148726 33.644399,2.3101146 27.84375,5.1875 C 28.967219,7.9192418 30.089824,10.72812 31.1875,13.65625 C 36.32429,10.996015 42.09945,9.4065338 48.21875,9.15625 C 47.701342,6.0457704 47.270024,3.0446105 46.875,0.09375 z M 53.1875,0.125 C 52.792491,3.0660943 52.360324,6.0567526 51.84375,9.15625 C 57.959463,9.4434323 63.720616,11.08766 68.84375,13.78125 C 69.953246,10.820832 71.082897,7.9790364 72.21875,5.21875 C 66.422159,2.3332129 59.990101,0.55573958 53.1875,0.125 z M 22.34375,8.34375 C 16.833958,12.013156 12.084914,16.778154 8.40625,22.28125 C 10.747799,24.087074 13.113605,25.979443 15.53125,27.96875 C 18.742082,22.946861 23.003551,18.671271 28.03125,15.46875 C 26.042696,13.050485 24.148844,10.685861 22.34375,8.34375 z M 77.6875,8.375 C 75.868365,10.73298 73.973636,13.127627 71.96875,15.5625 C 76.964256,18.780434 81.19221,23.073647 84.375,28.09375 C 86.833482,26.069597 89.244754,24.147631 91.625,22.3125 C 87.950965,16.806055 83.193945,12.049036 77.6875,8.375 z M 5.25,27.75 C 2.3567513,33.549788 0.55928857,39.972486 0.125,46.78125 C 3.0617329,47.17513 6.0612493,47.641025 9.15625,48.15625 C 9.4114283,42.029771 11.017169,36.264908 13.6875,31.125 C 10.76502,30.028113 7.9766402,28.872512 5.25,27.75 z M 94.78125,27.8125 C 92.001065,28.955528 89.139256,30.071305 86.15625,31.1875 C 88.816538,36.329407 90.410364,42.093591 90.65625,48.21875 C 93.832046,47.688572 96.896138,47.215437 99.90625,46.8125 C 99.477245,40.016025 97.660897,33.605402 94.78125,27.8125 z M 90.65625,51.75 C 90.382029,57.874375 88.749852,63.617301 86.0625,68.75 C 89.087036,69.881771 91.996122,70.996947 94.8125,72.15625 C 97.688919,66.357546 99.484354,59.92702 99.90625,53.125 C 96.896749,52.721171 93.831335,52.281076 90.65625,51.75 z M 9.15625,51.78125 C 6.0502154,52.297317 3.0402946,52.762351 0.09375,53.15625 C 0.52009243,59.961472 2.335759,66.387871 5.21875,72.1875 C 7.9654429,71.057596 10.804692,69.916314 13.75,68.8125 C 11.051713,63.676021 9.4353954,57.913881 9.15625,51.78125 z M 84.28125,71.8125 C 81.090638,76.802766 76.861673,81.054259 71.875,84.25 C 73.921046,86.734019 75.865544,89.189512 77.71875,91.59375 C 83.221846,87.915086 87.986845,83.166043 91.65625,77.65625 C 89.240383,75.793003 86.777603,73.870537 84.28125,71.8125 z M 15.59375,71.9375 C 13.149909,73.94794 10.741154,75.864295 8.375,77.6875 C 12.049036,83.193946 16.806055,87.950964 22.3125,91.625 C 24.154133,89.236319 26.061293,86.811467 28.09375,84.34375 C 23.079797,81.161954 18.808641,76.928282 15.59375,71.9375 z M 68.78125,86.03125 C 63.656229,88.714584 57.895423,90.34715 51.78125,90.625 C 52.311881,93.805355 52.784557,96.892271 53.1875,99.90625 C 59.990957,99.47577 66.421501,97.667115 72.21875,94.78125 C 71.060812,91.966409 69.911648,89.054164 68.78125,86.03125 z M 31.21875,86.125 C 30.096242,89.121217 28.961972,91.990012 27.8125,94.78125 C 33.61418,97.665261 40.035862,99.480722 46.84375,99.90625 C 47.247706,96.891625 47.718233,93.806058 48.25,90.625 C 42.128945,90.379282 36.358066,88.782086 31.21875,86.125 z"
       transform="translate(139.40106,327.07263)"
       id="path2383" />
  </g>
</svg>
