<?xml version="1.0" encoding="UTF-8" standalone="no"?>
<!-- Created with Inkscape (http://www.inkscape.org/) -->
<svg
   xmlns:dc="http://purl.org/dc/elements/1.1/"
   xmlns:cc="http://creativecommons.org/ns#"
   xmlns:rdf="http://www.w3.org/1999/02/22-rdf-syntax-ns#"
   xmlns:svg="http://www.w3.org/2000/svg"
   xmlns="http://www.w3.org/2000/svg"
   xmlns:xlink="http://www.w3.org/1999/xlink"
   xmlns:sodipodi="http://sodipodi.sourceforge.net/DTD/sodipodi-0.dtd"
   xmlns:inkscape="http://www.inkscape.org/namespaces/inkscape"
   width="100"
   height="100"
   id="svg2"
   sodipodi:version="0.32"
   inkscape:version="0.45+devel"
   version="1.0"
   sodipodi:docname="foreground.svg"
   inkscape:output_extension="org.inkscape.output.svg.inkscape">
  <defs
     id="defs4">
    <inkscape:perspective
       sodipodi:type="inkscape:persp3d"
       id="perspective7489"
       inkscape:vp_x="-50 : 600 : 1"
       inkscape:vp_y="0 : 1000 : 0"
       inkscape:vp_z="700 : 600 : 1"
       inkscape:persp3d-origin="300 : 400 : 1" />
    <linearGradient
       id="linearGradient5910">
      <stop
         style="stop-color:#51666d;stop-opacity:1;"
         offset="0"
         id="stop5912" />
      <stop
         style="stop-color:#506c74;stop-opacity:1;"
         offset="1"
         id="stop5914" />
    </linearGradient>
    <linearGradient
       id="linearGradient5838">
      <stop
         style="stop-color:#ffffff;stop-opacity:0.51798558;"
         offset="0"
         id="stop5840" />
      <stop
         id="stop5846"
         offset="0.35524797"
         style="stop-color:#7f7f7f;stop-opacity:0;" />
      <stop
         style="stop-color:#7f7f7f;stop-opacity:0;"
         offset="0.75490195"
         id="stop5848" />
      <stop
         style="stop-color:#000000;stop-opacity:0.22302158;"
         offset="1"
         id="stop5842" />
    </linearGradient>
    <linearGradient
       id="linearGradient5828">
      <stop
         style="stop-color:#3f4d51;stop-opacity:1;"
         offset="0"
         id="stop5830" />
      <stop
         style="stop-color:#6c8c95;stop-opacity:1;"
         offset="1"
         id="stop5832" />
    </linearGradient>
    <linearGradient
       id="linearGradient5724">
      <stop
         style="stop-color:#2d2d2d;stop-opacity:1;"
         offset="0"
         id="stop5726" />
      <stop
         style="stop-color:#5f5f5f;stop-opacity:1;"
         offset="1"
         id="stop5728" />
    </linearGradient>
    <linearGradient
       id="linearGradient5716">
      <stop
         style="stop-color:#393939;stop-opacity:1;"
         offset="0"
         id="stop5718" />
      <stop
         style="stop-color:#414141;stop-opacity:1;"
         offset="1"
         id="stop5720" />
    </linearGradient>
    <linearGradient
       id="linearGradient4425">
      <stop
         style="stop-color:#c7d6dc;stop-opacity:1;"
         offset="0"
         id="stop4427" />
      <stop
         style="stop-color:#9cb2ba;stop-opacity:1;"
         offset="1"
         id="stop4429" />
    </linearGradient>
    <linearGradient
       id="linearGradient4415">
      <stop
         style="stop-color:#68828b;stop-opacity:1;"
         offset="0"
         id="stop4417" />
      <stop
         style="stop-color:#aebec3;stop-opacity:1;"
         offset="1"
         id="stop4419" />
    </linearGradient>
    <linearGradient
       id="linearGradient4403">
      <stop
         style="stop-color:#ffffff;stop-opacity:1;"
         offset="0"
         id="stop4405" />
      <stop
         style="stop-color:#cfd6d8;stop-opacity:1;"
         offset="1"
         id="stop4407" />
    </linearGradient>
    <inkscape:perspective
       sodipodi:type="inkscape:persp3d"
       id="perspective10"
       inkscape:vp_x="-50 : 600 : 1"
       inkscape:vp_y="0 : 1000 : 0"
       inkscape:vp_z="700 : 600 : 1"
       inkscape:persp3d-origin="300 : 400 : 1" />
    <inkscape:perspective
       inkscape:persp3d-origin="300 : 400 : 1"
       inkscape:vp_z="700 : 600 : 1"
       inkscape:vp_y="0 : 1000 : 0"
       inkscape:vp_x="-50 : 600 : 1"
       id="perspective3786"
       sodipodi:type="inkscape:persp3d" />
    <linearGradient
       inkscape:collect="always"
       xlink:href="#linearGradient4425"
       id="linearGradient4442"
       gradientUnits="userSpaceOnUse"
       gradientTransform="translate(-1.8022461e-6,-5.8066406e-6)"
       x1="-106.29137"
       y1="73.79953"
       x2="-18.07708"
       y2="-14.414761" />
    <linearGradient
       inkscape:collect="always"
       xlink:href="#linearGradient4415"
       id="linearGradient4444"
       gradientUnits="userSpaceOnUse"
       gradientTransform="translate(-1.8022461e-6,-5.8066406e-6)"
       x1="-105.6812"
       y1="-13.804583"
       x2="-18.687271"
       y2="73.189346" />
    <linearGradient
       inkscape:collect="always"
       xlink:href="#linearGradient4425"
       id="linearGradient4446"
       gradientUnits="userSpaceOnUse"
       gradientTransform="translate(91.876613,32.491843)"
       x1="-106.29137"
       y1="73.79953"
       x2="-18.07708"
       y2="-14.414761" />
    <linearGradient
       inkscape:collect="always"
       xlink:href="#linearGradient4415"
       id="linearGradient4448"
       gradientUnits="userSpaceOnUse"
       gradientTransform="translate(91.876619,32.491855)"
       x1="-105.6812"
       y1="-13.804583"
       x2="-18.687271"
       y2="73.189346" />
    <radialGradient
       inkscape:collect="always"
       xlink:href="#linearGradient4403"
       id="radialGradient4450"
       gradientUnits="userSpaceOnUse"
       gradientTransform="matrix(1.1886675,-0.639108,0.9382739,1.7450819,75.749166,-29.373847)"
       cx="-62.184231"
       cy="29.692381"
       fx="-62.184231"
       fy="29.692381"
       r="43.096989" />
    <radialGradient
       inkscape:collect="always"
       xlink:href="#linearGradient5716"
       id="radialGradient5722"
       cx="-54.336735"
       cy="49.740177"
       fx="-54.336735"
       fy="49.740177"
       r="0.71436405"
       gradientUnits="userSpaceOnUse" />
    <linearGradient
       inkscape:collect="always"
       xlink:href="#linearGradient5724"
       id="linearGradient5730"
       x1="-55.051099"
       y1="49.740177"
       x2="-53.622371"
       y2="49.740177"
       gradientUnits="userSpaceOnUse" />
    <radialGradient
       inkscape:collect="always"
       xlink:href="#linearGradient5716"
       id="radialGradient5822"
       gradientUnits="userSpaceOnUse"
       cx="-54.336735"
       cy="49.740177"
       fx="-54.336735"
       fy="49.740177"
       r="0.71436405" />
    <linearGradient
       inkscape:collect="always"
       xlink:href="#linearGradient5724"
       id="linearGradient5824"
       gradientUnits="userSpaceOnUse"
       x1="-55.051099"
       y1="49.740177"
       x2="-53.622371"
       y2="49.740177" />
    <filter
       inkscape:collect="always"
       id="filter5894">
      <feGaussianBlur
         inkscape:collect="always"
         stdDeviation="0.10827525"
         id="feGaussianBlur5896" />
    </filter>
    <filter
       inkscape:collect="always"
       id="filter5972"
       x="-0.36123367"
       width="1.7224673"
       y="-0.36123367"
       height="1.7224673">
      <feGaussianBlur
         inkscape:collect="always"
         stdDeviation="2.7405595"
         id="feGaussianBlur5974" />
    </filter>
    <radialGradient
       inkscape:collect="always"
       xlink:href="#linearGradient5838"
       id="radialGradient5982"
       gradientUnits="userSpaceOnUse"
       gradientTransform="matrix(-1.3234661,-5.0293779e-2,6.8019376e-2,-1.7899101,-269.96169,120.03372)"
       cx="-115.17889"
       cy="45.677971"
       fx="-115.17889"
       fy="45.677971"
       r="6.951271" />
    <radialGradient
       inkscape:collect="always"
       xlink:href="#linearGradient5838"
       id="radialGradient5984"
       gradientUnits="userSpaceOnUse"
       gradientTransform="matrix(-1.3234661,-5.0293779e-2,6.8019376e-2,-1.7899101,-269.96169,120.03372)"
       cx="-115.17889"
       cy="45.677971"
       fx="-115.17889"
       fy="45.677971"
       r="6.951271" />
    <linearGradient
       inkscape:collect="always"
       xlink:href="#linearGradient5910"
       id="linearGradient5986"
       gradientUnits="userSpaceOnUse"
       x1="-140.19028"
       y1="53.252094"
       x2="-120.44015"
       y2="33.500614" />
    <linearGradient
       inkscape:collect="always"
       xlink:href="#linearGradient5828"
       id="linearGradient5988"
       gradientUnits="userSpaceOnUse"
       x1="-120.44015"
       y1="53.252094"
       x2="-140.19028"
       y2="33.500614" />
  </defs>
  <sodipodi:namedview
     id="base"
     pagecolor="#ffffff"
     bordercolor="#666666"
     borderopacity="1.0"
     inkscape:pageopacity="0.0"
     inkscape:pageshadow="2"
     inkscape:zoom="2"
     inkscape:cx="112.09803"
     inkscape:cy="43.988461"
     inkscape:document-units="px"
     inkscape:current-layer="layer1"
     showgrid="false"
     inkscape:window-width="1264"
     inkscape:window-height="741"
     inkscape:window-x="8"
     inkscape:window-y="51"
     showguides="true"
     inkscape:guide-bbox="true">
    <sodipodi:guide
       orientation="1,0"
       position="-54.358834,48.802995"
       id="guide5215" />
  </sodipodi:namedview>
  <metadata
     id="metadata7">
    <rdf:RDF>
      <cc:Work
         rdf:about="">
        <dc:format>image/svg+xml</dc:format>
        <dc:type
           rdf:resource="http://purl.org/dc/dcmitype/StillImage" />
        <dc:title></dc:title>
        <dc:date></dc:date>
        <dc:creator>
          <cc:Agent>
            <dc:title></dc:title>
          </cc:Agent>
        </dc:creator>
        <dc:rights>
          <cc:Agent>
            <dc:title></dc:title>
          </cc:Agent>
        </dc:rights>
        <dc:publisher>
          <cc:Agent>
            <dc:title></dc:title>
          </cc:Agent>
        </dc:publisher>
        <dc:identifier></dc:identifier>
        <dc:source></dc:source>
        <dc:relation></dc:relation>
        <dc:language></dc:language>
        <dc:subject>
          <rdf:Bag />
        </dc:subject>
        <dc:coverage></dc:coverage>
        <dc:description></dc:description>
        <dc:contributor>
          <cc:Agent>
            <dc:title></dc:title>
          </cc:Agent>
        </dc:contributor>
        <cc:license
           rdf:resource="" />
      </cc:Work>
    </rdf:RDF>
  </metadata>
  <g
     inkscape:label="Calque 1"
     inkscape:groupmode="layer"
     id="layer1">
    <g
       id="g5990"
       transform="matrix(0.934355,0,0,0.934355,3.2562637,3.2781364)">
      <path
         transform="matrix(1.0445453,0,0,1.0445453,-0.725702,-0.5066739)"
         d="M 57.994625,49.707031 A 9.1040001,9.1040001 0 1 1 39.786625,49.707031 A 9.1040001,9.1040001 0 1 1 57.994625,49.707031 z"
         sodipodi:ry="9.1040001"
         sodipodi:rx="9.1040001"
         sodipodi:cy="49.707031"
         sodipodi:cx="48.890625"
         id="path5930"
         style="opacity:1;fill:#000000;fill-opacity:0.45214521;fill-rule:nonzero;stroke:none;stroke-width:0.27000001;stroke-linecap:butt;stroke-linejoin:round;stroke-miterlimit:4;stroke-dasharray:none;stroke-dashoffset:0;stroke-opacity:1;filter:url(#filter5972)"
         sodipodi:type="arc" />
      <path
         transform="matrix(0.7853016,0,0,0.7853016,152.01251,15.88588)"
         d="M -121.8587,48.255806 L -122.39472,48.3877 L -122.28466,48.928629 L -122.82965,49.016393 L -122.76404,49.564494 L -123.31437,49.607544 L -123.29366,50.159168 L -123.84567,50.157218 L -123.86999,50.708695 L -124.42,50.661758 L -124.48919,51.209417 L -125.03354,51.117805 L -125.14714,51.658003 L -125.68222,51.522325 L -125.83947,52.051467 L -126.36171,51.872627 L -126.56157,52.38719 L -127.06749,52.166378 L -127.30862,52.662939 L -127.79487,52.401623 L -128.07567,52.876877 L -128.539,52.576798 L -128.85761,53.027583 L -129.29493,52.690737 L -129.64922,53.114052 L -130.05764,52.742681 L -130.44525,53.135709 L -130.82204,52.732284 L -131.2404,53.092411 L -131.58305,52.659617 L -132.02937,52.984444 L -132.3356,52.525161 L -132.80692,52.812529 L -133.07469,52.329813 L -133.56786,52.577808 L -133.7954,52.074873 L -134.30715,52.281844 L -134.49293,51.762035 L -135.01985,51.926606 L -135.16265,51.393384 L -135.70122,51.514459 L -135.80008,50.971372 L -136.34673,51.048145 L -136.401,50.498807 L -136.95208,50.530768 L -136.96139,49.978834 L -137.51325,49.96577 L -137.47754,49.414914 L -138.0265,49.356912 L -137.94601,48.810799 L -138.48841,48.708245 L -138.36368,48.170509 L -138.89592,48.024086 L -138.72777,47.498307 L -139.2463,47.308988 L -139.03585,46.798665 L -139.53723,46.56771 L -139.28589,46.076238 L -139.76677,45.805186 L -139.47621,45.335835 L -139.9334,45.026489 L -139.60554,44.582384 L -140.036,44.236801 L -139.67303,43.820897 L -140.07389,43.441378 L -139.67823,43.056443 L -140.04682,42.645514 L -139.6211,42.294109 L -139.95497,41.854504 L -139.50203,41.538968 L -139.79895,41.073613 L -139.32179,40.796046 L -139.5798,40.308037 L -139.08161,40.070286 L -139.29898,39.562871 L -138.78307,39.366518 L -138.95835,38.843075 L -138.42815,38.689426 L -138.56019,38.153437 L -138.01923,38.043516 L -138.10714,37.498548 L -137.55902,37.433086 L -137.60222,36.882766 L -137.05059,36.862199 L -137.04878,36.310189 L -136.49731,36.334653 L -136.45052,35.784627 L -135.90288,35.85396 L -135.81141,35.309578 L -135.27124,35.423317 L -135.13571,34.888202 L -134.60661,35.045592 L -134.42791,34.523305 L -133.9134,34.723298 L -133.69272,34.217315 L -133.19622,34.458579 L -132.93503,33.972267 L -132.45985,34.253198 L -132.1599,33.789793 L -131.7092,34.108521 L -131.37247,33.671107 L -130.94925,34.02551 L -130.57798,33.616999 L -130.18506,34.004719 L -129.78173,33.627828 L -129.42172,34.046286 L -128.98901,33.703524 L -128.6643,34.149934 L -128.2051,33.843582 L -127.91786,34.314973 L -127.43521,34.047069 L -127.18735,34.540305 L -126.68448,34.312633 L -126.47764,34.82443 L -125.95788,34.638504 L -125.79345,35.165458 L -125.26026,35.022516 L -125.13933,35.561119 L -124.59627,35.462113 L -124.51964,36.008781 L -123.97032,35.954368 L -123.9385,36.505463 L -123.38657,36.496006 L -123.39978,37.047861 L -122.84891,37.083423 L -122.90706,37.632365 L -122.36093,37.71271 L -122.46362,38.255085 L -121.92585,38.379678 L -122.07242,38.911878 L -121.5466,39.079888 L -121.73605,39.598371 L -121.22567,39.808683 L -121.45676,40.309998 L -120.96522,40.56121 L -121.2364,41.042022 L -120.76697,41.332463 L -121.07644,41.789571 L -120.63225,42.117309 L -120.97794,42.547671 L -120.56194,42.910524 L -120.94157,43.311277 L -120.55653,43.70683 L -120.96756,44.075307 L -120.61604,44.500928 L -121.05573,44.834676 L -120.74008,45.287533 L -121.20551,45.584332 L -120.92782,46.061411 L -121.41589,46.319284 L -121.17801,46.817411 L -121.68548,47.034644 L -121.48899,47.550502 L -122.01248,47.725648 L -121.8587,48.255806 z"
         inkscape:randomized="0"
         inkscape:rounded="0"
         inkscape:flatsided="false"
         sodipodi:arg2="0.56439868"
         sodipodi:arg1="0.52359878"
         sodipodi:r2="9.3711472"
         sodipodi:r1="9.7616119"
         sodipodi:cy="43.375"
         sodipodi:cx="-130.3125"
         sodipodi:sides="77"
         id="path5826"
         style="fill:url(#linearGradient5986);fill-opacity:1;fill-rule:nonzero;stroke:url(#linearGradient5988);stroke-width:0.23277099;stroke-linecap:butt;stroke-linejoin:round;stroke-miterlimit:4;stroke-dasharray:none;stroke-dashoffset:0;stroke-opacity:1"
         sodipodi:type="star" />
      <path
         transform="matrix(1.0161609,0,0,1.0161609,171.29753,0.6655947)"
         d="M -112.875,48.5 A 6.8125,6.8125 0 1 1 -126.5,48.5 A 6.8125,6.8125 0 1 1 -112.875,48.5 z"
         sodipodi:ry="6.8125"
         sodipodi:rx="6.8125"
         sodipodi:cy="48.5"
         sodipodi:cx="-119.6875"
         id="path5836"
         style="fill:none;fill-opacity:1;fill-rule:nonzero;stroke:url(#radialGradient5984);stroke-width:0.27754191;stroke-linecap:butt;stroke-linejoin:round;stroke-miterlimit:4;stroke-dasharray:none;stroke-dashoffset:0;stroke-opacity:1;filter:url(#filter5894)"
         sodipodi:type="arc" />
      <path
         transform="matrix(1.0445453,0,0,1.0445453,-1.4643071,-1.9838841)"
         d="M 63.374445,49.707031 A 14.48382,14.48382 0 1 1 34.406805,49.707031 A 14.48382,14.48382 0 1 1 63.374445,49.707031 z"
         sodipodi:ry="14.48382"
         sodipodi:rx="14.48382"
         sodipodi:cy="49.707031"
         sodipodi:cx="48.890625"
         id="path5976"
         style="opacity:1;fill:none;fill-opacity:0.45214521;fill-rule:nonzero;stroke:#8d8d8d;stroke-width:0.2;stroke-linecap:butt;stroke-linejoin:round;stroke-miterlimit:4;stroke-dasharray:none;stroke-dashoffset:0;stroke-opacity:1"
         sodipodi:type="arc" />
      <path
         transform="matrix(2.1716807,0,0,2.1716807,309.51478,-55.389147)"
         d="M -112.875,48.5 A 6.8125,6.8125 0 1 1 -126.5,48.5 A 6.8125,6.8125 0 1 1 -112.875,48.5 z"
         sodipodi:ry="6.8125"
         sodipodi:rx="6.8125"
         sodipodi:cy="48.5"
         sodipodi:cx="-119.6875"
         id="path5980"
         style="fill:none;fill-opacity:1;fill-rule:nonzero;stroke:url(#radialGradient5982);stroke-width:0.27754191;stroke-linecap:butt;stroke-linejoin:round;stroke-miterlimit:4;stroke-dasharray:none;stroke-dashoffset:0;stroke-opacity:1;filter:url(#filter5894)"
         sodipodi:type="arc" />
    </g>
  </g>
</svg>
