<?xml version="1.0" encoding="UTF-8" standalone="no"?>
<!-- Created with Inkscape (http://www.inkscape.org/) -->
<svg
   xmlns:dc="http://purl.org/dc/elements/1.1/"
   xmlns:cc="http://creativecommons.org/ns#"
   xmlns:rdf="http://www.w3.org/1999/02/22-rdf-syntax-ns#"
   xmlns:svg="http://www.w3.org/2000/svg"
   xmlns="http://www.w3.org/2000/svg"
   xmlns:xlink="http://www.w3.org/1999/xlink"
   xmlns:sodipodi="http://sodipodi.sourceforge.net/DTD/sodipodi-0.dtd"
   xmlns:inkscape="http://www.inkscape.org/namespaces/inkscape"
   width="16px"
   height="16px"
   id="svg2595"
   sodipodi:version="0.32"
   inkscape:version="0.46"
   sodipodi:docname="play.svg"
   inkscape:output_extension="org.inkscape.output.svg.inkscape">
  <defs
     id="defs2597">
    <linearGradient
       inkscape:collect="always"
       xlink:href="#linearGradient9233"
       id="linearGradient2574"
       gradientUnits="userSpaceOnUse"
       gradientTransform="translate(22.43465,4.820297)"
       x1="-10.638614"
       y1="7.1375623"
       x2="-15.286263"
       y2="-6.2254333" />
    <linearGradient
       id="linearGradient9233">
      <stop
         id="stop9235"
         offset="0"
         style="stop-color:#eeeeec;stop-opacity:1;" />
      <stop
         id="stop9237"
         offset="1"
         style="stop-color:#eeeeec;stop-opacity:0;" />
    </linearGradient>
    <linearGradient
       y2="-6.2254333"
       x2="-15.286263"
       y1="7.1375623"
       x1="-10.638614"
       gradientTransform="translate(22.43465,4.820297)"
       gradientUnits="userSpaceOnUse"
       id="linearGradient2370"
       xlink:href="#linearGradient9233"
       inkscape:collect="always" />
    <inkscape:perspective
       sodipodi:type="inkscape:persp3d"
       inkscape:vp_x="0 : 8 : 1"
       inkscape:vp_y="0 : 1000 : 0"
       inkscape:vp_z="16 : 8 : 1"
       inkscape:persp3d-origin="8 : 5.3333333 : 1"
       id="perspective2603" />
  </defs>
  <sodipodi:namedview
     id="base"
     pagecolor="#ffffff"
     bordercolor="#666666"
     borderopacity="1.0"
     inkscape:pageopacity="0.0"
     inkscape:pageshadow="2"
     inkscape:zoom="22.197802"
     inkscape:cx="8"
     inkscape:cy="8"
     inkscape:current-layer="layer1"
     showgrid="true"
     inkscape:grid-bbox="true"
     inkscape:document-units="px"
     inkscape:window-width="914"
     inkscape:window-height="716"
     inkscape:window-x="0"
     inkscape:window-y="308" />
  <metadata
     id="metadata2600">
    <rdf:RDF>
      <cc:Work
         rdf:about="">
        <dc:format>image/svg+xml</dc:format>
        <dc:type
           rdf:resource="http://purl.org/dc/dcmitype/StillImage" />
      </cc:Work>
    </rdf:RDF>
  </metadata>
  <g
     id="layer1"
     inkscape:label="Layer 1"
     inkscape:groupmode="layer">
    <g
       id="g2582"
       transform="translate(-3.6e-5,-1.04e-4)">
      <g
         id="g2901"
         transform="matrix(1.0592592,0,0,1.0743087,-0.429061,-0.577338)">
        <rect
           transform="matrix(0.963005,-0.269485,0.269485,0.963005,0,0)"
           y="7.4712706"
           x="1.8729681"
           height="3.3571696"
           width="5.4196706"
           id="rect2942"
           style="fill:none;fill-opacity:1;stroke:none;stroke-width:1.55158257;stroke-linecap:round;stroke-linejoin:round;stroke-miterlimit:4;stroke-dasharray:none;stroke-opacity:1" />
        <g
           transform="translate(4.12207e-2,7.47524e-2)"
           id="g2523"
           inkscape:label="Layer 1">
          <path
             style="fill:url(#linearGradient2370);fill-opacity:1;fill-rule:evenodd;stroke:none;stroke-width:1px;stroke-linecap:butt;stroke-linejoin:miter;stroke-opacity:1"
             d="M 7.9427597,0.86404707 C 4.0385897,0.86404707 0.84900969,4.0000455 0.84900969,7.8640471 C 0.84900969,8.0858123 0.86349668,8.4076816 0.88391068,8.6241956 C 1.3397607,8.3659402 1.7383699,8.0386301 2.2682039,7.8091296 C 3.7929949,7.1486588 5.5835057,6.4835094 7.5990097,6.1140471 C 9.6145137,5.7445847 11.805164,5.551547 14.13026,5.551547 C 14.274086,5.551547 14.393542,5.5812424 14.53651,5.582797 C 13.570792,2.8541184 11.028181,0.86404707 7.9427597,0.86404707 z"
             id="path2394"
             sodipodi:nodetypes="cscssscc" />
        </g>
      </g>
      <g
         transform="translate(-89.051122,-11.956218)"
         id="g2271">
        <path
           d="M 104.63502,20.022322 C 104.63502,24.164458 101.2586,27.522322 97.093588,27.522322 C 92.928568,27.522322 89.552158,24.164458 89.552158,20.022322 C 89.552158,15.880186 92.928568,12.522322 97.093588,12.522322 C 101.2586,12.522322 104.63502,15.880186 104.63502,20.022322 L 104.63502,20.022322 z"
           style="fill:#3aba22;fill-opacity:1;fill-rule:evenodd;stroke:none;stroke-width:1px;stroke-linecap:butt;stroke-linejoin:miter;stroke-opacity:1"
           id="path2552" />
        <g
           transform="matrix(1.0592592,0,0,1.0743087,88.68667,11.506921)"
           id="g2554">
          <rect
             style="fill:none;fill-opacity:1;stroke:none;stroke-width:1.55158257;stroke-linecap:round;stroke-linejoin:round;stroke-miterlimit:4;stroke-dasharray:none;stroke-opacity:1"
             id="rect2556"
             width="5.4196706"
             height="3.3571696"
             x="1.8729681"
             y="7.4712706"
             transform="matrix(0.963005,-0.269485,0.269485,0.963005,0,0)" />
          <g
             inkscape:label="Layer 1"
             id="g2558"
             transform="translate(4.12207e-2,7.47524e-2)">
            <path
               sodipodi:nodetypes="cscssscc"
               id="path2560"
               d="M 7.9427597,0.86404707 C 4.0385897,0.86404707 0.84900969,4.0000455 0.84900969,7.8640471 C 0.84900969,8.0858123 0.86349668,8.4076816 0.88391068,8.6241956 C 1.3397607,8.3659402 1.7383699,8.0386301 2.2682039,7.8091296 C 3.7929949,7.1486588 5.5835057,6.4835094 7.5990097,6.1140471 C 9.6145137,5.7445847 11.805164,5.551547 14.13026,5.551547 C 14.274086,5.551547 14.393542,5.5812424 14.53651,5.582797 C 13.570792,2.8541184 11.028181,0.86404707 7.9427597,0.86404707 z"
               style="fill:url(#linearGradient2574);fill-opacity:1;fill-rule:evenodd;stroke:none;stroke-width:1px;stroke-linecap:butt;stroke-linejoin:miter;stroke-opacity:1" />
          </g>
        </g>
        <path
           sodipodi:type="star"
           style="fill:#ffffff;fill-opacity:1;stroke:#ffffff;stroke-width:3;stroke-linecap:round;stroke-linejoin:round;stroke-miterlimit:4;stroke-dasharray:none;stroke-opacity:1"
           id="path3586"
           sodipodi:sides="3"
           sodipodi:cx="101.34259"
           sodipodi:cy="29.101852"
           sodipodi:r1="17.329487"
           sodipodi:r2="8.6647434"
           sodipodi:arg1="0"
           sodipodi:arg2="1.0471976"
           inkscape:flatsided="false"
           inkscape:rounded="0"
           inkscape:randomized="0"
           d="M 118.67208,29.101852 L 105.67496,36.605741 L 92.677847,44.109628 L 92.677847,29.101852 L 92.677847,14.094077 L 105.67496,21.597965 L 118.67208,29.101852 z"
           transform="matrix(0.2537486,0,0,0.2537486,71.090698,12.475372)" />
      </g>
    </g>
  </g>
</svg>
