<?xml version="1.0" encoding="UTF-8" standalone="no"?>
<!-- Created with Sodipodi ("http://www.sodipodi.com/") -->
<svg
   xmlns:dc="http://purl.org/dc/elements/1.1/"
   xmlns:cc="http://creativecommons.org/ns#"
   xmlns:rdf="http://www.w3.org/1999/02/22-rdf-syntax-ns#"
   xmlns:svg="http://www.w3.org/2000/svg"
   xmlns="http://www.w3.org/2000/svg"
   xmlns:xlink="http://www.w3.org/1999/xlink"
   xmlns:sodipodi="http://sodipodi.sourceforge.net/DTD/sodipodi-0.dtd"
   xmlns:inkscape="http://www.inkscape.org/namespaces/inkscape"
   height="48"
   id="svg32"
   sodipodi:docbase="/usr/share/openclipart/svg/buildings/homes"
   sodipodi:docname="logout.svg"
   sodipodi:version="0.32"
   style="fill:#000000;fill-opacity:0.5;stroke:none"
   width="48"
   inkscape:version="0.46"
   inkscape:output_extension="org.inkscape.output.svg.inkscape"
   sodipodi:modified="true"
   version="1.0">
  <metadata
     id="metadata11191">
    <rdf:RDF>
      <cc:Work
         rdf:about="">
        <dc:title>Homes Clipart</dc:title>
        <dc:description />
        <dc:subject>
          <rdf:Bag>
            <rdf:li>house</rdf:li>
            <rdf:li />
            <rdf:li>building</rdf:li>
            <rdf:li>home</rdf:li>
          </rdf:Bag>
        </dc:subject>
        <dc:publisher>
          <cc:Agent
             rdf:about="http://www.openclipart.org">
            <dc:title>Jose Hevia </dc:title>
          </cc:Agent>
        </dc:publisher>
        <dc:creator>
          <cc:Agent>
            <dc:title>Jose Hevia</dc:title>
          </cc:Agent>
        </dc:creator>
        <dc:rights>
          <cc:Agent>
            <dc:title>Jose Hevia </dc:title>
          </cc:Agent>
        </dc:rights>
        <dc:date />
        <dc:format>image/svg+xml</dc:format>
        <dc:type
           rdf:resource="http://purl.org/dc/dcmitype/StillImage" />
        <cc:license
           rdf:resource="http://web.resource.org/cc/PublicDomain" />
        <dc:language>en</dc:language>
      </cc:Work>
      <cc:License
         rdf:about="http://web.resource.org/cc/PublicDomain">
        <cc:permits
           rdf:resource="http://web.resource.org/cc/Reproduction" />
        <cc:permits
           rdf:resource="http://web.resource.org/cc/Distribution" />
        <cc:permits
           rdf:resource="http://web.resource.org/cc/DerivativeWorks" />
      </cc:License>
    </rdf:RDF>
  </metadata>
  <defs
     id="defs34">
    <inkscape:perspective
       sodipodi:type="inkscape:persp3d"
       inkscape:vp_x="0 : 24 : 1"
       inkscape:vp_y="0 : 1000 : 0"
       inkscape:vp_z="48 : 24 : 1"
       inkscape:persp3d-origin="24 : 16 : 1"
       id="perspective75" />
    <linearGradient
       id="linearGradient129">
      <stop
         id="stop130"
         offset="0.000000"
         style="stop-color:#0017a2;stop-opacity:0.164706;" />
      <stop
         id="stop131"
         offset="1"
         style="stop-color:#ffffff;stop-opacity:1;" />
    </linearGradient>
    <linearGradient
       id="linearGradient132"
       x1="165.30552"
       x2="138.25165"
       xlink:href="#linearGradient129"
       y1="346.49676"
       y2="47.618705"
       gradientTransform="matrix(0.107531,0,0,0.1093901,-3.2412703,3.5006618)"
       gradientUnits="userSpaceOnUse" />
    <linearGradient
       id="linearGradient142"
       x1="248.2814"
       x2="333.287"
       xlink:href="#linearGradient129"
       y1="336.28583"
       y2="105.362"
       gradientTransform="matrix(9.4754445e-2,0,0,0.1241402,-3.2412703,3.5006618)"
       gradientUnits="userSpaceOnUse" />
    <linearGradient
       id="linearGradient71"
       x1="107.95786"
       x2="22.310382"
       xlink:href="#linearGradient129"
       y1="560.43691"
       y2="760.15613"
       gradientTransform="matrix(0.1964587,0,0,5.9874415e-2,-3.2412703,3.5006618)"
       gradientUnits="userSpaceOnUse" />
  </defs>
  <sodipodi:namedview
     id="base"
     width="48px"
     height="48px"
     inkscape:zoom="7.4422856"
     inkscape:cx="29.639092"
     inkscape:cy="23.656922"
     inkscape:window-width="910"
     inkscape:window-height="722"
     inkscape:window-x="5"
     inkscape:window-y="54"
     inkscape:current-layer="svg32"
     showgrid="false" />
  <path
     d="M 0.60698626,35.167783 C -0.13418399,35.167783 -1.4297849,39.94971 -0.63119846,40.453039 C -0.72651175,41.975478 14.23093,49.178979 23.401009,44.780498 C 25.035011,46.661605 27.520611,46.532421 28.663463,46.554075 C 30.294014,47.616258 30.776243,47.157071 32.743816,47.015185 C 35.518561,41.86117 39.936244,41.907384 38.400118,41.907384 C 31.267962,35.851585 34.02438,45.348062 31.871492,46.057515 C 31.0674,45.04408 24.552111,42.74263 23.11964,41.942698 C 13.215332,48.753181 3.5079441,40.311147 0.60698626,35.167783 z"
     id="path70"
     style="fill:url(#linearGradient71);fill-opacity:1;fill-rule:evenodd;stroke:none;stroke-width:1px;stroke-linecap:butt;stroke-linejoin:miter;stroke-opacity:1" />
  <path
     d="M 33.124701,39.57592 C 33.300983,39.1315 34.044809,32.679914 34.53952,32.679914 C 38.295603,31.707616 37.746686,40.660607 37.746686,41.35929 C 35.813843,39.872167 32.565896,39.57592 33.124701,39.57592 z"
     id="path133"
     style="fill:#3069bf;fill-opacity:1;fill-rule:evenodd;stroke:none;stroke-width:1px;stroke-linecap:butt;stroke-linejoin:miter;stroke-opacity:1" />
  <path
     d="M 40.083766,30.596159 C 40.185051,30.608807 40.286331,30.621454 40.387499,30.634089"
     id="path57"
     style="fill:none;fill-opacity:1;fill-rule:evenodd;stroke:#000000;stroke-width:0.13414931px;stroke-linecap:butt;stroke-linejoin:miter;stroke-opacity:1" />
  <path
     d="M 0.58607591,34.622215 C 1.269638,24.518131 4.7287124,10.595477 14.587337,10.276256 C 16.330359,10.122148 16.937339,10.369881 19.121128,10.664548 C 33.024604,12.531619 34.903807,28.735648 34.270722,35.579885 C 32.751102,37.390336 32.751102,37.487237 31.231489,38.453129 C 30.724986,34.084646 28.952118,25.167099 25.153139,26.64128 C 20.848035,27.917576 22.620421,40.803924 22.620421,42.284042 C 13.249489,48.988075 2.7690978,39.730137 0.58607591,34.622215 z"
     id="path58"
     style="font-size:12px;fill:#0094de;fill-opacity:1;fill-rule:evenodd;stroke:#00ffff;stroke-width:0.10774192;stroke-opacity:1" />
  <path
     d="M 6.0590853,15.36453 C 4.3918688,18.0238 2.9667724,20.150395 0.65295728,34.515774 C 6.6830313,42.778544 14.404619,50.829327 32.753014,36.409142 C 37.28988,31.098362 31.14214,17.49543 28.351175,15.00794 C 26.651531,12.886476 21.842127,10.410475 15.96309,10.093551 C 12.948726,9.7781956 9.0938849,11.122224 6.0590853,15.36453 z"
     id="path128"
     sodipodi:nodetypes="cccccc"
     style="fill:url(#linearGradient132);fill-opacity:1;fill-rule:evenodd;stroke:none;stroke-width:1px;stroke-linecap:butt;stroke-linejoin:miter;stroke-opacity:1" />
  <path
     d="M 34.111793,44.281039 C 33.890885,37.576883 35.159551,34.49086 35.969117,33.639639 C 37.149684,32.364207 37.325968,38.605435 37.657437,41.443122 C 38.373816,40.875556 38.472756,39.987804 39.064481,39.598792 C 38.726773,28.140883 36.842874,29.842354 35.462511,30.447179 C 32.814825,31.762657 30.98812,39.600607 32.254483,46.090058 C 32.254483,46.302819 33.858548,44.70671 34.111793,44.281039 z"
     id="path62"
     style="fill:#7fb8ff;fill-opacity:1;fill-rule:evenodd;stroke:none;stroke-width:1px;stroke-linecap:butt;stroke-linejoin:miter;stroke-opacity:1" />
  <path
     d="M 22.517731,41.904351 C 24.661788,42.862022 28.286599,44.319384 32.338928,46.196385 C 30.934957,33.13522 34.644217,30.979175 36.925791,30.19883 C 33.430926,28.921825 27.244219,25.445815 24.740773,26.403485 C 21.03152,30.553616 22.011228,36.477326 22.517731,41.904351 z"
     id="path61"
     style="fill:#0093df;fill-opacity:1;fill-rule:evenodd;stroke:none;stroke-width:1px;stroke-linecap:butt;stroke-linejoin:miter;stroke-opacity:1" />
  <path
     d="M 1.4402628,29.276613 C 4.075667,36.244596 15.679047,41.281758 21.926489,38.111175 C 22.953027,37.477091 30.021557,39.582936 31.782335,40.49778 C 32.237016,40.991686 33.689641,39.910275 34.129838,39.358674"
     id="path80"
     style="font-size:12px;fill:none;fill-opacity:1;fill-rule:evenodd;stroke:#00ffff;stroke-width:0.27114165;stroke-dasharray:none;stroke-opacity:1" />
  <path
     d="M 2.2017491,24.995112 C 4.1153003,29.988725 15.482888,35.648243 21.195139,33.745969 C 21.628705,33.745969 21.853746,33.086356 22.208144,33.533201 C 22.67636,33.533201 31.167096,36.299876 32.319073,36.299876 C 33.153972,36.299876 33.944632,36.198142 34.44768,37.230439"
     id="path81"
     style="font-size:12px;fill:none;fill-opacity:1;fill-rule:evenodd;stroke:#00ffff;stroke-width:0.27114165;stroke-dasharray:none;stroke-opacity:1" />
  <path
     d="M 3.6351854,20.976332 C 8.7287392,28.872594 18.914898,30.069161 22.777605,29.355844 C 23.34428,28.602366 33.103871,31.778743 33.858446,32.256182 C 34.229451,32.961522 35.103211,34.25994 35.103211,34.726498"
     id="path82"
     style="font-size:12px;fill:none;fill-opacity:1;fill-rule:evenodd;stroke:#00ffff;stroke-width:0.27114165;stroke-dasharray:none;stroke-opacity:1" />
  <path
     d="M 5.154798,17.783984 C 11.168757,23.937762 18.199573,27.962463 29.392693,22.006829 C 29.661974,21.667401 31.828974,20.578007 31.200108,19.228177"
     id="path83"
     style="font-size:12px;fill:none;fill-opacity:1;fill-rule:evenodd;stroke:#00ffff;stroke-width:0.27114165;stroke-dasharray:none;stroke-opacity:1" />
  <path
     d="M 29.190305,26.797471 C 31.706139,25.925562 33.245904,24.032964 32.491329,22.341295"
     id="path84"
     style="font-size:12px;fill:none;fill-opacity:1;fill-rule:evenodd;stroke:#00ffff;stroke-width:0.27114165;stroke-dasharray:none;stroke-opacity:1" />
  <path
     d="M 7.3731373,14.328669 C 7.9314609,15.200569 7.8644762,15.259363 8.4129241,16.131272 C 12.141273,20.26834 19.939431,22.322786 27.23386,18.555983 C 28.068279,17.900482 29.486641,16.749147 29.024956,16.035703"
     id="path86"
     style="font-size:12px;fill:none;fill-opacity:1;fill-rule:evenodd;stroke:#00ffff;stroke-width:0.27114165;stroke-dasharray:none;stroke-opacity:1" />
  <path
     d="M 10.306319,11.50768 C 10.364185,11.983308 10.586152,12.99311 10.985181,13.389388 C 13.346698,15.591041 19.451636,16.711525 24.608144,14.924898 C 25.646016,14.567693 26.159813,13.865138 25.680758,12.993231"
     id="path87"
     style="font-size:12px;fill:none;fill-opacity:1;fill-rule:evenodd;stroke:#00ffff;stroke-width:0.27114165;stroke-dasharray:none;stroke-opacity:1" />
  <path
     d="M 2.3904169,37.255479 C 2.3275593,35.041123 3.0299313,33.786853 3.3242565,32.543828"
     id="path88"
     style="font-size:12px;fill:none;fill-opacity:1;fill-rule:evenodd;stroke:#00ffff;stroke-width:0.27114165;stroke-dasharray:none;stroke-opacity:1" />
  <path
     d="M 6.154997,29.647971 C 5.5734481,30.916147 5.247933,32.673508 5.1222188,34.192201"
     id="path89"
     style="font-size:12px;fill:none;fill-opacity:1;fill-rule:evenodd;stroke:#00ffff;stroke-width:0.27114165;stroke-dasharray:none;stroke-opacity:1" />
  <path
     d="M 8.3500682,36.508536 C 7.9098745,37.855102 7.6350304,39.025908 7.6979783,41.81278"
     id="path90"
     style="font-size:12px;fill:none;fill-opacity:1;fill-rule:evenodd;stroke:#00ffff;stroke-width:0.27114165;stroke-dasharray:none;stroke-opacity:1" />
  <path
     d="M 15.835085,39.037276 C 15.646415,40.654073 15.958973,42.877016 15.732693,44.303782"
     id="path91"
     style="font-size:12px;fill:none;fill-opacity:1;fill-rule:evenodd;stroke:#00ffff;stroke-width:0.27114165;stroke-dasharray:none;stroke-opacity:1" />
  <path
     d="M 18.708956,24.986273 C 18.520296,26.064425 18.705503,27.636586 18.516935,29.217944"
     id="path98"
     style="font-size:12px;fill:none;fill-opacity:1;fill-rule:evenodd;stroke:#00ffff;stroke-width:0.27114165;stroke-dasharray:none;stroke-opacity:1" />
  <path
     d="M 12.677048,23.575718 C 11.983802,24.289164 11.93198,25.490452 11.743311,27.531592"
     id="path99"
     style="font-size:12px;fill:none;fill-opacity:1;fill-rule:evenodd;stroke:#00ffff;stroke-width:0.27114165;stroke-dasharray:none;stroke-opacity:1" />
  <path
     d="M 7.0819728,19.80795 C 6.5596395,20.521269 6.2738538,21.777481 5.7707998,23.600883"
     id="path100"
     style="font-size:12px;fill:none;fill-opacity:1;fill-rule:evenodd;stroke:#00ffff;stroke-width:0.27114165;stroke-dasharray:none;stroke-opacity:1" />
  <path
     d="M 8.790232,26.179628 C 8.0151142,27.553051 7.3567954,28.101742 7.6083206,30.436215"
     id="path101"
     style="font-size:12px;fill:none;fill-opacity:1;fill-rule:evenodd;stroke:#00ffff;stroke-width:0.27114165;stroke-dasharray:none;stroke-opacity:1" />
  <path
     d="M 4.9428307,22.887462 C 3.8738709,23.813318 3.3639113,26.373506 3.3639113,26.901765"
     id="path102"
     style="font-size:12px;fill:none;fill-opacity:1;fill-rule:evenodd;stroke:#00ffff;stroke-width:0.27114165;stroke-dasharray:none;stroke-opacity:1" />
  <path
     d="M 15.686075,28.896531 C 15.342721,29.609851 15.659303,31.8888 15.093398,33.574314"
     id="path103"
     style="font-size:12px;fill:none;fill-opacity:1;fill-rule:evenodd;stroke:#00ffff;stroke-width:0.27114165;stroke-dasharray:none;stroke-opacity:1" />
  <path
     d="M 12.001711,32.890295 C 11.813041,33.572764 10.886198,35.632777 11.074869,37.647305"
     id="path104"
     style="font-size:12px;fill:none;fill-opacity:1;fill-rule:evenodd;stroke:#00ffff;stroke-width:0.27114165;stroke-dasharray:none;stroke-opacity:1" />
  <path
     d="M 18.304948,34.063015 C 18.304948,35.059631 18.344577,37.622852 18.093052,38.824498"
     id="path105"
     style="font-size:12px;fill:none;fill-opacity:1;fill-rule:evenodd;stroke:#00ffff;stroke-width:0.27114165;stroke-dasharray:none;stroke-opacity:1" />
  <path
     d="M 28.47872,17.758955 C 29.389435,17.838186 30.521247,20.344908 30.521247,20.763565"
     id="path108"
     style="font-size:12px;fill:none;fill-opacity:1;fill-rule:evenodd;stroke:#00ffff;stroke-width:0.27114165;stroke-dasharray:none;stroke-opacity:1" />
  <path
     d="M 25.67125,19.273781 C 25.85992,20.247536 26.869482,21.798767 26.743668,23.104568"
     id="path109"
     style="font-size:12px;fill:none;fill-opacity:1;fill-rule:evenodd;stroke:#00ffff;stroke-width:0.27114165;stroke-dasharray:none;stroke-opacity:1" />
  <path
     d="M 24.353166,15.067032 C 25.081544,15.62189 26.515463,17.728347 26.515463,18.626501"
     id="path110"
     style="font-size:12px;fill:none;fill-opacity:1;fill-rule:evenodd;stroke:#00ffff;stroke-width:0.27114165;stroke-dasharray:none;stroke-opacity:1" />
  <path
     d="M 17.987011,10.527151 C 18.951373,10.844194 20.063225,12.292854 21.069325,13.126775 C 19.423614,13.033876 16.399547,12.560304 15.644971,12.367851"
     id="path111"
     style="font-size:12px;fill:none;fill-opacity:1;fill-rule:evenodd;stroke:#00ffff;stroke-width:0.27114165;stroke-dasharray:none;stroke-opacity:1" />
  <path
     d="M 17.944022,10.606381 C 17.090978,10.606381 14.995288,10.798712 14.573996,10.798712 C 14.527074,11.254262 15.301904,11.449617 15.679231,12.284144"
     id="path112"
     style="font-size:12px;fill:none;fill-opacity:1;fill-rule:evenodd;stroke:#00ffff;stroke-width:0.27114165;stroke-dasharray:none;stroke-opacity:1" />
  <path
     d="M 14.352705,10.790002 C 12.942495,10.869235 11.570951,11.269865 10.458811,11.903956"
     id="path113"
     style="font-size:12px;fill:none;fill-opacity:1;fill-rule:evenodd;stroke:#00ffff;stroke-width:0.27114165;stroke-dasharray:none;stroke-opacity:1" />
  <path
     d="M 17.814756,15.859698 C 17.987493,16.949458 17.924156,19.240026 17.861198,20.220441"
     id="path114"
     style="font-size:12px;fill:none;fill-opacity:1;fill-rule:evenodd;stroke:#00ffff;stroke-width:0.27114165;stroke-dasharray:none;stroke-opacity:1" />
  <path
     d="M 20.731626,20.462726 C 21.046099,21.283589 21.345613,23.682652 21.297624,24.615043"
     id="path115"
     style="font-size:12px;fill:none;fill-opacity:1;fill-rule:evenodd;stroke:#00ffff;stroke-width:0.27114165;stroke-dasharray:none;stroke-opacity:1" />
  <path
     d="M 15.265717,20.007777 C 15.265717,21.071901 14.951334,22.816439 14.82552,23.972125"
     id="path116"
     style="font-size:12px;fill:none;fill-opacity:1;fill-rule:evenodd;stroke:#00ffff;stroke-width:0.27114165;stroke-dasharray:none;stroke-opacity:1" />
  <path
     d="M 11.200621,18.522229 C 9.9092164,19.552712 9.8661243,20.359064 9.5517437,21.447608"
     id="path117"
     style="font-size:12px;fill:none;fill-opacity:1;fill-rule:evenodd;stroke:#00ffff;stroke-width:0.27114165;stroke-dasharray:none;stroke-opacity:1" />
  <path
     d="M 10.793058,13.339551 C 9.8590239,14.052872 9.3166305,15.388434 8.7506232,16.393993"
     id="path118"
     style="font-size:12px;fill:none;fill-opacity:1;fill-rule:evenodd;stroke:#00ffff;stroke-width:0.27114165;stroke-dasharray:none;stroke-opacity:1" />
  <path
     d="M 7.7306102,15.0715 C 6.9659526,15.0715 6.1912247,17.660609 6.0654107,18.581023"
     id="path119"
     style="font-size:12px;fill:none;fill-opacity:1;fill-rule:evenodd;stroke:#00ffff;stroke-width:0.27114165;stroke-dasharray:none;stroke-opacity:1" />
  <path
     d="M 36.262847,33.668136 C 36.262847,32.589913 36.879308,29.933357 37.128728,29.933357"
     id="path120"
     style="font-size:12px;fill:none;fill-opacity:1;fill-rule:evenodd;stroke:#00ffff;stroke-width:0.29669967;stroke-dasharray:none;stroke-opacity:1" />
  <path
     d="M 36.979877,36.787803 C 37.3565,36.051911 38.030333,35.28583 38.453687,35.000519"
     id="path121"
     style="font-size:12px;fill:none;fill-opacity:1;fill-rule:evenodd;stroke:#00ffff;stroke-width:0.29669967;stroke-dasharray:none;stroke-opacity:1" />
  <path
     d="M 37.3565,40.427392 C 38.218449,39.951976 38.767481,38.925696 38.767481,38.480044"
     id="path122"
     style="font-size:12px;fill:none;fill-opacity:1;fill-rule:evenodd;stroke:#00ffff;stroke-width:0.29669967;stroke-dasharray:none;stroke-opacity:1" />
  <path
     d="M 15.800342,12.34886 C 14.542718,13.25306 14.434464,14.568177 14.165378,15.123038"
     id="path124"
     style="font-size:12px;fill:none;fill-opacity:1;fill-rule:evenodd;stroke:#00ffff;stroke-width:0.27114165;stroke-dasharray:none;stroke-opacity:1" />
  <path
     d="M 20.956758,13.062181 C 21.368829,13.696272 22.088674,13.615106 22.528867,15.281499"
     id="path125"
     style="font-size:12px;fill:none;fill-opacity:1;fill-rule:evenodd;stroke:#00ffff;stroke-width:0.27114165;stroke-dasharray:none;stroke-opacity:1" />
  <path
     d="M 19.070271,11.159789 C 19.573321,11.159789 20.977681,11.001325 23.849349,12.031693"
     id="path126"
     style="font-size:12px;fill:none;fill-opacity:1;fill-rule:evenodd;stroke:#00ffff;stroke-width:0.27114165;stroke-dasharray:none;stroke-opacity:1" />
  <path
     d="M 16.743587,10.60505 C 16.303394,10.172364 16.323166,10.446588 15.863301,10.208773"
     id="path127"
     style="font-size:12px;fill:none;fill-opacity:1;fill-rule:evenodd;stroke:#00ffff;stroke-width:0.27114165;stroke-dasharray:none;stroke-opacity:1" />
  <path
     d="M 37.239168,40.312891 C 36.788512,39.971428 35.018732,40.170237 34.41473,39.456976"
     id="path134"
     style="font-size:12px;fill:none;fill-opacity:1;fill-rule:evenodd;stroke:#00ffff;stroke-width:0.29669967;stroke-dasharray:none;stroke-opacity:1" />
  <path
     d="M 36.768398,36.889536 C 35.638638,37.008677 35.819953,37.03219 34.979649,36.889536"
     id="path135"
     style="font-size:12px;fill:none;fill-opacity:1;fill-rule:evenodd;stroke:#00ffff;stroke-width:0.29669967;stroke-dasharray:none;stroke-opacity:1" />
  <path
     d="M 22.686031,41.755638 C 20.516534,30.41471 24.34661,26.346344 25.389952,26.378397 C 26.930678,25.982243 33.72206,28.69388 36.929122,30.064271 C 32.841854,31.392093 31.269561,37.858684 32.244279,45.837681 C 31.979223,46.171776 23.128142,42.112368 22.686031,41.755638 z"
     id="path141"
     style="fill:url(#linearGradient142);fill-opacity:1;fill-rule:evenodd;stroke:none;stroke-width:1px;stroke-linecap:butt;stroke-linejoin:miter;stroke-opacity:1" />
  <path
     d="M 32.630093,28.183225 C 33.159626,28.183225 34.037043,27.448848 33.56729,26.217926"
     id="path85"
     style="font-size:12px;fill:none;fill-opacity:1;fill-rule:evenodd;stroke:#00ffff;stroke-width:0.27114165;stroke-dasharray:none;stroke-opacity:1" />
  <path
     d="M 24.065465,38.185932 C 23.688125,39.667381 23.790622,41.353362 23.790622,42.166719"
     id="path92"
     style="font-size:12px;fill:none;fill-opacity:1;fill-rule:evenodd;stroke:#00ffff;stroke-width:0.27114165;stroke-dasharray:none;stroke-opacity:1" />
  <path
     d="M 29.111035,39.462945 C 28.54513,40.774915 28.7931,43.677915 28.7931,44.600143"
     id="path93"
     style="font-size:12px;fill:none;fill-opacity:1;fill-rule:evenodd;stroke:#00ffff;stroke-width:0.27114165;stroke-dasharray:none;stroke-opacity:1" />
  <path
     d="M 26.916018,34.835119 C 26.224297,35.581839 26.197618,37.650545 26.197618,38.557412"
     id="path94"
     style="font-size:12px;fill:none;fill-opacity:1;fill-rule:evenodd;stroke:#00ffff;stroke-width:0.27114165;stroke-dasharray:none;stroke-opacity:1" />
  <path
     d="M 31.663528,31.404838 C 31.041387,31.404838 29.766579,34.156152 29.892392,35.602755"
     id="path95"
     style="font-size:12px;fill:none;fill-opacity:1;fill-rule:evenodd;stroke:#00ffff;stroke-width:0.27114165;stroke-dasharray:none;stroke-opacity:1" />
  <path
     d="M 25.032028,29.468818 C 24.340309,30.488786 24.00261,32.940833 24.00261,33.925119"
     id="path96"
     style="font-size:12px;fill:none;fill-opacity:1;fill-rule:evenodd;stroke:#00ffff;stroke-width:0.27114165;stroke-dasharray:none;stroke-opacity:1" />
  <path
     d="M 30.752916,27.603323 C 29.180808,27.360912 28.214911,30.290771 28.137568,30.290771"
     id="path97"
     style="font-size:12px;fill:none;fill-opacity:1;fill-rule:evenodd;stroke:#00ffff;stroke-width:0.27114165;stroke-dasharray:none;stroke-opacity:1" />
  <path
     d="M 23.727756,23.985305 C 23.727756,25.055837 23.896661,26.340581 23.896661,27.411111"
     id="path106"
     style="font-size:12px;fill:none;fill-opacity:1;fill-rule:evenodd;stroke:#00ffff;stroke-width:0.27114165;stroke-dasharray:none;stroke-opacity:1" />
  <path
     d="M 28.455401,22.599791 C 29.147123,23.338024 30.305804,25.728144 30.305804,26.45127"
     id="path107"
     style="font-size:12px;fill:none;fill-opacity:1;fill-rule:evenodd;stroke:#00ffff;stroke-width:0.27114165;stroke-dasharray:none;stroke-opacity:1" />
  <path
     d="M 32.291319,24.502147 C 32.983038,25.240383 33.450004,27.075643 33.450004,27.798768"
     id="path123"
     style="font-size:12px;fill:none;fill-opacity:1;fill-rule:evenodd;stroke:#00ffff;stroke-width:0.27114165;stroke-dasharray:none;stroke-opacity:1" />
  <path
     d="M 22.277342,38.030374 C 22.277342,37.256201 22.277342,34.18591 22.277342,33.393359"
     id="path136"
     style="font-size:12px;fill:none;fill-opacity:1;fill-rule:evenodd;stroke:#00ffff;stroke-width:0.27114165;stroke-dasharray:none;stroke-opacity:1" />
  <path
     d="M 23.126247,28.875375 C 23.880821,26.988823 24.524941,26.021843 26.804987,26.140754"
     id="path140"
     style="font-size:12px;fill:none;fill-opacity:1;fill-rule:evenodd;stroke:#00ffff;stroke-width:0.27114165;stroke-dasharray:none;stroke-opacity:1" />
  <use
     height="1052.3622"
     id="use1503"
     transform="translate(-0.2756084,-5.7640485e-2)"
     width="744.09448"
     x="0"
     xlink:href="#rect899"
     y="0" />
  <path
     d="M 42.059974,32.036246 L 41.096105,37.14411 L 47.894634,37.024894 L 47.484384,43.956114 L 40.815733,41.881039 L 41.182732,46.85733 L 35.037432,38.653028 L 42.059974,32.036246 z"
     id="rect899"
     style="fill:#ff4361;fill-opacity:0.75;fill-rule:evenodd;stroke:#000000;stroke-width:0.52822536;stroke-linecap:round;stroke-linejoin:round;stroke-miterlimit:4;stroke-opacity:1" />
</svg>
