<?xml version="1.0" encoding="UTF-8" standalone="no"?>
<!-- Created with Inkscape (http://www.inkscape.org/) -->
<svg
   xmlns:dc="http://purl.org/dc/elements/1.1/"
   xmlns:cc="http://creativecommons.org/ns#"
   xmlns:rdf="http://www.w3.org/1999/02/22-rdf-syntax-ns#"
   xmlns:svg="http://www.w3.org/2000/svg"
   xmlns="http://www.w3.org/2000/svg"
   xmlns:xlink="http://www.w3.org/1999/xlink"
   xmlns:sodipodi="http://sodipodi.sourceforge.net/DTD/sodipodi-0.dtd"
   xmlns:inkscape="http://www.inkscape.org/namespaces/inkscape"
   id="svg2"
   sodipodi:version="0.32"
   inkscape:version="0.46"
   width="76"
   height="50"
   version="1.0"
   sodipodi:docname="hand.svg"
   inkscape:output_extension="org.inkscape.output.svg.inkscape">
  <metadata
     id="metadata7">
    <rdf:RDF>
      <cc:Work
         rdf:about="">
        <dc:format>image/svg+xml</dc:format>
        <dc:type
           rdf:resource="http://purl.org/dc/dcmitype/StillImage" />
      </cc:Work>
    </rdf:RDF>
  </metadata>
  <defs
     id="defs5">
    <linearGradient
       inkscape:collect="always"
       id="linearGradient3211">
      <stop
         style="stop-color:#ffe6d5;stop-opacity:1;"
         offset="0"
         id="stop3213" />
      <stop
         style="stop-color:#ffe6d5;stop-opacity:0;"
         offset="1"
         id="stop3215" />
    </linearGradient>
    <inkscape:perspective
       sodipodi:type="inkscape:persp3d"
       inkscape:vp_x="0 : 526.18109 : 1"
       inkscape:vp_y="0 : 1000 : 0"
       inkscape:vp_z="744.09448 : 526.18109 : 1"
       inkscape:persp3d-origin="372.04724 : 350.78739 : 1"
       id="perspective9" />
    <linearGradient
       inkscape:collect="always"
       xlink:href="#linearGradient3211"
       id="linearGradient3217"
       x1="26.029411"
       y1="44.264706"
       x2="72.352943"
       y2="0.69580883"
       gradientUnits="userSpaceOnUse" />
  </defs>
  <sodipodi:namedview
     inkscape:window-height="722"
     inkscape:window-width="1242"
     inkscape:pageshadow="2"
     inkscape:pageopacity="0.0"
     guidetolerance="10.0"
     gridtolerance="10.0"
     objecttolerance="10.0"
     borderopacity="1.0"
     bordercolor="#666666"
     pagecolor="#ffffff"
     id="base"
     showgrid="false"
     inkscape:zoom="9.0666667"
     inkscape:cx="41.428974"
     inkscape:cy="31.002678"
     inkscape:window-x="5"
     inkscape:window-y="22"
     inkscape:current-layer="svg2" />
  <path
     style="fill:#000000"
     d="M 54.997456,42.433688 C 52.702958,43.760615 51.599435,47.691306 48.643502,47.367437 C 46.385965,45.481712 47.761893,41.99992 49.333508,40.090409 C 51.258173,37.950487 52.22028,34.921571 51.69981,32.112151 C 50.478375,29.711133 48.887109,27.200382 46.79185,25.44816 C 44.246489,25.40408 41.419202,25.679386 38.927052,26.450333 C 36.719777,27.79998 33.800125,28.004873 32.22443,30.262457 C 29.993497,32.023415 28.847269,34.576078 27.543523,36.969885 C 26.60568,39.247619 23.820718,38.36833 24.379055,36.037347 C 23.513621,35.172691 21.760455,38.962963 21.455775,36.324308 C 21.02971,35.191398 22.537985,32.684162 20.374549,33.971014 C 17.011674,33.150846 20.215445,29.309564 21.18322,27.564386 C 23.007285,24.793755 25.407903,22.428458 27.679802,20.025429 C 29.656772,19.186653 26.309618,21.122959 26.128368,21.898245 C 23.968409,24.233558 21.796961,26.629906 20.363968,29.477322 C 18.058434,30.822434 19.586815,35.687439 21.918727,32.709784 C 23.18075,30.477809 23.814974,27.956877 25.339575,25.850591 C 25.685824,24.969578 27.508377,22.048249 26.322391,24.360305 C 24.407324,27.865043 21.482986,31.173709 21.575123,35.376586 C 20.914142,38.30945 23.986019,36.451206 24.363107,34.81815 C 25.355977,31.495229 26.299792,27.9226 28.952859,25.431728 C 31.323697,22.998436 34.64039,21.908879 37.610835,20.40814 C 38.508317,19.620345 41.07537,18.460511 38.93461,19.945295 C 36.160078,21.781589 32.889492,22.809816 30.191754,24.753832 C 28.735102,26.324078 27.172255,27.992244 26.300623,30.042228 C 25.362174,32.157661 24.596964,34.412794 24.596208,36.71132 C 25.01396,40.011332 27.893476,36.355404 28.270035,34.886448 C 29.323296,32.153488 31.629131,30.235148 33.825294,28.38385 C 36.060233,27.204546 38.442332,26.169411 40.901829,25.483095 C 43.385892,25.55422 46.623979,23.913295 48.465276,26.321795 C 49.511885,28.90423 52.915652,30.954812 52.16004,33.960282 C 52.163366,36.880356 50.523045,39.057049 48.835864,41.256931 C 47.506949,42.811932 47.113384,48.363768 50.372936,46.69679 C 52.085287,44.731656 54.117131,43.019916 55.669774,40.921997 C 56.699755,39.137161 56.870045,37.038062 57.773877,35.184634 C 58.641353,32.731856 59.974575,30.488822 61.568789,28.427674 C 63.072529,26.332762 63.715294,23.827908 64.8003,21.545064 C 67.455106,16.823774 70.297511,12.159065 73.767488,7.9644585 C 74.355758,7.1510782 76.413754,5.8799782 74.76134,7.4289021 C 70.840505,11.673069 68.001955,16.704132 65.098932,21.630051 C 63.955499,23.6225 63.75301,25.989809 62.296283,27.831023 C 60.628225,30.223659 58.929477,32.62866 58.047037,35.425942 C 57.113804,37.531625 56.8383,39.926203 55.554055,41.864792 C 55.389812,42.072889 55.204859,42.266051 54.997456,42.433688 z M 62.790828,2.0421111 C 61.745202,3.4001635 59.927789,5.9625609 59.085181,6.3318334 C 60.870017,4.3324447 62.390915,2.1287832 63.998884,-0.0044490728 C 63.715521,0.73900088 63.235337,1.3858925 62.790828,2.0421111 z M 58.087248,7.5639471 C 56.929832,8.6210324 55.82835,12.002358 55.209469,11.893865 C 55.961074,10.630565 57.688467,6.9912638 58.26502,7.3721763 C 58.205763,7.436098 58.146505,7.5000187 58.087248,7.5639471 z M 30.441785,21.145551 C 29.537274,21.382915 26.049306,23.007445 28.516816,21.625183 C 29.564634,21.204347 31.886418,20.421836 32.191853,20.543133 C 31.612578,20.75516 31.027031,20.95003 30.441785,21.145551 z M 54.954827,12.22942 L 54.939332,12.255752 L 54.954827,12.22942 z M 42.407686,14.880128 C 41.298645,15.041372 40.189528,15.202623 39.080487,15.363865 M 28.427099,19.74657 C 32.340148,19.162081 35.388746,16.430111 39.128407,15.368695 M 42.356214,14.886183 C 46.618083,14.423859 51.000584,14.241248 54.943792,12.410397"
     id="path2384" />
  <path
     style="opacity:0.80000000000000004;fill:url(#linearGradient3217);fill-opacity:1;stroke:#000818;stroke-width:0.088;stroke-miterlimit:4;stroke-dasharray:none;stroke-opacity:0"
     d="M 47.635264,45.627901 C 47.557274,44.29487 47.688764,42.58022 48.220713,42.102707 C 49.790774,39.898535 51.241613,39.270866 51.686962,35.39028 C 52.354037,30.687228 51.874796,32.219074 49.453261,28.185898 C 47.575489,26.239857 47.653011,25.360142 45.918158,25.141025 C 45.04661,25.030947 44.754673,25.033283 44.328127,25.153751 C 40.306245,25.922423 40.1858,25.833803 35.773735,27.436489 C 34.509825,28.149363 31.80232,29.587795 31.121828,30.944868 C 29.430402,33.556106 27.764417,35.750857 25.790656,38.190532 C 23.889461,38.094635 24.357624,35.584269 24.238936,35.584269 L 23.751119,35.717774 C 22.935874,37.246732 20.121443,38.341425 21.646094,33.268092 C 14.508497,34.816109 25.404382,22.087076 28.413641,20.070645 C 33.628382,16.827683 39.89853,15.154333 46.018028,14.562548 C 47.885348,14.282578 53.509051,13.20532 54.962488,12.525339 C 55.460612,12.292293 57.404465,7.8998023 57.742645,7.9931773 L 63.766726,0.75830882 L 65.118103,1.789445 C 65.346623,1.9276237 66.58647,2.8467347 66.92011,3.069348 C 70.433045,4.092545 70.523636,2.8865434 72.25857,3.1983674 C 73.981582,3.5080487 74.210763,4.3088675 74.406133,6.4665762 L 74.619603,7.1282968 C 69.698856,13.387025 66.483739,18.453306 63.725912,25.165394 C 62.459536,27.35128 60.652466,29.013998 59.523063,31.282798 C 58.612168,32.801483 58.288746,34.368161 57.868412,36.074823 C 56.572404,39.704181 55.736106,41.488109 52.74228,44.436229 C 51.609913,46.269661 50.960671,47.060401 49.273048,47.100227 C 47.585464,47.140053 47.635264,45.627901 47.635264,45.627901 z M 29.167574,22.306167 C 36.166303,19.353185 24.095633,24.203197 29.167574,22.306166 L 29.167574,22.306167 z"
     id="path2439"
     sodipodi:nodetypes="ccccscccccccccscccczcccccczcccc" />
</svg>
