<?xml version="1.0" encoding="UTF-8" standalone="no"?>
<!-- Created with Inkscape (http://www.inkscape.org/) -->
<svg
   xmlns:dc="http://purl.org/dc/elements/1.1/"
   xmlns:cc="http://creativecommons.org/ns#"
   xmlns:rdf="http://www.w3.org/1999/02/22-rdf-syntax-ns#"
   xmlns:svg="http://www.w3.org/2000/svg"
   xmlns="http://www.w3.org/2000/svg"
   xmlns:xlink="http://www.w3.org/1999/xlink"
   xmlns:sodipodi="http://sodipodi.sourceforge.net/DTD/sodipodi-0.dtd"
   xmlns:inkscape="http://www.inkscape.org/namespaces/inkscape"
   id="svg2"
   sodipodi:version="0.32"
   inkscape:version="0.46"
   width="80"
   height="50"
   version="1.0"
   sodipodi:docname="hand.svg"
   inkscape:output_extension="org.inkscape.output.svg.inkscape">
  <metadata
     id="metadata7">
    <rdf:RDF>
      <cc:Work
         rdf:about="">
        <dc:format>image/svg+xml</dc:format>
        <dc:type
           rdf:resource="http://purl.org/dc/dcmitype/StillImage" />
      </cc:Work>
    </rdf:RDF>
  </metadata>
  <defs
     id="defs5">
    <linearGradient
       inkscape:collect="always"
       id="linearGradient3211">
      <stop
         style="stop-color:#ffe6d5;stop-opacity:1;"
         offset="0"
         id="stop3213" />
      <stop
         style="stop-color:#ffe6d5;stop-opacity:0;"
         offset="1"
         id="stop3215" />
    </linearGradient>
    <inkscape:perspective
       sodipodi:type="inkscape:persp3d"
       inkscape:vp_x="0 : 526.18109 : 1"
       inkscape:vp_y="0 : 1000 : 0"
       inkscape:vp_z="744.09448 : 526.18109 : 1"
       inkscape:persp3d-origin="372.04724 : 350.78739 : 1"
       id="perspective9" />
    <linearGradient
       inkscape:collect="always"
       xlink:href="#linearGradient3211"
       id="linearGradient3217"
       x1="26.029411"
       y1="44.264706"
       x2="72.352943"
       y2="0.69580883"
       gradientUnits="userSpaceOnUse"
       gradientTransform="translate(4.5220588,0.1102941)" />
  </defs>
  <sodipodi:namedview
     inkscape:window-height="726"
     inkscape:window-width="1242"
     inkscape:pageshadow="2"
     inkscape:pageopacity="0.0"
     guidetolerance="10.0"
     gridtolerance="10.0"
     objecttolerance="10.0"
     borderopacity="1.0"
     bordercolor="#666666"
     pagecolor="#ffffff"
     id="base"
     showgrid="false"
     inkscape:zoom="9.0666667"
     inkscape:cx="51.753585"
     inkscape:cy="25.487972"
     inkscape:window-x="5"
     inkscape:window-y="22"
     inkscape:current-layer="svg2" />
  <path
     style="fill:#000000"
     d="M 59.519515,42.543982 C 57.225017,43.870909 56.121494,47.8016 53.165561,47.477731 C 50.908024,45.592006 52.283952,42.110214 53.855567,40.200703 C 55.780232,38.060781 56.742339,35.031865 56.221869,32.222445 C 55.000434,29.821427 53.409168,27.310676 51.313909,25.558454 C 48.768548,25.514374 45.941261,25.78968 43.449111,26.560627 C 41.241836,27.910274 38.322184,28.115167 36.746489,30.372751 C 34.515556,32.133709 33.369328,34.686372 32.065582,37.080179 C 31.127739,39.357913 28.342777,38.478624 28.901114,36.147641 C 28.03568,35.282985 26.282514,39.073257 25.977834,36.434602 C 25.551769,35.301692 27.060044,32.794456 24.896608,34.081308 C 21.533733,33.26114 24.737504,29.419858 25.705279,27.67468 C 27.529344,24.904049 29.929962,22.538752 32.201861,20.135723 C 34.178831,19.296947 30.831677,21.233253 30.650427,22.008539 C 28.490468,24.343852 26.31902,26.7402 24.886027,29.587616 C 22.580493,30.932728 24.108874,35.797733 26.440786,32.820078 C 27.702809,30.588103 28.337033,28.067171 29.861634,25.960885 C 30.207883,25.079872 32.030436,22.158543 30.84445,24.470599 C 28.929383,27.975337 26.005045,31.284003 26.097182,35.48688 C 25.436201,38.419744 28.508078,36.5615 28.885166,34.928444 C 29.878036,31.605523 30.821851,28.032894 33.474918,25.542022 C 35.845756,23.10873 39.162449,22.019173 42.132894,20.518434 C 43.030376,19.730639 45.597429,18.570805 43.456669,20.055589 C 40.682137,21.891883 37.411551,22.92011 34.713813,24.864126 C 33.257161,26.434372 31.694314,28.102538 30.822682,30.152522 C 29.884233,32.267955 29.119023,34.523088 29.118267,36.821614 C 29.536019,40.121626 32.415535,36.465698 32.792094,34.996742 C 33.845355,32.263782 36.15119,30.345442 38.347353,28.494144 C 40.582292,27.31484 42.964391,26.279705 45.423888,25.593389 C 47.907951,25.664514 51.146038,24.023589 52.987335,26.432089 C 54.033944,29.014524 57.437711,31.065106 56.682099,34.070576 C 56.685425,36.99065 55.045104,39.167343 53.357923,41.367225 C 52.029008,42.922226 51.635443,48.474062 54.894995,46.807084 C 56.607346,44.84195 58.63919,43.13021 60.191833,41.032291 C 61.221814,39.247455 61.392104,37.148356 62.295936,35.294928 C 63.163412,32.84215 64.496634,30.599116 66.090848,28.537968 C 67.594588,26.443056 68.237353,23.938202 69.322359,21.655358 C 71.977165,16.934068 74.81957,12.269359 78.289547,8.0747526 C 78.877817,7.2613723 80.935813,5.9902723 79.283399,7.5391962 C 75.362564,11.783363 72.524014,16.814426 69.620991,21.740345 C 68.477558,23.732794 68.275069,26.100103 66.818342,27.941317 C 65.150284,30.333953 63.451536,32.738954 62.569096,35.536236 C 61.635863,37.641919 61.360359,40.036497 60.076114,41.975086 C 59.911871,42.183183 59.726918,42.376345 59.519515,42.543982 z M 67.312887,2.1524052 C 66.267261,3.5104576 64.449848,6.072855 63.60724,6.4421275 C 65.392076,4.4427388 66.912974,2.2390773 68.520943,0.10584504 C 68.23758,0.849295 67.757396,1.4961866 67.312887,2.1524052 z M 62.609307,7.6742412 C 61.451891,8.7313265 60.350409,12.112652 59.731528,12.004159 C 60.483133,10.740859 62.210526,7.1015579 62.787079,7.4824704 C 62.727822,7.5463921 62.668564,7.6103128 62.609307,7.6742412 z M 34.963844,21.255845 C 34.059333,21.493209 30.571365,23.117739 33.038875,21.735477 C 34.086693,21.314641 36.408477,20.53213 36.713912,20.653427 C 36.134637,20.865454 35.54909,21.060324 34.963844,21.255845 z M 59.476886,12.339714 L 59.461391,12.366046 L 59.476886,12.339714 z M 46.929745,14.990422 C 45.820704,15.151666 44.711587,15.312917 43.602546,15.474159 M 32.949158,19.856864 C 36.862207,19.272375 39.910805,16.540405 43.650466,15.478989 M 46.878273,14.996477 C 51.140142,14.534153 55.522643,14.351542 59.465851,12.520691"
     id="path2384" />
  <path
     style="opacity:0.8;fill:url(#linearGradient3217);fill-opacity:1;stroke:#000818;stroke-width:0.088;stroke-miterlimit:4;stroke-dasharray:none;stroke-opacity:0"
     d="M 52.157323,45.738195 C 52.079333,44.405164 52.210823,42.690514 52.742772,42.213001 C 54.312833,40.008829 55.763672,39.38116 56.209021,35.500574 C 56.876096,30.797522 56.396855,32.329368 53.97532,28.296192 C 52.097548,26.350151 52.17507,25.470436 50.440217,25.251319 C 49.568669,25.141241 49.276732,25.143577 48.850186,25.264045 C 44.828304,26.032717 44.707859,25.944097 40.295794,27.546783 C 39.031884,28.259657 36.324379,29.698089 35.643887,31.055162 C 33.952461,33.6664 32.286476,35.861151 30.312715,38.300826 C 28.41152,38.204929 28.879683,35.694563 28.760995,35.694563 L 28.273178,35.828068 C 27.457933,37.357026 24.643502,38.451719 26.168153,33.378386 C 19.030556,34.926403 29.926441,22.19737 32.9357,20.180939 C 38.150441,16.937977 44.420589,15.264627 50.540087,14.672842 C 52.407407,14.392872 58.03111,13.315614 59.484547,12.635633 C 59.982671,12.402587 61.926524,8.0100964 62.264704,8.1034714 L 68.288785,0.86860294 L 69.640162,1.8997391 C 69.868682,2.0379178 71.108529,2.9570288 71.442169,3.1796421 C 74.955104,4.2028391 75.045695,2.9968375 76.780629,3.3086615 C 78.503641,3.6183428 78.732822,4.4191616 78.928192,6.5768703 L 79.141662,7.2385909 C 74.220915,13.497319 71.005798,18.5636 68.247971,25.275688 C 66.981595,27.461574 65.174525,29.124292 64.045122,31.393092 C 63.134227,32.911777 62.810805,34.478455 62.390471,36.185117 C 61.094463,39.814475 60.258165,41.598403 57.264339,44.546523 C 56.131972,46.379955 55.48273,47.170695 53.795107,47.210521 C 52.107523,47.250347 52.157323,45.738195 52.157323,45.738195 z M 33.689633,22.416461 C 40.688362,19.463479 28.617692,24.313491 33.689633,22.41646 L 33.689633,22.416461 z"
     id="path2439"
     sodipodi:nodetypes="ccccscccccccccscccczcccccczcccc" />
</svg>
