<?xml version="1.0" encoding="UTF-8" standalone="no"?>
<!-- Created with Inkscape (http://www.inkscape.org/) -->
<svg
   xmlns:dc="http://purl.org/dc/elements/1.1/"
   xmlns:cc="http://creativecommons.org/ns#"
   xmlns:rdf="http://www.w3.org/1999/02/22-rdf-syntax-ns#"
   xmlns:svg="http://www.w3.org/2000/svg"
   xmlns="http://www.w3.org/2000/svg"
   xmlns:xlink="http://www.w3.org/1999/xlink"
   xmlns:sodipodi="http://sodipodi.sourceforge.net/DTD/sodipodi-0.dtd"
   xmlns:inkscape="http://www.inkscape.org/namespaces/inkscape"
   width="60.000000px"
   height="60.000000px"
   id="svg2"
   sodipodi:version="0.32"
   inkscape:version="0.46"
   sodipodi:docbase="/home/david/.icons/eXperience/normal/stock"
   sodipodi:docname="icon-icons.svg"
   inkscape:output_extension="org.inkscape.output.svg.inkscape">
  <defs
     id="defs3">
    <inkscape:perspective
       sodipodi:type="inkscape:persp3d"
       inkscape:vp_x="0 : 30 : 1"
       inkscape:vp_y="0 : 1000 : 0"
       inkscape:vp_z="60 : 30 : 1"
       inkscape:persp3d-origin="30 : 20 : 1"
       id="perspective27" />
    <linearGradient
       id="linearGradient607">
      <stop
         id="stop608"
         offset="0"
         style="stop-color:#ffffff;stop-opacity:1.0000;" />
      <stop
         id="stop609"
         offset="1"
         style="stop-color:#ffffff;stop-opacity:0;" />
    </linearGradient>
    <linearGradient
       id="linearGradient617">
      <stop
         id="stop618"
         offset="0"
         style="stop-color:#ffff97;stop-opacity:1.0000;" />
      <stop
         id="stop619"
         offset="1"
         style="stop-color:#ffd200;stop-opacity:1.0000;" />
    </linearGradient>
    <linearGradient
       id="linearGradient621">
      <stop
         id="stop622"
         offset="0"
         style="stop-color:#ae7d00;stop-opacity:1.0000;" />
      <stop
         id="stop623"
         offset="1"
         style="stop-color:#ca7a00;stop-opacity:1.0000;" />
    </linearGradient>
    <radialGradient
       inkscape:collect="always"
       xlink:href="#linearGradient607"
       id="radialGradient3483"
       gradientUnits="userSpaceOnUse"
       gradientTransform="matrix(1.3987289e-3,0,0,2.5965164e-3,0.5438561,0.6469759)"
       cx="-224.78955"
       cy="16730.576"
       fx="-224.78955"
       fy="16730.576"
       r="15346.778" />
    <radialGradient
       inkscape:collect="always"
       xlink:href="#linearGradient607"
       id="radialGradient3486"
       gradientUnits="userSpaceOnUse"
       gradientTransform="matrix(3.5713227e-3,0,0,1.0169397e-3,0.5438561,0.6469759)"
       cx="12401.653"
       cy="14793.111"
       fx="12401.653"
       fy="14793.111"
       r="10278.286" />
    <radialGradient
       inkscape:collect="always"
       xlink:href="#linearGradient607"
       id="radialGradient3489"
       gradientUnits="userSpaceOnUse"
       gradientTransform="matrix(1.9963951e-3,0,0,1.8191912e-3,0.5438561,0.6469759)"
       cx="1181.6838"
       cy="1680.5630"
       fx="1181.6838"
       fy="1680.5630"
       r="19252.603" />
    <radialGradient
       inkscape:collect="always"
       xlink:href="#linearGradient617"
       id="radialGradient3492"
       gradientUnits="userSpaceOnUse"
       gradientTransform="matrix(1.9388441e-3,0,0,1.8731901e-3,0.5438561,0.6469759)"
       cx="16622.825"
       cy="24634.273"
       fx="16622.825"
       fy="24634.273"
       r="14495.664" />
    <linearGradient
       inkscape:collect="always"
       xlink:href="#linearGradient621"
       id="linearGradient3495"
       gradientUnits="userSpaceOnUse"
       gradientTransform="matrix(1.9403553e-3,0,0,1.8717295e-3,0.5438561,0.6469759)"
       x1="-3.9413268"
       y1="197.54069"
       x2="29468.303"
       y2="197.54069" />
  </defs>
  <sodipodi:namedview
     id="base"
     pagecolor="#ffffff"
     bordercolor="#666666"
     borderopacity="1.0"
     inkscape:pageopacity="0.0"
     inkscape:pageshadow="2"
     inkscape:zoom="3.959798"
     inkscape:cx="37.927792"
     inkscape:cy="28.344739"
     inkscape:document-units="px"
     inkscape:current-layer="layer1"
     inkscape:window-width="869"
     inkscape:window-height="726"
     inkscape:window-x="235"
     inkscape:window-y="75"
     showgrid="false" />
  <metadata
     id="metadata4">
    <rdf:RDF>
      <cc:Work
         rdf:about="">
        <dc:format>image/svg+xml</dc:format>
        <dc:type
           rdf:resource="http://purl.org/dc/dcmitype/StillImage" />
      </cc:Work>
    </rdf:RDF>
  </metadata>
  <g
     inkscape:label="Layer 1"
     inkscape:groupmode="layer"
     id="layer1">
    <path
       sodipodi:nodetypes="ccscscscscccccssscsss"
       style="font-size:12px;opacity:0.3;fill:#000000;fill-opacity:1;fill-rule:evenodd"
       id="path2433"
       d="M 35.05868,5.6692042 L 40.036458,20.991306 L 55.51864,20.991306 C 57.598139,20.991306 59.14144,22.294818 59.673139,23.846084 C 60.212462,25.41641 59.67514,27.354656 58.329597,28.332183 L 45.460175,37.681713 L 50.694045,53.796867 C 51.170727,55.264586 50.234039,56.952496 49.180168,57.74528 C 48.135825,58.532349 45.785218,58.53271 44.726563,57.764872 L 31.262458,47.999358 L 18.802769,57.042064 C 17.02853,58.200752 15.056097,58.174071 13.695402,57.219298 C 12.361388,56.283582 11.732498,54.473135 12.123172,52.889471 L 17.062834,37.681713 L 4.6145802,28.623759 C 2.9015728,27.377296 2.3810599,25.408786 2.867022,23.821311 C 3.3529842,22.233833 4.9290033,20.980782 6.5908262,20.981776 L 22.486553,20.991306 L 27.279473,6.2409262 C 27.921326,4.265623 29.636867,3.2015908 31.275798,3.1745954 C 32.876614,3.1482311 34.564218,4.1472288 35.05868,5.6692042 z"
       class="fil0" />
    <path
       class="fil0"
       d="M 32.901313,3.5118372 L 37.87909,18.833938 L 53.361272,18.833938 C 55.440771,18.833938 56.984073,20.137451 57.515772,21.688717 C 58.055096,23.259042 57.517773,25.197288 56.17223,26.174816 L 43.302809,35.524346 L 48.536678,51.6395 C 49.013361,53.107219 48.076673,54.795129 47.022801,55.587914 C 45.978459,56.374982 43.627851,56.375344 42.569197,55.607505 L 29.105092,45.84199 L 16.645402,54.884698 C 14.871164,56.043384 12.89873,56.016704 11.538036,55.06193 C 10.204022,54.126215 9.5751298,52.315769 9.9658052,50.732104 L 14.905467,35.524346 L 2.457213,26.466393 C 0.74420571,25.219928 0.22369279,23.251419 0.70965493,21.663943 C 1.1956171,20.076466 2.7716362,18.823415 4.4334591,18.82441 L 20.329185,18.833938 L 25.122107,4.0835592 C 25.763958,2.1082558 27.479499,1.0442236 29.118431,1.0172284 C 30.719247,0.99086409 32.40685,1.9898618 32.901313,3.5118372 z"
       id="path592"
       style="font-size:12px;fill:url(#linearGradient3495);fill-opacity:1;fill-rule:evenodd"
       sodipodi:nodetypes="ccscscscscccccssscsss" />
    <path
       class="fil1"
       d="M 36.954181,20.293416 L 53.604616,20.211069 C 56.364595,20.445094 57.41292,23.635464 55.408411,25.338313 L 41.744167,35.041529 L 47.445511,51.778446 C 48.196199,53.982199 45.44108,56.050969 43.294747,54.47889 L 29.199863,44.15511 L 15.813318,53.889542 C 13.445391,55.611448 10.388701,53.788957 11.318858,51.006358 L 16.655553,35.041529 L 2.9955161,25.161023 C 2.3664129,24.705972 1.4885061,23.480032 2.0568799,21.943838 C 2.6258094,20.617849 3.792776,20.005993 4.7244914,20.021162 L 21.447642,20.293416 L 26.675927,4.2413236 C 26.927751,3.4681406 27.747809,2.3411519 29.195651,2.3035346 C 30.551219,2.2706701 31.671543,3.4878669 31.983016,4.4787151 L 36.954181,20.293416 z"
       id="path594"
       style="font-size:12px;fill:url(#radialGradient3492);fill-rule:evenodd"
       sodipodi:nodetypes="ccccsscsscssscsssc" />
    <path
       class="fil1"
       d="M 25.519757,27.916332 C 21.959483,27.887556 22.108513,26.521221 14.792917,25.887013 C 6.5439985,25.37656 1.4885061,23.480032 2.0568799,21.943838 C 2.6258094,20.617849 3.792776,20.005993 4.7244914,20.021162 L 21.447642,20.293416 L 26.675927,4.2413254 C 26.927751,3.4681424 27.747809,2.3411538 29.195651,2.3035365 C 31.021917,13.023386 30.31973,27.953285 25.519757,27.916332 z"
       id="path596"
       style="font-size:12px;fill:url(#radialGradient3489);fill-rule:evenodd"
       sodipodi:nodetypes="cscscscs" />
    <path
       class="fil1"
       d="M 34.31552,25.148558 C 33.258638,22.511194 34.661925,21.958246 37.013124,20.363089 L 53.531531,19.969098 C 54.344478,19.949697 55.847817,20.963338 56.319791,22.332627 C 44.651363,23.309984 35.802849,28.678608 34.31552,25.148558 z"
       id="path597"
       style="font-size:12px;fill:url(#radialGradient3486);fill-rule:evenodd"
       sodipodi:nodetypes="ccscs" />
    <path
       class="fil1"
       d="M 21.963543,34.114065 C 19.757828,32.323094 18.813869,33.499505 16.593608,35.272389 L 11.322231,50.932072 C 11.062796,51.702751 11.585404,53.438949 12.753321,54.295483 C 17.144607,43.440804 24.894276,36.580675 21.963543,34.114065 z"
       id="path599"
       style="font-size:12px;fill:url(#radialGradient3483);fill-rule:evenodd"
       sodipodi:nodetypes="ccscs" />
  </g>
</svg>
