<?xml version="1.0" encoding="UTF-8" standalone="no"?>
<!-- Created with Inkscape (http://www.inkscape.org/) -->

<svg
   xmlns:dc="http://purl.org/dc/elements/1.1/"
   xmlns:cc="http://creativecommons.org/ns#"
   xmlns:rdf="http://www.w3.org/1999/02/22-rdf-syntax-ns#"
   xmlns:svg="http://www.w3.org/2000/svg"
   xmlns="http://www.w3.org/2000/svg"
   xmlns:xlink="http://www.w3.org/1999/xlink"
   xmlns:sodipodi="http://sodipodi.sourceforge.net/DTD/sodipodi-0.dtd"
   xmlns:inkscape="http://www.inkscape.org/namespaces/inkscape"
   version="1.0"
   width="48"
   height="48"
   id="svg3783"
   inkscape:version="0.47 r22583"
   sodipodi:docname="icon-extentions.svg">
  <metadata
     id="metadata43">
    <rdf:RDF>
      <cc:Work
         rdf:about="">
        <dc:format>image/svg+xml</dc:format>
        <dc:type
           rdf:resource="http://purl.org/dc/dcmitype/StillImage" />
      </cc:Work>
    </rdf:RDF>
  </metadata>
  <sodipodi:namedview
     pagecolor="#ffffff"
     bordercolor="#666666"
     borderopacity="1"
     objecttolerance="10"
     gridtolerance="10"
     guidetolerance="10"
     inkscape:pageopacity="0"
     inkscape:pageshadow="2"
     inkscape:window-width="1192"
     inkscape:window-height="786"
     id="namedview41"
     showgrid="false"
     inkscape:zoom="4.9166667"
     inkscape:cx="43.016949"
     inkscape:cy="23.18644"
     inkscape:window-x="0"
     inkscape:window-y="24"
     inkscape:window-maximized="0"
     inkscape:current-layer="svg3783" />
  <defs
     id="defs3785">
    <linearGradient
       id="linearGradient3702">
      <stop
         id="stop3704"
         style="stop-color:#000000;stop-opacity:0"
         offset="0" />
      <stop
         id="stop3710"
         style="stop-color:#000000;stop-opacity:1"
         offset="0.5" />
      <stop
         id="stop3706"
         style="stop-color:#000000;stop-opacity:0"
         offset="1" />
    </linearGradient>
    <linearGradient
       id="linearGradient3688">
      <stop
         id="stop3690"
         style="stop-color:#000000;stop-opacity:1"
         offset="0" />
      <stop
         id="stop3692"
         style="stop-color:#000000;stop-opacity:0"
         offset="1" />
    </linearGradient>
    <linearGradient
       id="linearGradient4222">
      <stop
         id="stop4224"
         style="stop-color:#ffffff;stop-opacity:1"
         offset="0" />
      <stop
         id="stop4226"
         style="stop-color:#ffffff;stop-opacity:0"
         offset="1" />
    </linearGradient>
    <radialGradient
       cx="4.9929786"
       cy="43.5"
       r="2.5"
       fx="4.9929786"
       fy="43.5"
       id="radialGradient2470"
       xlink:href="#linearGradient3688"
       gradientUnits="userSpaceOnUse"
       gradientTransform="matrix(2.003784,0,0,1.4,27.98813,-17.4)" />
    <radialGradient
       cx="4.9929786"
       cy="43.5"
       r="2.5"
       fx="4.9929786"
       fy="43.5"
       id="radialGradient2472"
       xlink:href="#linearGradient3688"
       gradientUnits="userSpaceOnUse"
       gradientTransform="matrix(2.003784,0,0,1.4,-20.01187,-104.4)" />
    <linearGradient
       x1="25.058096"
       y1="47.027729"
       x2="25.058096"
       y2="39.999443"
       id="linearGradient2474"
       xlink:href="#linearGradient3702"
       gradientUnits="userSpaceOnUse" />
    <radialGradient
       cx="4.9929786"
       cy="43.5"
       r="2.5"
       fx="4.9929786"
       fy="43.5"
       id="radialGradient2476"
       xlink:href="#linearGradient3688"
       gradientUnits="userSpaceOnUse"
       gradientTransform="matrix(2.003784,0,0,1.4,27.98813,-17.4)" />
    <radialGradient
       cx="4.9929786"
       cy="43.5"
       r="2.5"
       fx="4.9929786"
       fy="43.5"
       id="radialGradient2478"
       xlink:href="#linearGradient3688"
       gradientUnits="userSpaceOnUse"
       gradientTransform="matrix(2.003784,0,0,1.4,-20.01187,-104.4)" />
    <linearGradient
       x1="25.058096"
       y1="47.027729"
       x2="25.058096"
       y2="39.999443"
       id="linearGradient2480"
       xlink:href="#linearGradient3702"
       gradientUnits="userSpaceOnUse" />
    <linearGradient
       x1="26.95891"
       y1="-0.00034927591"
       x2="26.95891"
       y2="39.089828"
       id="linearGradient2489"
       xlink:href="#linearGradient4222"
       gradientUnits="userSpaceOnUse"
       gradientTransform="translate(-2.9999999,5.9999999)" />
    <linearGradient
       x1="27.282284"
       y1="-8.3489275"
       x2="24"
       y2="3.8990016"
       id="linearGradient2494"
       xlink:href="#linearGradient6402"
       gradientUnits="userSpaceOnUse"
       gradientTransform="matrix(0.7435898,0,0,0.7435898,3.1538499,12.153846)" />
    <linearGradient
       id="linearGradient6402">
      <stop
         offset="0"
         style="stop-color:#6f88b0;stop-opacity:1;"
         id="stop6404" />
      <stop
         offset="1"
         style="stop-color:#426296;stop-opacity:1;"
         id="stop6406" />
    </linearGradient>
    <linearGradient
       id="linearGradient4103">
      <stop
         offset="0"
         style="stop-color:#8babcb;stop-opacity:1;"
         id="stop4105" />
      <stop
         offset="1"
         style="stop-color:#426296;stop-opacity:1;"
         id="stop4107" />
    </linearGradient>
    <linearGradient
       inkscape:collect="always"
       xlink:href="#linearGradient4103"
       id="linearGradient3750"
       x1="23.440678"
       y1="5.9456682"
       x2="23.440678"
       y2="45"
       gradientUnits="userSpaceOnUse" />
  </defs>
  <g
     id="g3752">
    <g
       style="opacity:0.3"
       id="g3761"
       transform="matrix(0.4210526,0,0,0.5714286,18.894737,19.14286)">
      <rect
         style="fill:url(#radialGradient2470);fill-opacity:1;stroke:none"
         id="rect3763"
         y="40"
         x="38"
         height="7"
         width="5" />
      <rect
         style="fill:url(#radialGradient2472);fill-opacity:1;stroke:none"
         id="rect3765"
         transform="scale(-1,-1)"
         y="-47"
         x="-10"
         height="7"
         width="5" />
      <rect
         style="fill:url(#linearGradient2474);fill-opacity:1;stroke:none"
         id="rect3767"
         y="40"
         x="10"
         height="7.0000005"
         width="28" />
    </g>
    <g
       style="opacity:0.3"
       id="g3550"
       transform="matrix(0.4210526,0,0,0.5714286,1.894737,19.14286)">
      <rect
         style="fill:url(#radialGradient2476);fill-opacity:1;stroke:none"
         id="rect3552"
         y="40"
         x="38"
         height="7"
         width="5" />
      <rect
         style="fill:url(#radialGradient2478);fill-opacity:1;stroke:none"
         id="rect3554"
         transform="scale(-1,-1)"
         y="-47"
         x="-10"
         height="7"
         width="5" />
      <rect
         style="fill:url(#linearGradient2480);fill-opacity:1;stroke:none"
         id="rect3556"
         y="40"
         x="10"
         height="7.0000005"
         width="28" />
    </g>
    <path
       style="fill:url(#linearGradient3750);fill-opacity:1;stroke:url(#linearGradient2494);stroke-width:1.00000011999999994;stroke-linecap:round;stroke-linejoin:round;stroke-miterlimit:4;stroke-opacity:1;stroke-dasharray:none;stroke-dashoffset:0"
       id="rect3558"
       d="m 21,6.4999999 c -2.484,0 -4.5,2.0160002 -4.5,4.5000001 0,1.5525 0.80293,2.909805 2,3.71875 l 0,0.78125 -9.9999999,0 c -1.108,0 -2,0.892 -2,2 l 0,9.71875 C 7.3247011,26.183869 8.5748331,25.5 10,25.5 c 2.484,0 4.5,2.016 4.5,4.5 0,2.484 -2.016,4.5 -4.5,4.5 -1.4251669,0 -2.6752989,-0.683869 -3.4999999,-1.71875 l 0,9.71875 c 0,1.108 0.892,2 2,2 l 9.7187499,0 C 17.183869,43.675299 16.5,42.425167 16.5,41 c 0,-2.484 2.016,-4.5 4.5,-4.5 2.484,0 4.5,2.016 4.5,4.5 0,1.425167 -0.683869,2.675299 -1.71875,3.5 l 9.71875,0 c 1.108,0 2,-0.892 2,-2 l 0,-10 0.78125,0 c 0.808945,1.19707 2.16625,2 3.71875,2 2.484,0 4.5,-2.016 4.5,-4.5 0,-2.484 -2.016,-4.5 -4.5,-4.5 -1.5525,0 -2.909805,0.80293 -3.71875,2 l -0.78125,0 0,-10 c 0,-1.108 -0.892,-2 -2,-2 l -10,0 0,-0.78125 C 24.69707,13.909805 25.5,12.5525 25.5,11 25.5,8.5159999 23.484,6.4999999 21,6.4999999 z" />
    <path
       style="opacity:0.4;fill:none;stroke:url(#linearGradient2489);stroke-width:1.00000012;stroke-linecap:round;stroke-linejoin:round;stroke-miterlimit:4;stroke-opacity:1;stroke-dasharray:none;stroke-dashoffset:0"
       id="path3741"
       d="m 21,7.5937499 c -1.887159,0 -3.40625,1.5190916 -3.40625,3.4062501 0,1.172165 0.618863,2.195935 1.53125,2.8125 0.294947,0.20734 0.469971,0.54572 0.46875,0.90625 l 0,0.78125 c -0.0051,0.601922 -0.491828,1.088615 -1.09375,1.09375 l -9.9999999,0 c -0.515968,0 -0.90625,0.390282 -0.90625,0.90625 l 0,7.5 C 8.3218831,24.642157 9.132253,24.40625 10,24.40625 c 3.080841,0 5.59375,2.512909 5.59375,5.59375 0,3.080841 -2.512909,5.59375 -5.59375,5.59375 -0.867747,0 -1.6781169,-0.235907 -2.4062499,-0.59375 l 0,7.5 c 0,0.515968 0.390282,0.90625 0.90625,0.90625 L 16,43.40625 C 15.642157,42.678117 15.40625,41.867747 15.40625,41 c 0,-3.080841 2.512909,-5.59375 5.59375,-5.59375 3.080841,0 5.59375,2.512909 5.59375,5.59375 0,0.867747 -0.235907,1.678117 -0.59375,2.40625 l 7.5,0 c 0.515968,0 0.90625,-0.390282 0.90625,-0.90625 l 0,-10 c 0.0051,-0.601922 0.491828,-1.088615 1.09375,-1.09375 l 0.78125,0 c 0.36053,-0.0012 0.69891,0.173803 0.90625,0.46875 0.616564,0.912386 1.640335,1.53125 2.8125,1.53125 1.887159,0 3.40625,-1.519091 3.40625,-3.40625 0,-1.887159 -1.519091,-3.40625 -3.40625,-3.40625 -1.172165,0 -2.195936,0.618864 -2.8125,1.53125 -0.20734,0.294947 -0.54572,0.469971 -0.90625,0.46875 l -0.78125,0 C 34.898078,28.588615 34.411385,28.101922 34.40625,27.5 l 0,-10 c 0,-0.515968 -0.390282,-0.90625 -0.90625,-0.90625 l -10,0 C 22.898078,16.588615 22.411385,16.101922 22.40625,15.5 l 0,-0.78125 C 22.405029,14.35822 22.580053,14.01984 22.875,13.8125 23.787387,13.195935 24.40625,12.172165 24.40625,11 24.40625,9.1128412 22.887159,7.5937499 21,7.5937499 z" />
  </g>
</svg>
