<?xml version="1.0" encoding="UTF-8" standalone="no"?>
<!-- Created with Inkscape (http://www.inkscape.org/) -->

<svg
   xmlns:dc="http://purl.org/dc/elements/1.1/"
   xmlns:cc="http://creativecommons.org/ns#"
   xmlns:rdf="http://www.w3.org/1999/02/22-rdf-syntax-ns#"
   xmlns:svg="http://www.w3.org/2000/svg"
   xmlns="http://www.w3.org/2000/svg"
   xmlns:xlink="http://www.w3.org/1999/xlink"
   xmlns:sodipodi="http://sodipodi.sourceforge.net/DTD/sodipodi-0.dtd"
   xmlns:inkscape="http://www.inkscape.org/namespaces/inkscape"
   version="1.0"
   width="48"
   height="48"
   id="svg3581"
   inkscape:version="0.47 r22583"
   sodipodi:docname="icon-dialogs.svg">
  <metadata
     id="metadata31">
    <rdf:RDF>
      <cc:Work
         rdf:about="">
        <dc:format>image/svg+xml</dc:format>
        <dc:type
           rdf:resource="http://purl.org/dc/dcmitype/StillImage" />
      </cc:Work>
    </rdf:RDF>
  </metadata>
  <sodipodi:namedview
     pagecolor="#ffffff"
     bordercolor="#666666"
     borderopacity="1"
     objecttolerance="10"
     gridtolerance="10"
     guidetolerance="10"
     inkscape:pageopacity="0"
     inkscape:pageshadow="2"
     inkscape:window-width="640"
     inkscape:window-height="491"
     id="namedview29"
     showgrid="false"
     inkscape:zoom="4.9166667"
     inkscape:cx="25.884805"
     inkscape:cy="22.143264"
     inkscape:window-x="0"
     inkscape:window-y="24"
     inkscape:window-maximized="0"
     inkscape:current-layer="svg3581" />
  <defs
     id="defs3583">
    <linearGradient
       id="linearGradient8838">
      <stop
         id="stop8840"
         style="stop-color:black;stop-opacity:1"
         offset="0" />
      <stop
         id="stop8842"
         style="stop-color:black;stop-opacity:0"
         offset="1" />
    </linearGradient>
    <radialGradient
       cx="62.625"
       cy="4.625"
       r="10.625"
       fx="62.625"
       fy="4.625"
       id="radialGradient3534"
       xlink:href="#linearGradient8838"
       gradientUnits="userSpaceOnUse"
       gradientTransform="matrix(2.1647059,0,0,0.7529402,-111.56471,36.517647)" />
    <linearGradient
       id="linearGradient2490-182-124">
      <stop
         id="stop2788"
         style="stop-color:#1f4b6a;stop-opacity:1"
         offset="0" />
      <stop
         id="stop2790"
         style="stop-color:#4083c2;stop-opacity:1"
         offset="1" />
    </linearGradient>
    <linearGradient
       x1="18.379412"
       y1="44.980297"
       x2="18.379412"
       y2="3.0816143"
       id="linearGradient3531"
       xlink:href="#linearGradient2490-182-124"
       gradientUnits="userSpaceOnUse"
       gradientTransform="matrix(0.9584364,0,0,0.9584366,0.9975246,1.9975253)" />
    <linearGradient
       id="linearGradient3242-187-536">
      <stop
         id="stop2778"
         style="stop-color:#8badea;stop-opacity:1"
         offset="0" />
      <stop
         id="stop2780"
         style="stop-color:#6396cd;stop-opacity:1"
         offset="0.26238" />
      <stop
         id="stop2782"
         style="stop-color:#3b7caf;stop-opacity:1"
         offset="0.66093999" />
      <stop
         id="stop2784"
         style="stop-color:#194c70;stop-opacity:1"
         offset="1" />
    </linearGradient>
    <radialGradient
       cx="23.895569"
       cy="3.9900031"
       r="20.397499"
       fx="23.895569"
       fy="3.9900031"
       id="radialGradient3529"
       xlink:href="#linearGradient3242-187-536"
       gradientUnits="userSpaceOnUse"
       gradientTransform="matrix(0,2.2874593,-3.0194057,0,36.047437,-50.630156)" />
    <linearGradient
       id="linearGradient4873">
      <stop
         id="stop4875"
         style="stop-color:white;stop-opacity:1"
         offset="0" />
      <stop
         id="stop4877"
         style="stop-color:white;stop-opacity:0"
         offset="1" />
    </linearGradient>
    <linearGradient
       x1="63.397362"
       y1="-12.489107"
       x2="63.397362"
       y2="5.4675598"
       id="linearGradient3526"
       xlink:href="#linearGradient4873"
       gradientUnits="userSpaceOnUse"
       gradientTransform="matrix(2.1153735,0,0,2.1153253,-107.57709,32.426559)" />
  </defs>
  <g
     id="layer1">
    <path
       d="m 46.999997,40 c 0,4.418278 -10.297452,8 -23,8 -12.702548,0 -23.0000002,-3.581722 -23.0000002,-8 0,-4.418278 10.2974522,-8 23.0000002,-8 12.702548,0 23,3.581722 23,8 l 0,0 z"
       id="path8836"
       style="opacity:0.3;fill:url(#radialGradient3534);fill-opacity:1;fill-rule:evenodd;stroke:none;stroke-width:0.99999988;marker:none;visibility:visible;display:inline;overflow:visible" />
    <path
       d="M 24.000002,5.5018088 C 13.241573,5.5018088 4.5018088,14.24157 4.5018088,25 c 0,3.47906 0.913957,6.747019 2.5145814,9.576587 0.9944884,1.758047 -5.9832375,7.719744 -4.5131156,9.084813 1.2521189,1.162644 10.8942684,-2.209901 12.4181914,-1.405554 2.712317,1.431598 5.801796,2.242346 9.078536,2.242346 C 34.758427,44.498191 43.498201,35.75843 43.498191,25 c 0,-10.75843 -8.739764,-19.4981912 -19.498189,-19.4981912 z"
       id="path2555"
       style="fill:url(#radialGradient3529);fill-opacity:1;stroke:url(#linearGradient3531);stroke-width:1.003654;stroke-linecap:round;stroke-linejoin:round;stroke-miterlimit:4;stroke-opacity:1;stroke-dasharray:none;stroke-dashoffset:0"
       sodipodi:nodetypes="cssssssc" />
    <path
       d="M 42.500002,24.999344 C 42.500002,35.216942 34.21666,43.5 24.000235,43.5 c -1.869755,0.02807 -2.898279,-0.01258 -4.117108,-0.414007 -1.709649,-0.563079 -4.326491,-2.467525 -7.825664,-1.767344 -2.8607109,0.572426 -5.3779769,1.589846 -8.7548913,1.444226 8.3581473,-10.518437 2.9194642,-6.098027 2.1974286,-17.763531 0,-10.217125 8.2828747,-18.4993439 18.5002347,-18.4993439 10.216425,0 18.499767,8.2822189 18.499767,18.4993439 l 0,0 z"
       id="path8655"
       style="opacity:0.4;fill:none;stroke:url(#linearGradient3526);stroke-width:1;stroke-miterlimit:4;stroke-opacity:1;stroke-dasharray:none"
       sodipodi:nodetypes="ccssccscc" />
    <g
       transform="translate(-2.507855,0)"
       id="g3538">
      <path
         d="m 20.507855,24.213243 c 0.258151,0.701773 0.548718,1.270613 1.167657,0.492802 0.767347,-0.456552 3.33844,-2.457757 3.081171,-0.497532 -0.823263,3.627282 -1.825356,7.216418 -2.59157,10.854872 -0.801185,1.992218 1.01815,3.794264 2.917669,2.498714 2.019065,-0.832341 3.756466,-2.188081 5.531417,-3.431768 -0.24218,-0.593933 -0.403597,-1.447113 -1.072765,-0.670385 -0.878653,0.398809 -2.797726,2.279047 -3.154255,0.728272 0.73806,-3.927689 2.105519,-7.709984 2.979622,-11.606358 0.804401,-1.791543 -0.509345,-4.055223 -2.475872,-2.573235 -2.35595,1.026093 -4.326142,2.702257 -6.383074,4.204618 z m 8.74369,-13.210166 c -2.403766,-0.127566 -3.660538,3.747372 -1.376255,4.807729 1.853222,0.760024 3.871049,-1.140692 3.418314,-3.039945 -0.140499,-0.988957 -1.028394,-1.801051 -2.042058,-1.767784 l -1e-6,0 z"
         id="text3482"
         style="font-size:40px;font-style:normal;font-variant:normal;font-weight:bold;font-stretch:normal;text-align:start;line-height:100%;writing-mode:lr-tb;text-anchor:start;opacity:0.2;fill:black;fill-opacity:1;stroke:none;font-family:URW Palladio L;-inkscape-font-specification:URW Palladio L Bold" />
      <path
         d="m 20.507855,25.213243 c 0.258151,0.701773 0.548718,1.270613 1.167657,0.492802 0.767347,-0.456552 3.33844,-2.457757 3.081171,-0.497532 -0.823263,3.627282 -1.825356,7.216418 -2.59157,10.854872 -0.801185,1.992218 1.01815,3.794264 2.917669,2.498714 2.019065,-0.832341 3.756466,-2.188081 5.531417,-3.431768 -0.24218,-0.593933 -0.403597,-1.447113 -1.072765,-0.670385 -0.878653,0.398809 -2.797726,2.279047 -3.154255,0.728272 0.73806,-3.927689 2.105519,-7.709984 2.979622,-11.606358 0.804401,-1.791543 -0.509345,-4.055223 -2.475872,-2.573235 -2.35595,1.026093 -4.326142,2.702257 -6.383074,4.204618 z m 8.74369,-13.210166 c -2.403766,-0.127566 -3.660538,3.747372 -1.376255,4.807729 1.853222,0.760024 3.871049,-1.140692 3.418314,-3.039945 -0.140499,-0.988957 -1.028394,-1.801051 -2.042058,-1.767784 l -1e-6,0 z"
         id="path3536"
         style="font-size:40px;font-style:normal;font-variant:normal;font-weight:bold;font-stretch:normal;text-align:start;line-height:100%;writing-mode:lr-tb;text-anchor:start;fill:white;fill-opacity:1;stroke:none;font-family:URW Palladio L;-inkscape-font-specification:URW Palladio L Bold" />
    </g>
  </g>
</svg>
