<?xml version="1.0" encoding="UTF-8" standalone="no"?>
<!-- Generator: Adobe Illustrator 12.0.0, SVG Export Plug-In . SVG Version: 6.00 Build 51448)  --><svg height="127.644" id="Layer_1" inkscape:version="0.42" sodipodi:docbase="F:\openclip\svg da inviare" sodipodi:docname="utensili.svg" sodipodi:version="0.32" space="preserve" style="overflow:visible;enable-background:new 0 0 134.544 127.644;" version="1.1" viewBox="0 0 134.544 127.644" width="134.544" xmlns="http://www.w3.org/2000/svg" xmlns:cc="http://web.resource.org/cc/" xmlns:dc="http://purl.org/dc/elements/1.1/" xmlns:inkscape="http://www.inkscape.org/namespaces/inkscape" xmlns:rdf="http://www.w3.org/1999/02/22-rdf-syntax-ns#" xmlns:sodipodi="http://inkscape.sourceforge.net/DTD/sodipodi-0.dtd" xmlns:svg="http://www.w3.org/2000/svg">
  <metadata>
    <rdf:RDF xmlns:cc="http://web.resource.org/cc/" xmlns:dc="http://purl.org/dc/elements/1.1/" xmlns:rdf="http://www.w3.org/1999/02/22-rdf-syntax-ns#">
      <cc:Work rdf:about="">
        <dc:title>Utensili chiave e cacciavite</dc:title>
        <dc:description></dc:description>
        <dc:subject>
          <rdf:Bag>
            <rdf:li>tool</rdf:li>
          </rdf:Bag>
        </dc:subject>
        <dc:publisher>
          <cc:Agent rdf:about="http://www.openclipart.org/">
            <dc:title>Open Clip Art Library</dc:title>
          </cc:Agent>
        </dc:publisher>
        <dc:creator>
          <cc:Agent>
            <dc:title>Architetto Francesco Rollandin</dc:title>
          </cc:Agent>
        </dc:creator>
        <dc:rights>
          <cc:Agent>
            <dc:title>Architetto Francesco Rollandin</dc:title>
          </cc:Agent>
        </dc:rights>
        <dc:date></dc:date>
        <dc:format>image/svg+xml</dc:format>
        <dc:type rdf:resource="http://purl.org/dc/dcmitype/StillImage"/>
        <cc:license rdf:resource="http://web.resource.org/cc/PublicDomain"/>
        <dc:language>en</dc:language>
      </cc:Work>
      <cc:License rdf:about="http://web.resource.org/cc/PublicDomain">
        <cc:permits rdf:resource="http://web.resource.org/cc/Reproduction"/>
        <cc:permits rdf:resource="http://web.resource.org/cc/Distribution"/>
        <cc:permits rdf:resource="http://web.resource.org/cc/DerivativeWorks"/>
      </cc:License>
    </rdf:RDF>
  </metadata>
  <defs id="defs90">
    <linearGradient gradientUnits="userSpaceOnUse" id="XMLID_7_" x1="7.0522" x2="133.8921" y1="63.7373" y2="63.7373">
      <stop id="stop6" offset="0" style="stop-color:#EAEAEA"/>
      <stop id="stop8" offset="0.1981" style="stop-color:#E1E1E1"/>
      <stop id="stop10" offset="0.5226" style="stop-color:#C9C8C8"/>
      <stop id="stop12" offset="0.9311" style="stop-color:#A1A0A0"/>
      <stop id="stop14" offset="1" style="stop-color:#9A9999"/>
    </linearGradient>
    <linearGradient gradientTransform="matrix(-211.4047,211.9190,211.9190,211.4047,-146204.4,-46500.47)" gradientUnits="userSpaceOnUse" id="XMLID_8_" x1="-235.5474" x2="-233.9202" y1="455.8291" y2="455.8291">
      <stop id="stop19" offset="0" style="stop-color:#FFFFFF"/>
      <stop id="stop21" offset="1" style="stop-color:#000000"/>
    </linearGradient>
    <linearGradient gradientTransform="matrix(-211.4047,211.9190,211.9190,211.4047,-146204.4,-46500.47)" gradientUnits="userSpaceOnUse" id="XMLID_10_" x1="-235.6143" x2="-233.7809" y1="455.6045" y2="455.6045">
      <stop id="stop40" offset="0" style="stop-color:#C6C6C6"/>
      <stop id="stop42" offset="1" style="stop-color:#000000"/>
    </linearGradient>
    <linearGradient gradientTransform="matrix(-211.4047,211.9190,211.9190,211.4047,-146204.4,-46500.47)" gradientUnits="userSpaceOnUse" id="XMLID_11_" x1="-235.5425" x2="-233.9296" y1="455.8232" y2="455.8232">
      <stop id="stop81" offset="0" style="stop-color:#C6C6C6"/>
      <stop id="stop83" offset="1" style="stop-color:#000000"/>
    </linearGradient>
  </defs>
  <sodipodi:namedview bordercolor="#666666" borderopacity="1.0" id="base" inkscape:current-layer="Layer_1" inkscape:cx="67.272003" inkscape:cy="63.821999" inkscape:pageopacity="0.0" inkscape:pageshadow="2" inkscape:window-height="510" inkscape:window-width="787" inkscape:window-x="110" inkscape:window-y="145" inkscape:zoom="2.8203441" pagecolor="#ffffff"/>
  <path d="M 109.08100,81.232000 C 99.628000,71.791000 87.781000,65.423000 77.141000,57.501000 C 71.271000,53.131000 61.832000,47.218000 60.469000,39.350000 C 59.621000,34.454000 62.060000,29.586000 61.355000,24.411000 C 60.637000,19.120000 58.333000,14.101000 54.805000,10.095000 C 47.196000,1.4550000 34.622000,-1.5110000 23.956000,2.8710000 C 27.758000,6.6730000 31.560000,10.475000 35.363000,14.278000 C 40.758000,19.674000 39.975000,23.531000 34.713000,28.778000 C 29.817000,33.659000 25.990000,33.382000 21.269000,28.666000 C 17.332000,24.734000 13.398000,20.803000 9.4610000,16.871000 C 4.7930000,27.123000 7.0550000,39.467000 15.007000,47.416000 C 18.763000,51.170000 23.600000,53.788000 28.807000,54.854000 C 31.305000,55.365000 33.878000,55.524000 36.422000,55.325000 C 39.131000,55.112000 42.928000,53.073000 45.401000,53.751000 C 54.035000,56.110000 59.865000,64.428000 64.735000,71.443000 C 72.395000,82.470000 77.646000,94.697000 87.374000,104.21200 C 95.382000,112.04100 104.22300,120.19800 114.47500,125.01000 C 122.28800,128.67400 128.37600,125.89000 132.76200,118.28500 C 135.27300,113.93100 133.17000,109.85900 130.66400,105.95200 C 124.78400,96.790000 116.73100,88.887000 109.08100,81.232000 M 105.93100,103.39500 C 101.09200,103.39500 101.10100,95.886000 105.93100,95.886000 C 110.77000,95.920000 110.79000,103.39500 105.93100,103.39500" id="path16" style="fill:url(#XMLID_7_)"/>
  <path d="M 72.698000,52.866000 C 72.302000,53.261000 71.905000,53.658000 71.510000,54.054000 C 74.844000,56.899000 76.954000,56.676000 80.823000,59.405000 C 80.542000,59.701000 80.260000,59.999000 79.978000,60.294000 C 94.640000,69.885000 107.46700,79.914000 119.20500,92.986000 C 123.98400,98.229000 129.39600,103.92100 132.24700,110.53300 C 134.36600,115.45400 131.87000,118.74500 128.35800,122.33000 C 119.90100,130.96700 108.67800,121.30400 101.24900,115.43400 C 87.072000,104.23400 74.982000,90.411000 66.723000,74.254000 C 66.383000,74.611000 66.042000,74.971000 65.702000,75.328000 C 63.688000,71.161000 63.431000,68.059000 60.732000,64.829000 C 58.623000,66.931000 63.299000,71.143000 64.637000,73.792000 C 66.936000,78.346000 69.678000,82.592000 72.486000,86.847000 C 79.083000,96.840000 86.693000,105.27000 95.788000,113.06200 C 102.00000,118.38300 108.87900,123.96100 116.64700,126.83100 C 123.31500,129.29100 128.11400,125.87000 132.17300,120.65800 C 139.78200,110.89000 127.19200,99.354000 120.98000,92.476000 C 114.46100,85.259000 107.70000,78.095000 100.00600,72.111000 C 91.229000,65.284000 81.079000,60.148000 72.698000,52.866000 M 34.198000,0.00000000 C 33.081000,0.00000000 21.398000,1.6200000 23.371000,3.4560000 C 23.443000,4.2600000 26.165000,6.2530000 26.708000,6.7960000 C 30.095000,10.189000 34.506000,13.519000 37.312000,17.411000 C 41.707000,21.807000 34.470000,29.871000 30.065000,31.649000 C 25.013000,33.687000 19.683000,25.907000 16.689000,22.910000 C 16.045000,22.266000 9.5660000,14.697000 8.7030000,16.520000 C 4.5360000,25.685000 5.6650000,36.610000 11.614000,44.719000 C 16.878000,51.896000 25.403000,56.240000 34.307000,56.240000 C 38.610000,56.240000 42.839000,53.808000 46.860000,55.089000 C 50.788000,56.339000 53.532000,59.148000 56.223000,62.163000 C 59.740000,58.645000 47.685000,53.515000 44.586000,52.668000 C 42.863000,52.226000 38.760000,54.272000 36.791000,54.460000 C 32.901000,54.828000 28.938000,54.326000 25.268000,52.988000 C 11.355000,47.919000 4.3760000,32.118000 9.8260000,18.401000 C 13.796000,22.374000 17.768000,26.345000 21.740000,30.317000 C 27.145000,35.721000 31.600000,33.067000 36.216000,28.450000 C 38.551000,26.115000 41.009000,23.832000 40.471000,20.164000 C 38.904000,17.941000 37.158000,16.076000 35.243000,14.161000 C 31.650000,10.570000 28.057000,6.9770000 24.464000,3.3840000 C 25.421000,3.7510000 26.309000,4.2440000 27.127000,4.8650000 C 26.594000,4.3320000 26.063000,3.7990000 25.529000,3.2670000 C 39.058000,-1.5460000 54.251000,5.5730000 59.171000,19.089000 C 61.624000,25.829000 59.288000,30.824000 59.314000,37.417000 C 59.808000,40.735000 64.991000,53.403000 68.857000,49.536000 C 65.163000,46.288000 61.950000,43.532000 61.166000,38.523000 C 60.736000,35.768000 62.097000,33.164000 62.339000,30.370000 C 62.661000,26.625000 62.187000,22.807000 60.997000,19.245000 C 57.187000,7.8240000 46.210000,0.00000000 34.198000,0.00000000" id="path23" style="fill:url(#XMLID_8_)"/>
  <path d="M 11.881000,21.244000 C 11.658000,20.363000 11.099000,19.853000 10.204000,19.714000 C 7.7990000,26.501000 8.7610000,34.251000 12.493000,40.375000 C 9.5010000,34.335000 9.2280000,27.417000 11.881000,21.244000 M 60.131000,27.603000 C 60.139000,19.719000 56.263000,12.224000 49.937000,7.5470000 C 47.027000,5.3960000 43.665000,3.8730000 40.131000,3.1000000 C 38.507000,2.7440000 26.703000,1.6890000 26.726000,3.9430000 C 26.762000,7.4030000 34.900000,5.9490000 36.423000,6.0650000 C 41.284000,6.4320000 45.989000,8.2470000 49.821000,11.259000 C 58.559000,18.129000 61.486000,30.378000 56.528000,40.390000 C 58.863000,36.545000 60.146000,32.106000 60.131000,27.603000" id="path25" style="fill:#e5e5e5"/>
  <path d="M 38.564000,31.626000 C 40.083000,30.107000 42.482000,27.833000 42.865000,25.569000 C 43.510000,21.777000 37.824000,26.812000 37.544000,27.154000 C 35.807000,29.284000 34.146000,31.437000 31.902000,33.069000 C 31.396000,33.438000 28.790000,34.445000 28.593000,35.091000 C 28.349000,35.895000 31.137000,35.825000 31.351000,35.800000 C 34.160000,35.463000 36.632000,33.560000 38.564000,31.626000" id="path27" style="fill:#e5e5e5"/>
  <path d="M 24.464000,3.3830000 C 29.860000,8.7770000 36.065000,13.917000 40.471000,20.163000 C 39.990000,16.926000 36.875000,14.612000 34.706000,12.442000 C 31.753000,9.4900000 28.499000,4.8330000 24.464000,3.3830000" id="path44" style="fill:url(#XMLID_10_)"/>
  <path d="M 42.396000,24.593000 C 42.495000,25.117000 42.591000,25.639000 42.689000,26.163000 C 43.046000,25.443000 42.947000,24.921000 42.396000,24.593000" id="path46" style="fill:#b2b2b2"/>
  <path d="M 26.256000,35.833000 C 25.233000,36.858000 8.8100000,20.486000 9.8580000,19.434000 C 10.220000,19.071000 26.610000,35.480000 26.256000,35.833000" id="path48" style="fill:#e5e5e5"/>
  <path d="M 131.95900,114.90000 C 135.58300,111.25500 97.052000,77.087000 93.037000,73.809000 C 83.307000,65.863000 72.062000,59.950000 63.280000,50.795000 C 61.683000,49.130000 59.968000,47.282000 59.049000,45.131000 C 59.026000,45.072000 58.605000,43.315000 58.828000,43.431000 C 59.001000,43.521000 58.451000,44.124000 58.410000,44.165000 C 58.155000,44.424000 67.164000,52.446000 67.693000,52.850000 C 78.506000,61.092000 90.690000,67.080000 101.22800,75.798000 C 110.10300,83.141000 118.48900,91.335000 125.47100,100.52100 C 126.99900,102.53500 134.91600,111.94100 131.95900,114.90000" id="path50" style="fill:#e5e5e5"/>
  <path d="M 99.574000,88.352000 C 98.001000,88.352000 96.503000,88.610000 95.027000,89.150000 C 99.715000,89.150000 103.19300,88.714000 107.27000,91.853000 C 110.09200,94.025000 112.00500,97.062000 113.71600,100.13200 C 114.15400,100.91600 116.42400,106.83200 117.53600,106.83200 C 120.14700,106.83200 114.18500,96.644000 113.75300,96.128000 C 110.18000,91.856000 105.35800,88.352000 99.574000,88.352000" id="path52" style="fill:#9a9a9a"/>
  <path d="M 104.40400,107.66400 C 106.62700,109.20400 109.27900,109.87400 111.95000,109.98600 C 112.53500,110.01000 116.96200,109.40700 117.26300,110.12300 C 119.21700,114.78700 105.50100,111.51800 104.49900,110.94400 C 98.343000,107.42800 93.446000,100.60200 93.395000,93.350000 C 93.365000,89.440000 94.761000,86.989000 95.265000,92.395000 C 95.865000,98.857000 99.070000,103.96300 104.40400,107.66400" id="path54" style="fill:#e5e5e5"/>
  <path d="M 56.106000,65.645000 C 64.920000,74.429000 43.356000,92.957000 38.540000,97.851000 C 31.102000,105.40700 23.226000,113.77500 13.884000,119.03300 C 10.804000,120.76700 6.8200000,122.37200 3.6420000,119.99400 C -6.4600000,112.43300 12.193000,95.287000 16.812000,90.416000 C 24.873000,81.913000 33.520000,72.776000 43.714000,66.782000 C 47.221000,64.719000 52.627000,62.152000 56.106000,65.645000" id="path56" style="fill:#d82a2a"/>
  <path d="M 56.106000,65.645000 C 55.552000,65.251000 54.997000,64.858000 54.443000,64.464000 C 60.661000,73.627000 40.756000,90.577000 35.884000,95.521000 C 28.666000,102.84700 21.132000,110.68800 12.281000,116.08200 C 9.3570000,117.86400 5.2580000,120.02000 1.8640000,118.18200 C 9.8060000,129.63800 30.212000,106.11300 34.844000,101.54700 C 39.894000,96.573000 65.650000,75.155000 56.106000,65.645000" id="path58" style="fill:#b20d0d"/>
  <path d="M 50.061000,68.252000 C 51.251000,69.441000 30.619000,87.524000 29.404000,88.727000 C 22.778000,95.291000 16.288000,101.99600 10.089000,108.96700 C 9.5500000,109.57200 6.7570000,113.67800 5.5770000,113.10400 C 0.29500000,110.53600 17.778000,93.480000 18.911000,92.300000 C 21.175000,89.940000 44.857000,63.043000 50.061000,68.252000" id="path60" style="fill:#ef5656"/>
  <path d="M 21.607000,84.615000 C 17.419000,88.803000 -11.748000,116.19300 5.3000000,121.54400 C 11.723000,123.56000 19.711000,116.04800 24.120000,112.30200 C 32.651000,105.05100 40.698000,97.002000 48.051000,88.559000 C 52.372000,83.599000 63.458000,72.145000 56.546000,65.208000 C 47.303000,55.966000 26.739000,79.484000 21.607000,84.615000 M 3.0730000,118.67800 C -2.2300000,113.43100 5.7980000,104.13000 9.0310000,100.11200 C 16.836000,90.419000 25.930000,81.343000 35.524000,73.426000 C 39.601000,70.063000 52.655000,58.844000 57.030000,67.883000 C 58.674000,71.280000 56.197000,75.452000 54.427000,78.251000 C 48.190000,88.118000 39.260000,96.563000 30.868000,104.55200 C 26.291000,108.90900 10.811000,126.44600 3.0730000,118.67800" id="path62" style="fill:#970f00"/>
  <path d="M 112.69600,9.2150000 C 118.13700,14.656000 110.96100,18.319000 107.11100,22.176000 C 103.48800,25.806000 98.833000,26.723000 95.076000,30.484000 C 90.847000,34.716000 86.616000,38.947000 82.387000,43.178000 C 75.524000,50.041000 68.658000,56.905000 61.793000,63.767000 C 60.315000,65.245000 58.839000,66.721000 57.362000,68.197000 C 56.688000,68.872000 55.824000,68.938000 54.938000,68.604000 C 51.535000,67.321000 53.943000,64.442000 55.438000,62.949000 C 65.020000,53.372000 74.603000,43.795000 84.183000,34.215000 C 86.526000,31.873000 88.868000,29.531000 91.209000,27.190000 C 92.654000,25.746000 94.783000,24.233000 95.623000,22.327000 C 96.435000,20.484000 96.266000,17.862000 97.766000,16.360000 C 102.06700,12.058000 106.58500,3.2150000 112.69600,9.2150000" id="path64" style="fill:#c6c6c6"/>
  <path d="M 94.426000,26.611000 C 94.929000,27.114000 55.538000,66.550000 55.013000,66.025000 C 54.775000,65.787000 93.494000,25.769000 94.426000,26.611000" id="path66" style="fill:#ffffff"/>
  <path d="M 98.729000,26.611000 C 92.322000,28.250000 56.567000,69.364000 55.830000,68.633000 C 61.326000,66.750000 97.841000,25.723000 98.729000,26.611000" id="path68" style="fill:#9a9a9a"/>
  <path d="M 112.60900,13.094000 C 112.60900,17.334000 99.194000,26.253000 99.194000,18.898000 C 99.194000,18.304000 104.74800,17.451000 106.12900,16.567000 C 106.62800,16.246000 112.60900,12.357000 112.60900,13.094000" id="path70" style="fill:#e5e5e5"/>
  <path d="M 108.60800,7.1090000 C 107.07000,7.1090000 98.324000,16.640000 98.436000,16.754000 C 99.451000,17.766000 107.54600,7.1090000 108.60800,7.1090000" id="path72" style="fill:#9a9a9a"/>
  <path d="M 108.06400,7.9500000 C 108.37400,7.6340000 111.78500,12.705000 112.46800,12.705000 C 112.59100,10.598000 110.32300,7.9570000 108.06400,7.9500000" id="path74" style="fill:#dddddd"/>
  <path d="M 108.06200,7.9500000 C 107.79600,7.9500000 107.50700,8.2540000 108.06200,7.9500000" id="path76" style="fill:#c4c4c4"/>
  <path d="M 73.073000,59.401000 C 71.051000,61.424000 69.028000,63.448000 67.006000,65.472000 C 63.093000,69.388000 64.059000,69.055000 66.721000,74.253000 C 70.341000,70.440000 73.961000,66.629000 77.581000,62.815000 C 76.062000,61.698000 74.557000,60.563000 73.073000,59.401000 M 75.354000,57.117000 C 75.151000,57.319000 74.947000,57.524000 74.745000,57.726000 C 76.348000,58.744000 77.971000,59.726000 79.612000,60.680000 C 79.733000,60.552000 79.855000,60.422000 79.977000,60.294000 C 78.412000,59.270000 76.862000,58.223000 75.354000,57.117000" id="path78" style="fill:#9a9a9a"/>
  <path d="M 63.712000,68.770000 C 62.258000,70.442000 64.774000,73.411000 65.701000,75.328000 C 67.915000,73.940000 64.712000,70.298000 63.712000,68.770000 M 76.273000,56.196000 C 75.965000,56.503000 75.661000,56.810000 75.354000,57.117000 C 77.075000,58.381000 79.097000,60.876000 80.822000,59.405000 C 79.306000,58.335000 77.789000,57.265000 76.273000,56.196000" id="path85" style="fill:url(#XMLID_11_)"/>
  <path d="M 74.745000,57.726000 C 74.112000,58.088000 73.592000,58.881000 73.073000,59.402000 C 75.343000,61.177000 77.686000,64.416000 79.612000,60.680000 C 77.970000,59.726000 76.347000,58.743000 74.745000,57.726000" id="path87" style="fill:#b2b2b2"/>
</svg>
