<?xml version="1.0" encoding="UTF-8" standalone="no"?>
<svg
   xmlns:dc="http://purl.org/dc/elements/1.1/"
   xmlns:cc="http://creativecommons.org/ns#"
   xmlns:rdf="http://www.w3.org/1999/02/22-rdf-syntax-ns#"
   xmlns:svg="http://www.w3.org/2000/svg"
   xmlns="http://www.w3.org/2000/svg"
   xmlns:xlink="http://www.w3.org/1999/xlink"
   xmlns:sodipodi="http://sodipodi.sourceforge.net/DTD/sodipodi-0.dtd"
   xmlns:inkscape="http://www.inkscape.org/namespaces/inkscape"
   width="64"
   height="64"
   version="1.1"
   id="svg4223"
   inkscape:version="0.48.4 r9939"
   sodipodi:docname="icon-desklets.svg">
  <metadata
     id="metadata4285">
    <rdf:RDF>
      <cc:Work
         rdf:about="">
        <dc:format>image/svg+xml</dc:format>
        <dc:type
           rdf:resource="http://purl.org/dc/dcmitype/StillImage" />
      </cc:Work>
    </rdf:RDF>
  </metadata>
  <sodipodi:namedview
     pagecolor="#ffffff"
     bordercolor="#666666"
     borderopacity="1"
     objecttolerance="10"
     gridtolerance="10"
     guidetolerance="10"
     inkscape:pageopacity="0"
     inkscape:pageshadow="2"
     inkscape:window-width="1668"
     inkscape:window-height="1023"
     id="namedview4283"
     showgrid="false"
     inkscape:zoom="7.0264084"
     inkscape:cx="40.050023"
     inkscape:cy="41.595261"
     inkscape:window-x="0"
     inkscape:window-y="0"
     inkscape:window-maximized="1"
     inkscape:current-layer="svg4223" />
  <defs
     id="defs4225">
    <linearGradient
       id="lg0">
      <stop
         style="stop-color:#fff5e0;stop-opacity:1;"
         offset="0"
         id="stop4228" />
      <stop
         style="stop-color:#ffce00;stop-opacity:1;"
         offset="1"
         id="stop4230" />
    </linearGradient>
    <linearGradient
       id="lg1">
      <stop
         style="stop-color:#00f;stop-opacity:1"
         offset="0"
         id="stop4233" />
      <stop
         style="stop-color:#e0e0ff;stop-opacity:1"
         offset="1"
         id="stop4235" />
    </linearGradient>
    <linearGradient
       id="lg2">
      <stop
         style="stop-color:#fff;stop-opacity:1"
         offset="0"
         id="stop4238" />
      <stop
         style="stop-color:#fff;stop-opacity:0"
         offset="1"
         id="stop4240" />
    </linearGradient>
    <linearGradient
       id="lg3">
      <stop
         style="stop-color:#c00000;stop-opacity:1;"
         offset="0"
         id="stop4243" />
      <stop
         offset="1"
         style="stop-color:#ffe0e0;stop-opacity:1"
         id="stop4245" />
    </linearGradient>
    <linearGradient
       xlink:href="#lg2"
       id="lg4"
       gradientUnits="userSpaceOnUse"
       gradientTransform="matrix(0.545556,0,0,0.350255,-38.51666,72.6073)"
       x1="139.43112"
       y1="520.74255"
       x2="222.73912"
       y2="520.74255" />
    <linearGradient
       xlink:href="#lg3"
       id="lg5"
       gradientUnits="userSpaceOnUse"
       gradientTransform="matrix(1.000031,0,0,1.000031,-45.00832,-319.1057)"
       x1="221.01576"
       y1="674.0849"
       x2="119.92342"
       y2="474.09103" />
    <linearGradient
       xlink:href="#lg2"
       id="lg6"
       gradientUnits="userSpaceOnUse"
       gradientTransform="matrix(0.545558,0,0,0.350255,91.4834,-57.3926)"
       x1="139.62971"
       y1="520.74225"
       x2="222.73819"
       y2="520.74225" />
    <linearGradient
       xlink:href="#lg1"
       id="lg7"
       gradientUnits="userSpaceOnUse"
       gradientTransform="matrix(1.334164,0,0,1.334164,-90.28301,-537.514)"
       x1="296.20334"
       y1="571.52942"
       x2="220.84492"
       y2="421.62283" />
    <linearGradient
       xlink:href="#lg2"
       id="lg8"
       gradientUnits="userSpaceOnUse"
       gradientTransform="matrix(0.545558,0,0,0.350255,236.4833,37.6074)"
       x1="139.43103"
       y1="520.74225"
       x2="222.73837"
       y2="520.74225" />
    <linearGradient
       xlink:href="#lg0"
       id="lg9"
       gradientUnits="userSpaceOnUse"
       gradientTransform="matrix(1.334164,0,0,1.334164,54.71699,-442.514)"
       x1="221.02206"
       y1="421.6228"
       x2="296.72556"
       y2="571.52942" />
  </defs>
  <g
     style="display:inline"
     id="g4253"
     transform="matrix(0.15527097,0,0,0.15527097,-3.525223,8.6478703)">
    <path
       style="fill:url(#lg5);fill-opacity:1;fill-rule:nonzero;stroke:none;stroke-width:38;marker-start:none"
       d="m 69.33962,154.99997 111.32077,0 c 24.56415,0 44.33961,19.77547 44.33961,44.33962 l 0,111.32078 c 0,24.56414 -19.77546,44.33961 -44.33961,44.33961 l -111.32077,0 C 44.775476,354.99998 25,335.22451 25,310.66037 l 0,-111.32078 c 0,-24.56415 19.775476,-44.33962 44.33962,-44.33962 z"
       id="path4255"
       inkscape:connector-curvature="0" />
    <path
       style="opacity:0.25000000000000000;fill:#b30000;fill-opacity:1;fill-rule:evenodd;stroke:none"
       d="m 182.05654,230.00562 c -48.53089,0.52516 -61.79585,56.69111 -104.89889,57.24964 -18.6358,0.23541 -34.530378,-12.5544 -52.157599,-27.69878 l 0,51.65226 c 0,24.24869 19.796853,43.79127 44.361069,43.79124 l 111.31955,0 c 24.56422,0 44.31938,-19.54253 44.31938,-43.79124 l 0,-70.25531 c -12.03236,-6.60668 -25.96585,-11.13587 -42.94351,-10.94781 z"
       id="path4257"
       inkscape:connector-curvature="0" />
    <rect
       style="fill:url(#lg4);fill-opacity:1;fill-rule:nonzero;stroke:none"
       width="33"
       height="150"
       x="50"
       y="179.99998"
       ry="17.032595"
       rx="17.032595"
       id="rect4259" />
    <path
       style="fill:none;stroke:#800000;stroke-width:12.68599987;stroke-linecap:butt;stroke-linejoin:round;stroke-miterlimit:20;stroke-opacity:0.50196078;stroke-dasharray:none;stroke-dashoffset:0;marker-start:none"
       d="m 69.46811,161.34322 111.19211,0 c 21.12816,0 37.9969,16.87873 37.9969,38.00595 l 0,111.32031 c 0,21.13499 -16.86549,37.98752 -37.9969,37.98752 l -111.32032,0 c -21.131502,0 -37.9969,-16.86042 -37.9969,-37.98752 l 0,-111.35844 c 0,-21.13196 16.99051,-37.96782 38.12511,-37.96782 z"
       id="path4261"
       inkscape:connector-curvature="0" />
  </g>
  <g
     style="display:inline"
     id="g4263"
     transform="matrix(0.15527097,0,0,0.15527097,-23.853612,-3.6423839)">
    <path
       style="fill:url(#lg7);fill-opacity:1;fill-rule:nonzero;stroke:none;stroke-width:38.28099823;marker-start:none"
       d="m 199.33962,24.99998 111.32078,0 c 24.56415,0 44.3396,19.77547 44.3396,44.3396 l 0,111.32079 c 0,24.56414 -19.77545,44.33961 -44.3396,44.33961 l -111.32078,0 C 174.77548,224.99998 155,205.22451 155,180.66037 l 0,-111.32079 c 0,-24.56413 19.77548,-44.3396 44.33962,-44.3396 z"
       id="path4265"
       inkscape:connector-curvature="0" />
    <path
       style="opacity:0.25000000000000000;fill:#0014be;fill-opacity:1;fill-rule:evenodd;stroke:none"
       d="M 312.05649,100.00562 C 263.5256,100.5308 250.26065,156.69674 207.1576,157.25527 188.52179,157.49067 172.62722,144.70086 155,129.55648 l 0,51.65227 c 0,24.24868 19.79685,43.79126 44.36106,43.79123 l 111.31957,0 c 24.5642,0 44.31937,-19.54253 44.31937,-43.79123 l 0,-70.25531 c -12.03236,-6.60669 -25.96585,-11.13588 -42.94351,-10.94782 z"
       id="path4267"
       inkscape:connector-curvature="0" />
    <rect
       style="fill:url(#lg6);fill-opacity:1;fill-rule:nonzero;stroke:none"
       width="33"
       height="150"
       x="180"
       y="49.999981"
       ry="17.032595"
       rx="17.032595"
       id="rect4269" />
    <path
       d="m 199.46811,31.34322 111.19211,0 c 21.12816,0 37.9969,16.87873 37.9969,38.00595 l 0,111.32031 c 0,21.13499 -16.86549,37.98752 -37.9969,37.98752 l -111.32032,0 c -21.1315,0 -37.9969,-16.86042 -37.9969,-37.98752 l 0,-111.35844 c 0,-21.13196 16.99051,-37.96782 38.12511,-37.96782 z"
       style="fill:none;stroke:#000080;stroke-width:12.68599987;stroke-linecap:butt;stroke-linejoin:round;stroke-miterlimit:20;stroke-opacity:0.50196078;stroke-dasharray:none;stroke-dashoffset:0;marker-start:none;display:inline"
       id="path4271"
       inkscape:connector-curvature="0" />
  </g>
  <g
     id="g4273"
     transform="matrix(0.15527097,0,0,0.15527097,-13.790053,14.06948)">
    <path
       style="fill:url(#lg9);fill-opacity:1;fill-rule:nonzero;stroke:none;stroke-width:38.28144073;marker-start:none;display:inline"
       d="m 344.33962,119.99997 111.32077,0 c 24.56415,0 44.33961,19.77547 44.33961,44.33962 l 0,111.32078 c 0,24.56414 -19.77546,44.33961 -44.33961,44.33961 l -111.32077,0 C 319.77547,319.99998 300,300.22451 300,275.66037 l 0,-111.32078 c 0,-24.56415 19.77547,-44.33962 44.33962,-44.33962 z"
       id="path4275"
       inkscape:connector-curvature="0" />
    <path
       style="opacity:0.25000000000000000;fill:#c08300;fill-opacity:1;fill-rule:evenodd;stroke:none;display:inline"
       d="M 457.05649,195.00562 C 408.5256,195.53079 395.26065,251.69673 352.1576,252.25526 333.52179,252.49067 317.62722,239.70086 300,224.55647 l 0,51.65228 c 0,24.24868 19.79685,43.79126 44.36106,43.79123 l 111.31957,0 C 480.24484,319.99998 500,300.45745 500,276.20875 l 0,-70.25532 c -12.03236,-6.60669 -25.96584,-11.13587 -42.94351,-10.94781 z"
       id="path4277"
       inkscape:connector-curvature="0" />
    <rect
       style="fill:url(#lg8);fill-opacity:1;fill-rule:nonzero;stroke:none;display:inline"
       width="33"
       height="150"
       x="325"
       y="144.99998"
       ry="17.032595"
       rx="17.032595"
       id="rect4279" />
    <path
       style="fill:none;stroke:#808000;stroke-width:12.68599987;stroke-linecap:butt;stroke-linejoin:round;stroke-miterlimit:20;stroke-opacity:0.50196078;stroke-dasharray:none;stroke-dashoffset:0;marker-start:none;display:inline"
       d="m 344.46811,126.34322 111.19211,0 c 21.12816,0 37.9969,16.87873 37.9969,38.00595 l 0,111.32031 c 0,21.13499 -16.86549,37.98752 -37.9969,37.98752 l -111.32032,0 c -21.1315,0 -37.9969,-16.86042 -37.9969,-37.98752 l 0,-111.35844 c 0,-21.13196 16.99051,-37.96782 38.12511,-37.96782 z"
       id="path4281"
       inkscape:connector-curvature="0" />
  </g>
</svg>
