<?xml version="1.0" encoding="UTF-8" standalone="no"?>
<!-- Created with Inkscape (http://www.inkscape.org/) -->
<svg id="svg3814" xmlns:rdf="http://www.w3.org/1999/02/22-rdf-syntax-ns#" xmlns="http://www.w3.org/2000/svg" height="24" width="24" version="1.1" xmlns:cc="http://creativecommons.org/ns#" xmlns:dc="http://purl.org/dc/elements/1.1/">
 <metadata id="metadata3819">
  <rdf:RDF>
   <cc:Work rdf:about="">
    <dc:format>image/svg+xml</dc:format>
    <dc:type rdf:resource="http://purl.org/dc/dcmitype/StillImage"/>
    <dc:title/>
   </cc:Work>
  </rdf:RDF>
 </metadata>
 <g id="layer1" transform="translate(.98942 7)">
  <path id="rect3180-0" style="opacity:.3;fill-rule:evenodd" d="m7.0129 1c-0.30522 0-0.56653 0.12796-0.75 0.34375l-2.25 2.6562h-2c-0.552 0-1 0.448-1 1-0.00627 0.99607 0.00222 2.0145 0 3 0 0.552 0.448 1 1 1h2l2.1562 2.4688c0.1714 0.305 0.4694 0.531 0.8438 0.531 0.552 0 1-0.448 1-1v-9c0-0.552-0.448-1-1-1z"/>
  <path id="path3209-4" style="opacity:.3;stroke-width:1.7;stroke:#000;stroke-linecap:round;fill:none" d="m10.863 3.2219s0.98347 0.79498 1.0085 3.2306c0.02476 2.4053-1.0085 3.3256-1.0085 3.3256"/>
  <g id="g3766" style="opacity:.4">
   <path id="path2996" style="opacity:.3;stroke-width:1.7;stroke:#000;stroke-linecap:round;fill:none" d="m16.867-1.15s2.6135 2.4227 2.6135 7.6349c0 5.1866-2.618 7.6651-2.618 7.6651"/>
   <path id="path2990" style="stroke-width:1.7;stroke:#dfdbd2;stroke-linecap:round;fill:none" d="m16.867-2.15s2.6135 2.4227 2.6135 7.6349c0 5.1866-2.618 7.6651-2.618 7.6651"/>
  </g>
  <g id="g3789" style="opacity:.4">
   <path id="path2994" style="opacity:.3;stroke-width:1.7;stroke:#000;stroke-linecap:round;fill:none" d="m13.893 1.0955s1.8454 1.7448 1.7797 5.4045c-0.0662 3.6901-1.8093 5.4045-1.8093 5.4045"/>
   <path id="path2988" style="stroke-width:1.7;stroke:#dfdbd2;stroke-linecap:round;fill:none" d="m13.893 0.095476s1.8454 1.7448 1.7797 5.4045c-0.0662 3.6901-1.8093 5.4045-1.8093 5.4045"/>
  </g>
  <path id="path3209" style="stroke-width:1.7;stroke:#dfdbd2;stroke-linecap:round;fill:none" d="m10.863 2.2219s0.98347 0.79498 1.0085 3.2306c0.02476 2.4053-1.0085 3.3256-1.0085 3.3256"/>
  <path id="rect3180" style="fill-rule:evenodd;fill:#dfdbd2" d="m7.0129 0c-0.30522 0-0.56653 0.12796-0.75 0.34375l-2.25 2.6562h-2c-0.552 0-1 0.448-1 1-0.00627 0.99607 0.00222 2.0145 0 3 0 0.552 0.448 1 1 1h2l2.1562 2.4688c0.1714 0.305 0.4694 0.531 0.8438 0.531 0.552 0 1-0.448 1-1v-9c0-0.552-0.448-1-1-1z"/>
 </g>
</svg>
