<?xml version="1.0" encoding="UTF-8" standalone="no"?>
<!-- Created with Inkscape (http://www.inkscape.org/) -->
<svg id="svg3814" xmlns:rdf="http://www.w3.org/1999/02/22-rdf-syntax-ns#" xmlns="http://www.w3.org/2000/svg" height="24" width="24" version="1.1" xmlns:cc="http://creativecommons.org/ns#" xmlns:dc="http://purl.org/dc/elements/1.1/">
 <metadata id="metadata3819">
  <rdf:RDF>
   <cc:Work rdf:about="">
    <dc:format>image/svg+xml</dc:format>
    <dc:type rdf:resource="http://purl.org/dc/dcmitype/StillImage"/>
    <dc:title/>
   </cc:Work>
  </rdf:RDF>
 </metadata>
 <g id="layer1" transform="translate(0,8)">
  <path id="rect3180-0" d="m8.0134-2.3842e-8c-0.30522 0-0.56653 0.12796-0.75 0.34375l-2.25 2.6562h-2c-0.552 0-1 0.448-1 1-0.00627 0.99607 0.00222 2.0145 0 3 0 0.552 0.448 1 1 1h2l2.1562 2.4688c0.1714 0.305 0.4693 0.531 0.8438 0.531 0.552 0 1-0.448 1-1v-9c0-0.552-0.448-1-1-1z" style="opacity:.3;fill-rule:evenodd"/>
  <path id="path3209-4" d="m17.868-2.15s2.6135 2.4227 2.6135 7.6349c0 5.1866-2.618 7.6651-2.618 7.6651m-2.971-13.055s1.8454 1.7448 1.7797 5.4045c-0.0662 3.6901-1.8093 5.4045-1.8093 5.4045m-3-8.6827s0.98347 0.79498 1.0085 3.2306c0.02476 2.4053-1.0085 3.3256-1.0085 3.3256" style="opacity:.3;stroke-width:1.7;stroke:#000;stroke-linecap:round;fill:none"/>
  <path id="path3209" d="m17.868-3.15s2.6135 2.4227 2.6135 7.6349c0 5.1866-2.618 7.6651-2.618 7.6651m-2.971-13.055s1.8454 1.7448 1.7797 5.4045c-0.0662 3.6901-1.8093 5.4045-1.8093 5.4045m-3-8.6827s0.98347 0.79498 1.0085 3.2306c0.02476 2.4053-1.0085 3.3256-1.0085 3.3256" style="stroke-width:1.7;stroke:#dfdbd2;stroke-linecap:round;fill:none"/>
  <path id="rect3180" d="m8.0134-1c-0.30522 0-0.56653 0.12796-0.75 0.34375l-2.25 2.6562h-2c-0.552 0-1 0.448-1 1-0.00627 0.99607 0.00222 2.0145 0 3 0 0.552 0.448 1 1 1h2l2.1562 2.4688c0.1714 0.3049 0.4693 0.5312 0.8438 0.5312 0.552 0 1-0.448 1-1v-9c0-0.552-0.448-1-1-1z" style="fill-rule:evenodd;fill:#dfdbd2"/>
 </g>
</svg>
