<?xml version="1.0" encoding="UTF-8" standalone="no"?>
<!-- Created with Inkscape (http://www.inkscape.org/) -->
<svg id="svg3830" xmlns:rdf="http://www.w3.org/1999/02/22-rdf-syntax-ns#" xmlns="http://www.w3.org/2000/svg" height="24" width="24" version="1.1" xmlns:cc="http://creativecommons.org/ns#" xmlns:dc="http://purl.org/dc/elements/1.1/">
 <metadata id="metadata3835">
  <rdf:RDF>
   <cc:Work rdf:about="">
    <dc:format>image/svg+xml</dc:format>
    <dc:type rdf:resource="http://purl.org/dc/dcmitype/StillImage"/>
    <dc:title/>
   </cc:Work>
  </rdf:RDF>
 </metadata>
 <path id="path2396-0" d="m8.0024 8c-0.30522 0-0.56653 0.12796-0.75 0.34375l-2.25 2.6562h-2c-0.552 0-1 0.448-1 1-0.00627 0.99607 0.00222 2.0145 0 3 0 0.552 0.448 1 1 1h2l2.1562 2.4688c0.1714 0.305 0.4693 0.531 0.8438 0.531 0.552 0 1-0.448 1-1v-9c0-0.552-0.448-1-1-1zm9.6875 2-2.1875 2.25-2.25-2.2188-1.25 1.2812 2.25 2.1875-2.2188 2.25 1.2812 1.25 2.1875-2.25 2.25 2.2188 1.25-1.2812-2.25-2.1875 2.2188-2.25-1.2812-1.25z" style="opacity:.3"/>
 <path id="rect3180" d="m8.0024 7c-0.30522 0-0.56653 0.12796-0.75 0.34375l-2.25 2.6562h-2c-0.552 0-1 0.448-1 1-0.00627 0.99607 0.00222 2.0145 0 3 0 0.552 0.448 1 1 1h2l2.1562 2.4688c0.1714 0.305 0.4693 0.531 0.8438 0.531 0.552 0 1-0.448 1-1v-9c0-0.552-0.448-1-1-1zm9.6875 2-2.1875 2.25-2.25-2.2188-1.25 1.2812 2.25 2.1875-2.2188 2.25 1.2812 1.25 2.1875-2.25 2.25 2.2188 1.25-1.2812-2.25-2.1875 2.2188-2.25l-1.281-1.25z" style="fill-rule:evenodd;fill:#19b6ee"/>
</svg>
